<svg width="661" height="675" viewBox="0 0 661 675" fill="none" xmlns="http://www.w3.org/2000/svg">
<path fill-rule="evenodd" clip-rule="evenodd" d="M122.349 125.41C140.471 98.6629 168.769 79.7591 201.016 72.8572L381.6 34.2066C413.849 27.3044 447.404 32.9697 474.886 49.9561L543.319 92.2512C570.741 109.2 578.312 144.576 560.23 171.264C542.147 197.952 505.257 205.848 477.834 188.899L442.726 167.199C420.245 153.304 392.795 148.67 366.419 154.316L273.198 174.268C240.95 181.17 212.653 200.074 194.53 226.821L185.654 239.921C167.531 266.669 161.069 299.068 167.688 329.992L184.939 410.596C191.558 441.518 210.716 468.436 238.198 485.421L251.66 493.74C279.142 510.728 312.698 516.392 344.946 509.491L438.167 489.538C464.543 483.893 487.692 468.43 502.516 446.552L525.666 412.38C543.749 385.691 580.639 377.796 608.061 394.745C635.484 411.694 643.056 447.07 624.973 473.758L579.847 540.36C561.726 567.105 533.429 586.008 501.18 592.911L320.596 631.561C288.349 638.463 254.793 632.799 227.31 615.814L131.581 556.645C104.099 539.66 84.9412 512.745 78.3223 481.82L41.258 308.647C34.6392 277.723 41.1019 245.324 59.2242 218.577L122.349 125.41Z" fill="#FF1183"/>
</svg>
