<svg width="32" height="32" viewBox="0 0 32 32" fill="none" xmlns="http://www.w3.org/2000/svg">
<path d="M2.66666 17.6666C3.58713 17.6666 4.33332 16.9204 4.33332 15.9999C4.33332 15.0794 3.58713 14.3333 2.66666 14.3333C1.74619 14.3333 1 15.0794 1 15.9999C1 16.9204 1.74619 17.6666 2.66666 17.6666Z" fill="#2D2629"/>
<path d="M29.4334 14.3333H9.23341C8.36817 14.3333 7.66675 15.0347 7.66675 15.8999V16.0999C7.66675 16.9652 8.36817 17.6666 9.23341 17.6666H29.4334C30.2986 17.6666 31 16.9652 31 16.0999V15.8999C31 15.0347 30.2986 14.3333 29.4334 14.3333Z" fill="#2D2629"/>
<path d="M29.4333 22.6666H2.56666C1.70142 22.6666 1 23.368 1 24.2333V24.4333C1 25.2985 1.70142 26 2.56666 26H29.4333C30.2985 26 30.9999 25.2985 30.9999 24.4333V24.2333C30.9999 23.368 30.2985 22.6666 29.4333 22.6666Z" fill="#2D2629"/>
<path d="M29.4333 6H2.56666C1.70142 6 1 6.70142 1 7.56666V7.76666C1 8.63191 1.70142 9.33332 2.56666 9.33332H29.4333C30.2985 9.33332 30.9999 8.63191 30.9999 7.76666V7.56666C30.9999 6.70142 30.2985 6 29.4333 6Z" fill="#2D2629"/>
</svg>
