<svg width="54" height="54" viewBox="0 0 54 54" fill="none" xmlns="http://www.w3.org/2000/svg">
<path d="M43.6815 32.4315C47.25 28.863 49.5 25.875 49.5 21.375C49.5 18.8712 48.7404 16.4263 47.3217 14.3633C45.903 12.3002 43.8918 10.716 41.5539 9.81992C39.2159 8.92383 36.6611 8.75802 34.227 9.34437C31.7928 9.93072 29.5937 11.2416 27.9203 13.104M43.6815 32.4315C43.2377 32.8754 42.7109 33.2274 42.131 33.4676C41.5511 33.7079 40.9296 33.8315 40.302 33.8315C39.6744 33.8315 39.0529 33.7079 38.473 33.4676C37.8931 33.2274 37.3663 32.8754 36.9225 32.4315C37.403 32.866 37.7901 33.3936 38.0604 33.9823C38.3307 34.5711 38.4784 35.2086 38.4947 35.8562C38.511 36.5038 38.3954 37.1479 38.155 37.7495C37.9147 38.351 37.5545 38.8974 37.0965 39.3555C36.6384 39.8135 36.092 40.1737 35.4904 40.4141C34.8889 40.6544 34.2448 40.77 33.5972 40.7537C32.9496 40.7374 32.3121 40.5897 31.7233 40.3194C31.1346 40.0491 30.607 39.662 30.1725 39.1815C30.6167 39.6239 30.9692 40.1496 31.2101 40.7284C31.451 41.3072 31.5754 41.9277 31.5762 42.5547C31.577 43.1816 31.4543 43.8025 31.215 44.3819C30.9757 44.9613 30.6245 45.4879 30.1815 45.9315C29.7539 46.3592 29.2446 46.6963 28.6838 46.9227C28.1231 47.1491 27.5224 47.2602 26.9178 47.2493C26.3131 47.2384 25.7169 47.1057 25.1647 46.8592C24.6124 46.6127 24.1156 46.2574 23.7037 45.8145L11.25 33.75C7.875 30.375 4.5 26.55 4.5 21.375C4.5005 18.8714 5.26037 16.4268 6.67926 14.3641C8.09814 12.3014 10.1093 10.7176 12.4472 9.82176C14.785 8.92596 17.3396 8.76033 19.7736 9.34675C22.2075 9.93316 24.4064 11.244 26.0797 13.1063C26.3299 13.3388 26.6589 13.4678 27.0004 13.4674C27.342 13.467 27.6707 13.3371 27.9203 13.104M43.6815 32.4315C44.5251 31.5876 44.999 30.4433 44.999 29.25C44.999 28.0568 44.5251 26.9124 43.6815 26.0685L39.4493 21.834C38.9457 21.3302 38.3478 20.9306 37.6898 20.658C37.0317 20.3853 36.3264 20.245 35.6141 20.245C34.9018 20.245 34.1965 20.3853 33.5385 20.658C32.8804 20.9306 32.2826 21.3302 31.779 21.834L27.9315 25.6815C27.0876 26.5251 25.9432 26.9991 24.75 26.9991C23.5568 26.9991 22.4124 26.5251 21.5685 25.6815C20.7249 24.8376 20.251 23.6933 20.251 22.5C20.251 21.3068 20.7249 20.1624 21.5685 19.3185L27.9203 13.104" stroke="#2D2629" stroke-width="2" stroke-linecap="round" stroke-linejoin="round"/>
</svg>
