<svg width="50" height="50" viewBox="0 0 50 50" fill="none" xmlns="http://www.w3.org/2000/svg">
<g clip-path="url(#clip0_57_1153)">
<path d="M50 25.0002V24.9877C50 17.5897 46.7792 10.946 41.6646 6.37724L41.6396 6.35641C41.5764 6.28836 41.5058 6.22757 41.4292 6.17516L41.425 6.17307C36.8822 2.1851 31.0408 -0.00896491 24.9958 0.00223997C18.6792 0.00223997 12.9125 2.34807 8.51667 6.21891L8.54376 6.19599C8.49093 6.23637 8.4421 6.28172 8.39792 6.33141C5.75538 8.67147 3.64017 11.5484 2.19239 14.7675C0.74462 17.9867 -0.00267372 21.4767 7.18778e-06 25.0064C7.18778e-06 32.4022 3.21667 39.046 8.32709 43.6168L8.35209 43.6376C8.41857 43.7124 8.49257 43.7801 8.57292 43.8397L8.57709 43.8418C13.1184 47.8244 18.9556 50.0153 24.9958 50.0043C31.0643 50.0136 36.9265 47.8024 41.4771 43.7877L41.45 43.8106C44.1385 41.4732 46.2935 38.5856 47.7693 35.3432C49.2451 32.1008 50.0073 28.5793 50.0042 25.0168V25.0022L50 25.0002ZM40.7042 41.2606C39.4653 40.2595 38.1335 39.3791 36.7271 38.6314L36.5917 38.5647C37.8688 34.8835 38.6375 30.6397 38.7104 26.2252V26.1918H47.5875C47.289 31.9033 44.8306 37.2877 40.7104 41.2543L40.7042 41.2606ZM26.1917 38.1252C28.8646 38.2689 31.3625 38.8564 33.6667 39.8127L33.5167 39.7585C31.6708 43.9668 29.0729 46.8585 26.1917 47.4939V38.1252ZM26.1917 35.7418V26.1918H36.3333C36.2527 30.1465 35.5669 34.0655 34.3 37.8127L34.3813 37.5397C31.7952 36.4751 29.0439 35.8675 26.25 35.7439L26.1938 35.7418H26.1917ZM26.1917 23.8085V14.2585C29.0608 14.128 31.8855 13.4999 34.5396 12.4022L34.375 12.4627C35.5313 15.8356 36.2417 19.7231 36.3333 23.7647V23.8085H26.1917ZM26.1917 11.8752V2.51057C29.0729 3.14599 31.6708 6.02516 33.5167 10.246C31.3625 11.1418 28.8646 11.7272 26.2521 11.8731L26.1917 11.8752ZM32.1375 3.54182C34.5931 4.35908 36.8893 5.59385 38.925 7.19182L38.8771 7.15432C37.9542 7.87932 36.9188 8.56266 35.8271 9.15641L35.7104 9.21474C34.8306 7.13172 33.6175 5.20584 32.1188 3.51266L32.1375 3.53557V3.54182ZM23.8042 2.51682V11.8752C21.2343 11.7442 18.706 11.1734 16.3292 10.1877L16.4792 10.2418C18.3333 6.03349 20.9271 3.14391 23.8083 2.50849L23.8042 2.51682ZM14.2875 9.20849C13.1585 8.60042 12.0825 7.89865 11.0708 7.11057L11.1208 7.14807C13.0972 5.59692 15.3216 4.39104 17.7 3.58141L17.8583 3.53349C16.4003 5.18189 15.2127 7.05089 14.3396 9.07099L14.2875 9.20849ZM23.8083 14.2564V23.8064H13.6667C13.7583 19.721 14.4688 15.8335 15.7063 12.1877L15.625 12.4606C18.2112 13.52 20.9603 14.1267 23.7521 14.2543L23.8083 14.2564ZM23.8083 26.1897V35.7397C20.9392 35.8703 18.1145 36.4984 15.4604 37.596L15.625 37.5356C14.4688 34.1647 13.7583 30.2752 13.6667 26.2335V26.1897H23.8083ZM23.8083 38.1231V47.4877C20.9271 46.8522 18.3292 43.9731 16.4833 39.7522C18.6375 38.8564 21.1354 38.2731 23.7479 38.1272L23.8083 38.1231ZM17.8708 46.4564C15.4175 45.6379 13.122 44.4063 11.0833 42.8147L11.1333 42.8522C12.0563 42.1272 13.0917 41.4439 14.1833 40.8502L14.3 40.7918C15.1733 42.8753 16.3863 44.7993 17.8896 46.4856L17.8708 46.4647V46.4564ZM35.7125 40.7897C36.9208 41.446 37.9563 42.1272 38.9292 42.8877L38.8792 42.8502C36.9028 44.4013 34.6784 45.6072 32.3 46.4168L32.1417 46.4647C33.5995 44.817 34.7871 42.9487 35.6604 40.9293L35.7125 40.7939V40.7897ZM47.5875 23.8085H38.7104C38.6453 19.4981 37.9014 15.2249 36.5063 11.146L36.5917 11.4335C38.0632 10.6584 39.4565 9.74307 40.7521 8.70016L40.7021 8.73766C44.8153 12.6882 47.2748 18.0533 47.5833 23.7481L47.5875 23.8085ZM9.29584 8.73974C10.4958 9.71474 11.8438 10.6085 13.2729 11.3689L13.4083 11.4356C12.1313 15.1168 11.3625 19.3606 11.2896 23.7752V23.8085H2.41042C2.70896 18.097 5.16733 12.7126 9.28751 8.74599L9.29584 8.73974ZM2.41251 26.1918H11.2896C11.3547 30.5022 12.0986 34.7754 13.4938 38.8543L13.4083 38.5668C11.8438 39.3981 10.4979 40.2918 9.24792 41.3002L9.29792 41.2627C5.18471 37.3121 2.72518 31.947 2.41667 26.2522L2.41459 26.1939L2.41251 26.1918Z" fill="#2D2629"/>
</g>
<defs>
<clipPath id="clip0_57_1153">
<rect width="50" height="50" fill="white"/>
</clipPath>
</defs>
</svg>
