<svg width="297" height="64" viewBox="0 0 297 64" fill="none" xmlns="http://www.w3.org/2000/svg">
<circle cx="32" cy="32" r="32" fill="white"/>
<circle cx="31.9999" cy="31.3729" r="23.2157" fill="url(#paint0_linear_109_5021)"/>
<path fill-rule="evenodd" clip-rule="evenodd" d="M24.3287 19.0011C25.4199 17.9099 26.8998 17.2969 28.443 17.2969H37.0845C38.6277 17.2969 40.1076 17.9099 41.1987 19.0011L43.9158 21.7181C45.0046 22.8068 45.0046 24.5721 43.9158 25.6609C42.827 26.7497 41.0617 26.7497 39.9729 25.6609L38.579 24.2669C37.6864 23.3743 36.4757 22.8729 35.2136 22.8729H30.7526C29.2095 22.8729 27.7296 23.4859 26.6384 24.5771L26.1039 25.1115C25.0127 26.2027 24.3997 27.6826 24.3997 29.2258V33.248C24.3997 34.7911 25.0127 36.2711 26.1039 37.3622L26.6384 37.8967C27.7296 38.9879 29.2095 39.6009 30.7526 39.6009H35.2136C36.4757 39.6009 37.6864 39.0995 38.579 38.2069L39.9729 36.8128C41.0617 35.7241 42.827 35.7241 43.9158 36.8128C45.0046 37.9016 45.0046 39.6669 43.9158 40.7557L41.1987 43.4728C40.1076 44.5639 38.6277 45.1768 37.0845 45.1768H28.443C26.8998 45.1768 25.4199 44.5639 24.3287 43.4728L20.5279 39.6719C19.4367 38.5808 18.8237 37.1008 18.8237 35.5576V26.9161C18.8237 25.373 19.4367 23.893 20.5279 22.8019L24.3287 19.0011Z" fill="white"/>
<g clip-path="url(#clip0_109_5021)">
<path fill-rule="evenodd" clip-rule="evenodd" d="M79.3306 5.90997C79.9908 5.24979 80.8862 4.87891 81.8199 4.87891H87.0482C87.9818 4.87891 88.8772 5.24979 89.5374 5.90997L91.1813 7.55382C91.84 8.21255 91.84 9.28058 91.1813 9.93932C90.5225 10.5981 89.4545 10.5981 88.7957 9.93932L87.9524 9.09592C87.4123 8.55589 86.6799 8.25252 85.9162 8.25252H83.2173C82.2836 8.25252 81.3882 8.6234 80.728 9.28358L80.4047 9.60694C79.7445 10.2671 79.3736 11.1625 79.3736 12.0962V14.5297C79.3736 15.4633 79.7445 16.3588 80.4047 17.0189L80.728 17.3422C81.3882 18.0025 82.2836 18.3733 83.2173 18.3733H85.9162C86.6799 18.3733 87.4123 18.07 87.9524 17.53L88.7957 16.6865C89.4545 16.0278 90.5225 16.0278 91.1813 16.6865C91.84 17.3452 91.84 18.4133 91.1813 19.072L89.5374 20.7159C88.8772 21.376 87.9818 21.7469 87.0482 21.7469H81.8199C80.8862 21.7469 79.9908 21.376 79.3306 20.7159L77.0311 18.4163C76.3709 17.7561 76 16.8607 76 15.9271V10.6988C76 9.76513 76.3709 8.86973 77.0311 8.20955L79.3306 5.90997Z" fill="#F9F9FF"/>
<path fill-rule="evenodd" clip-rule="evenodd" d="M96.7608 5.90997C97.421 5.24979 98.3164 4.87891 99.25 4.87891H104.478C105.412 4.87891 106.307 5.24979 106.968 5.90997L109.267 8.20955C109.927 8.86973 110.298 9.76513 110.298 10.6988V15.9271C110.298 16.8607 109.927 17.7561 109.267 18.4163L106.968 20.7159C106.307 21.376 105.412 21.7469 104.478 21.7469H99.25C98.3164 21.7469 97.421 21.376 96.7608 20.7159L94.4613 18.4163C93.801 17.7561 93.4302 16.8607 93.4302 15.9271V10.6988C93.4302 9.76513 93.801 8.86973 94.4613 8.20955L96.7608 5.90997ZM100.647 8.25252C99.7138 8.25252 98.8184 8.6234 98.1582 9.28358L97.8349 9.60694C97.1746 10.2671 96.8038 11.1625 96.8038 12.0962V14.5297C96.8038 15.4633 97.1746 16.3588 97.8349 17.0189L98.1582 17.3422C98.8184 18.0025 99.7138 18.3733 100.647 18.3733H103.081C104.015 18.3733 104.91 18.0025 105.57 17.3422L105.894 17.0189C106.554 16.3588 106.925 15.4633 106.925 14.5297V12.0962C106.925 11.1625 106.554 10.2671 105.894 9.60694L105.57 9.28358C104.91 8.6234 104.015 8.25252 103.081 8.25252H100.647Z" fill="#F9F9FF"/>
<path fill-rule="evenodd" clip-rule="evenodd" d="M134.995 5.90997C135.655 5.24979 136.551 4.87891 137.484 4.87891H142.713C143.646 4.87891 144.542 5.24979 145.202 5.90997L147.501 8.20955C148.162 8.86973 148.533 9.76513 148.533 10.6988V12.0417C148.533 13.9859 146.956 15.562 145.012 15.562H135.339C135.173 15.562 135.038 15.6968 135.038 15.8631C135.038 15.943 135.07 16.0196 135.126 16.076L136.393 17.3422C137.053 18.0025 137.948 18.3733 138.882 18.3733H142.476C142.772 18.3733 143.061 18.2807 143.302 18.1084C143.942 17.6519 144.83 17.8 145.286 18.4391L145.44 18.6544C145.982 19.4125 145.806 20.4661 145.048 21.0075L144.597 21.3296C144.217 21.601 143.762 21.7469 143.295 21.7469H137.484C136.551 21.7469 135.655 21.376 134.995 20.7159L132.696 18.4163C132.035 17.7561 131.665 16.8607 131.665 15.9271V10.6988C131.665 9.76513 132.035 8.86973 132.696 8.20955L134.995 5.90997ZM135.038 11.0921C135.038 11.6976 135.529 12.1884 136.134 12.1884H144.063C144.668 12.1884 145.159 11.6976 145.159 11.0921C145.159 10.8014 145.043 10.5225 144.838 10.3169L143.805 9.28358C143.144 8.6234 142.249 8.25252 141.315 8.25252H138.882C137.948 8.25252 137.053 8.6234 136.393 9.28358L135.359 10.3169C135.154 10.5225 135.038 10.8014 135.038 11.0921Z" fill="#F9F9FF"/>
<path fill-rule="evenodd" clip-rule="evenodd" d="M154.112 5.90997C154.773 5.24979 155.668 4.87891 156.602 4.87891H162.454C162.936 4.87891 163.403 5.0479 163.773 5.35647L164.06 5.59568C164.776 6.19207 164.873 7.25571 164.276 7.97138L163.941 8.37324C163.53 8.86697 162.796 8.93368 162.302 8.52223C162.093 8.34795 161.83 8.25252 161.557 8.25252H157.999C157.065 8.25252 156.17 8.6234 155.51 9.28358L155.186 9.60694C154.526 10.2671 154.155 11.1625 154.155 12.0962V20.0602C154.155 20.9917 153.4 21.7469 152.469 21.7469C151.537 21.7469 150.782 20.9917 150.782 20.0602V10.6988C150.782 9.76513 151.153 8.86973 151.813 8.20955L154.112 5.90997Z" fill="#F9F9FF"/>
<path fill-rule="evenodd" clip-rule="evenodd" d="M117.612 4.87891C117.162 4.87891 116.73 5.05763 116.412 5.37577L113.044 8.74376C112.726 9.06189 112.547 9.49338 112.547 9.94329V23.4337C112.547 24.3654 113.303 25.1206 114.234 25.1206C115.166 25.1206 115.921 24.3654 115.921 23.4337V20.7589L116.412 21.2501C116.73 21.5682 117.162 21.7469 117.612 21.7469H124.351C124.801 21.7469 125.232 21.5682 125.551 21.2501L128.919 17.8821C129.237 17.5639 129.415 17.1324 129.415 16.6825V9.94329C129.415 9.49338 129.237 9.06189 128.919 8.74376L125.551 5.37577C125.232 5.05763 124.801 4.87891 124.351 4.87891H117.612ZM115.921 15.2854C115.921 15.7352 116.1 16.1666 116.418 16.4847L117.81 17.8764C118.128 18.1946 118.559 18.3733 119.009 18.3733H122.954C123.404 18.3733 123.835 18.1946 124.153 17.8764L125.545 16.4847C125.863 16.1665 126.042 15.735 126.042 15.2852V11.3407C126.042 10.8908 125.863 10.4593 125.545 10.1411L124.153 8.74938C123.835 8.43124 123.404 8.25252 122.954 8.25252H119.009C118.559 8.25252 118.128 8.43124 117.81 8.74938L116.418 10.1411C116.1 10.4593 115.921 10.8908 115.921 11.3407V15.2854Z" fill="#F9F9FF"/>
</g>
<path d="M77.72 39.7801H80.14C81.66 39.7801 82.78 40.0934 83.5 40.7201C84.3133 41.4135 84.72 42.3668 84.72 43.5801C84.72 44.6201 84.3667 45.5068 83.66 46.2401C82.9667 46.9601 81.9133 47.3201 80.5 47.3201H79.2V53.1201H77.72V39.7801ZM79.2 41.1801V45.9201H80.42C81.3 45.9201 81.9867 45.7068 82.48 45.2801C82.9867 44.8535 83.24 44.2601 83.24 43.5001C83.24 41.9535 82.26 41.1801 80.3 41.1801H79.2ZM94.7411 53.1201H86.1211L90.9811 47.5001C91.8078 46.5268 92.3278 45.8801 92.5411 45.5601C93.0344 44.8535 93.2811 44.1735 93.2811 43.5201C93.2811 42.7601 93.0344 42.1401 92.5411 41.6601C92.0478 41.1668 91.4078 40.9201 90.6211 40.9201C89.6611 40.9201 88.9211 41.3135 88.4011 42.1001C88.1211 42.5268 87.9744 43.0534 87.9611 43.6801H86.4811C86.5344 42.5468 86.8678 41.6268 87.4811 40.9201C88.2811 40.0134 89.3344 39.5601 90.6411 39.5601C91.8278 39.5601 92.8078 39.9401 93.5811 40.7001C94.3678 41.4468 94.7611 42.3935 94.7611 43.5401C94.7611 44.4334 94.4078 45.3868 93.7011 46.4001C93.3411 46.8935 92.7344 47.6335 91.8811 48.6201L89.1011 51.7601H94.7411V53.1201ZM98.2083 39.7801H100.628C102.148 39.7801 103.268 40.0934 103.988 40.7201C104.802 41.4135 105.208 42.3668 105.208 43.5801C105.208 44.6201 104.855 45.5068 104.148 46.2401C103.455 46.9601 102.402 47.3201 100.988 47.3201H99.6883V53.1201H98.2083V39.7801ZM99.6883 41.1801V45.9201H100.908C101.788 45.9201 102.475 45.7068 102.968 45.2801C103.475 44.8535 103.728 44.2601 103.728 43.5001C103.728 41.9535 102.748 41.1801 100.788 41.1801H99.6883ZM111.997 39.7801H113.477V53.1201H111.997V39.7801ZM116.559 53.1201V44.8201H117.999V45.7001C118.493 44.9801 119.179 44.6201 120.059 44.6201C121.059 44.6201 121.813 45.0668 122.319 45.9601C122.893 45.0668 123.726 44.6201 124.819 44.6201C126.619 44.6201 127.519 45.7001 127.519 47.8601V53.1201H126.079V48.0801C126.079 47.6801 126.053 47.3468 125.999 47.0801C125.959 46.8001 125.819 46.5335 125.579 46.2801C125.353 46.0268 125.026 45.9001 124.599 45.9001C123.373 45.9001 122.759 46.7668 122.759 48.5001V53.1201H121.319V48.2001C121.319 46.6668 120.819 45.9001 119.819 45.9001C118.606 45.9001 117.999 46.8001 117.999 48.6001V53.1201H116.559ZM131.691 51.9601V57.7201H130.251V44.8201H131.691V45.9801C132.424 45.0735 133.371 44.6201 134.531 44.6201C135.771 44.6201 136.751 45.0601 137.471 45.9401C138.204 46.8068 138.571 47.8335 138.571 49.0201C138.571 50.2201 138.211 51.2468 137.491 52.1001C136.771 52.9401 135.804 53.3601 134.591 53.3601C133.377 53.3601 132.411 52.8935 131.691 51.9601ZM134.391 52.0801C135.204 52.0801 135.857 51.7868 136.351 51.2001C136.844 50.6001 137.091 49.8735 137.091 49.0201C137.091 48.0601 136.817 47.3001 136.271 46.7401C135.724 46.1801 135.091 45.9001 134.371 45.9001C133.651 45.9001 133.011 46.1801 132.451 46.7401C131.891 47.3001 131.611 48.0535 131.611 49.0001C131.611 49.8668 131.864 50.6001 132.371 51.2001C132.891 51.7868 133.564 52.0801 134.391 52.0801ZM147.138 46.0001V44.8201H148.578V53.1201H147.138V51.9601C146.418 52.8935 145.471 53.3601 144.298 53.3601C143.178 53.3601 142.225 52.9735 141.438 52.2001C140.651 51.4268 140.258 50.3468 140.258 48.9601C140.258 47.6001 140.645 46.5401 141.418 45.7801C142.205 45.0068 143.165 44.6201 144.298 44.6201C145.498 44.6201 146.445 45.0801 147.138 46.0001ZM144.458 45.9001C143.698 45.9001 143.051 46.1734 142.518 46.7201C141.998 47.2535 141.738 48.0001 141.738 48.9601C141.738 49.8801 141.978 50.6335 142.458 51.2201C142.951 51.7935 143.618 52.0801 144.458 52.0801C145.298 52.0801 145.965 51.7801 146.458 51.1801C146.965 50.5801 147.218 49.8468 147.218 48.9801C147.218 47.9935 146.938 47.2335 146.378 46.7001C145.818 46.1668 145.178 45.9001 144.458 45.9001ZM157.805 45.4201V47.1401C157.152 46.3134 156.285 45.9001 155.205 45.9001C154.392 45.9001 153.699 46.1801 153.125 46.7401C152.552 47.2868 152.265 48.0401 152.265 49.0001C152.265 49.9601 152.552 50.7135 153.125 51.2601C153.699 51.8068 154.385 52.0801 155.185 52.0801C156.252 52.0801 157.145 51.6468 157.865 50.7801V52.5001C157.079 53.0735 156.199 53.3601 155.225 53.3601C153.932 53.3601 152.865 52.9535 152.025 52.1401C151.199 51.3135 150.785 50.2735 150.785 49.0201C150.785 47.7535 151.205 46.7068 152.045 45.8801C152.885 45.0401 153.945 44.6201 155.225 44.6201C156.185 44.6201 157.045 44.8868 157.805 45.4201ZM162.995 46.1401H161.555V53.1201H160.115V46.1401H159.235V44.8201H160.115V41.8201H161.555V44.8201H162.995V46.1401ZM169.38 39.7801H170.86V51.7201H174.54V53.1201H169.38V39.7801ZM182.348 50.3401L183.548 51.0001C183.268 51.5335 182.928 51.9801 182.528 52.3401C181.768 53.0201 180.848 53.3601 179.768 53.3601C178.648 53.3601 177.681 53.0001 176.868 52.2801C176.068 51.5468 175.668 50.4601 175.668 49.0201C175.668 47.7535 176.028 46.7068 176.748 45.8801C177.481 45.0401 178.461 44.6201 179.688 44.6201C181.075 44.6201 182.121 45.1268 182.828 46.1401C183.388 46.9401 183.648 47.9801 183.608 49.2601H177.148C177.161 50.1001 177.421 50.7801 177.928 51.3001C178.435 51.8201 179.055 52.0801 179.788 52.0801C180.441 52.0801 181.008 51.8801 181.488 51.4801C181.861 51.1601 182.148 50.7801 182.348 50.3401ZM177.248 48.0601H182.128C182.008 47.4068 181.721 46.8868 181.268 46.5001C180.828 46.1001 180.301 45.9001 179.688 45.9001C179.088 45.9001 178.555 46.1068 178.088 46.5201C177.635 46.9201 177.355 47.4335 177.248 48.0601ZM185.817 53.1201V44.8201H187.257V45.7801C187.844 45.0068 188.637 44.6201 189.637 44.6201C190.704 44.6201 191.497 45.0001 192.017 45.7601C192.337 46.2268 192.497 46.9668 192.497 47.9801V53.1201H191.057V48.0201C191.057 47.3401 190.93 46.8334 190.677 46.5001C190.37 46.1001 189.917 45.9001 189.317 45.9001C188.704 45.9001 188.217 46.1134 187.857 46.5401C187.457 47.0068 187.257 47.7535 187.257 48.7801V53.1201H185.817ZM201.572 46.0001V38.5401H203.012V53.1201H201.572V51.9601C200.852 52.8935 199.905 53.3601 198.732 53.3601C197.612 53.3601 196.658 52.9735 195.872 52.2001C195.085 51.4268 194.692 50.3468 194.692 48.9601C194.692 47.6001 195.078 46.5401 195.852 45.7801C196.638 45.0068 197.598 44.6201 198.732 44.6201C199.932 44.6201 200.878 45.0801 201.572 46.0001ZM198.892 45.9001C198.132 45.9001 197.485 46.1734 196.952 46.7201C196.432 47.2535 196.172 48.0001 196.172 48.9601C196.172 49.8801 196.412 50.6335 196.892 51.2201C197.385 51.7935 198.052 52.0801 198.892 52.0801C199.732 52.0801 200.398 51.7801 200.892 51.1801C201.398 50.5801 201.652 49.8468 201.652 48.9801C201.652 47.9935 201.372 47.2335 200.812 46.7001C200.252 46.1668 199.612 45.9001 198.892 45.9001ZM205.544 44.8201H206.984V53.1201H205.544V44.8201ZM205.544 42.4001C205.344 42.2001 205.244 41.9601 205.244 41.6801C205.244 41.4001 205.344 41.1601 205.544 40.9601C205.744 40.7601 205.984 40.6601 206.264 40.6601C206.544 40.6601 206.784 40.7601 206.984 40.9601C207.184 41.1601 207.284 41.4001 207.284 41.6801C207.284 41.9601 207.184 42.2001 206.984 42.4001C206.784 42.6001 206.544 42.7001 206.264 42.7001C205.984 42.7001 205.744 42.6001 205.544 42.4001ZM209.704 53.1201V44.8201H211.144V45.7801C211.73 45.0068 212.524 44.6201 213.524 44.6201C214.59 44.6201 215.384 45.0001 215.904 45.7601C216.224 46.2268 216.384 46.9668 216.384 47.9801V53.1201H214.944V48.0201C214.944 47.3401 214.817 46.8334 214.564 46.5001C214.257 46.1001 213.804 45.9001 213.204 45.9001C212.59 45.9001 212.104 46.1134 211.744 46.5401C211.344 47.0068 211.144 47.7535 211.144 48.7801V53.1201H209.704ZM225.458 46.0001V44.8201H226.898V52.9201C226.898 54.3735 226.632 55.4601 226.098 56.1801C225.338 57.2068 224.232 57.7201 222.778 57.7201C221.552 57.7201 220.565 57.3468 219.818 56.6001C219.098 55.8801 218.738 54.9868 218.738 53.9201H220.158C220.158 54.5868 220.372 55.1601 220.798 55.6401C221.278 56.1735 221.945 56.4401 222.798 56.4401C223.798 56.4401 224.532 56.0535 224.998 55.2801C225.305 54.7868 225.458 54.0801 225.458 53.1601V51.9601C224.738 52.8935 223.792 53.3601 222.618 53.3601C221.472 53.3601 220.525 52.9868 219.778 52.2401C218.978 51.4401 218.578 50.3468 218.578 48.9601C218.578 47.6135 218.978 46.5401 219.778 45.7401C220.552 44.9935 221.498 44.6201 222.618 44.6201C223.805 44.6201 224.752 45.0801 225.458 46.0001ZM222.778 45.9001C222.045 45.9001 221.418 46.1601 220.898 46.6801C220.338 47.2535 220.058 48.0135 220.058 48.9601C220.058 50.0135 220.372 50.8268 220.998 51.4001C221.492 51.8535 222.085 52.0801 222.778 52.0801C223.525 52.0801 224.132 51.8468 224.598 51.3801C225.225 50.7801 225.538 49.9801 225.538 48.9801C225.538 47.9801 225.245 47.2001 224.658 46.6401C224.165 46.1468 223.538 45.9001 222.778 45.9001ZM234.654 39.7801H237.074C238.594 39.7801 239.714 40.0934 240.434 40.7201C241.247 41.4135 241.654 42.3668 241.654 43.5801C241.654 44.6201 241.3 45.5068 240.594 46.2401C239.9 46.9601 238.847 47.3201 237.434 47.3201H236.134V53.1201H234.654V39.7801ZM236.134 41.1801V45.9201H237.354C238.234 45.9201 238.92 45.7068 239.414 45.2801C239.92 44.8535 240.174 44.2601 240.174 43.5001C240.174 41.9535 239.194 41.1801 237.234 41.1801H236.134ZM243.415 38.5401H244.855V53.1201H243.415V38.5401ZM253.935 46.0001V44.8201H255.375V53.1201H253.935V51.9601C253.215 52.8935 252.268 53.3601 251.095 53.3601C249.975 53.3601 249.022 52.9735 248.235 52.2001C247.448 51.4268 247.055 50.3468 247.055 48.9601C247.055 47.6001 247.442 46.5401 248.215 45.7801C249.002 45.0068 249.962 44.6201 251.095 44.6201C252.295 44.6201 253.242 45.0801 253.935 46.0001ZM251.255 45.9001C250.495 45.9001 249.848 46.1734 249.315 46.7201C248.795 47.2535 248.535 48.0001 248.535 48.9601C248.535 49.8801 248.775 50.6335 249.255 51.2201C249.748 51.7935 250.415 52.0801 251.255 52.0801C252.095 52.0801 252.762 51.7801 253.255 51.1801C253.762 50.5801 254.015 49.8468 254.015 48.9801C254.015 47.9935 253.735 47.2335 253.175 46.7001C252.615 46.1668 251.975 45.9001 251.255 45.9001ZM261.022 46.1401H259.582V53.1201H258.142V46.1401H257.262V44.8201H258.142V41.8201H259.582V44.8201H261.022V46.1401ZM266.095 46.1401H264.055V53.1201H262.615V46.1401H261.815V44.8201H262.615V41.2001C262.615 40.0935 262.882 39.3134 263.415 38.8601C263.842 38.5001 264.395 38.3201 265.075 38.3201C265.435 38.3201 265.775 38.3801 266.095 38.5001V39.9001C265.802 39.7801 265.488 39.7201 265.155 39.7201C264.715 39.7201 264.408 39.8668 264.235 40.1601C264.115 40.3601 264.055 40.7601 264.055 41.3601V44.8201H266.095V46.1401ZM274.4 52.1201C273.573 52.9468 272.526 53.3601 271.26 53.3601C269.993 53.3601 268.94 52.9468 268.1 52.1201C267.273 51.2935 266.86 50.2535 266.86 49.0001C266.86 47.7335 267.273 46.6868 268.1 45.8601C268.94 45.0335 269.993 44.6201 271.26 44.6201C272.526 44.6201 273.573 45.0335 274.4 45.8601C275.24 46.6868 275.66 47.7335 275.66 49.0001C275.66 50.2535 275.24 51.2935 274.4 52.1201ZM273.32 46.7201C272.76 46.1734 272.073 45.9001 271.26 45.9001C270.446 45.9001 269.753 46.1801 269.18 46.7401C268.62 47.2868 268.34 48.0401 268.34 49.0001C268.34 49.9601 268.626 50.7135 269.2 51.2601C269.773 51.8068 270.46 52.0801 271.26 52.0801C272.06 52.0801 272.746 51.8068 273.32 51.2601C273.893 50.7135 274.18 49.9601 274.18 49.0001C274.18 48.0268 273.893 47.2668 273.32 46.7201ZM277.868 53.1201V44.8201H279.308V45.7201C279.774 44.9868 280.401 44.6201 281.188 44.6201C281.588 44.6201 282.014 44.7335 282.468 44.9601L281.788 46.2601C281.521 46.0735 281.241 45.9801 280.948 45.9801C280.441 45.9801 280.054 46.1535 279.788 46.5001C279.468 46.9268 279.308 47.6735 279.308 48.7401V53.1201H277.868ZM283.786 53.1201V44.8201H285.226V45.7001C285.719 44.9801 286.406 44.6201 287.286 44.6201C288.286 44.6201 289.039 45.0668 289.546 45.9601C290.119 45.0668 290.952 44.6201 292.046 44.6201C293.846 44.6201 294.746 45.7001 294.746 47.8601V53.1201H293.306V48.0801C293.306 47.6801 293.279 47.3468 293.226 47.0801C293.186 46.8001 293.046 46.5335 292.806 46.2801C292.579 46.0268 292.252 45.9001 291.826 45.9001C290.599 45.9001 289.986 46.7668 289.986 48.5001V53.1201H288.546V48.2001C288.546 46.6668 288.046 45.9001 287.046 45.9001C285.832 45.9001 285.226 46.8001 285.226 48.6001V53.1201H283.786Z" fill="#FEFDFE" fill-opacity="0.8"/>
<defs>
<linearGradient id="paint0_linear_109_5021" x1="31.9999" y1="8.15723" x2="31.9999" y2="54.5886" gradientUnits="userSpaceOnUse">
<stop stop-color="#FF1183"/>
<stop offset="1" stop-color="#9C4FC1"/>
</linearGradient>
<clipPath id="clip0_109_5021">
<rect width="89.7674" height="20.2417" fill="white" transform="translate(76 4.87891)"/>
</clipPath>
</defs>
</svg>
