<svg width="560" height="437" viewBox="0 0 560 437" fill="none" xmlns="http://www.w3.org/2000/svg">
<path d="M351.405 176.319C355.154 176.748 362.186 177.091 366.066 177.126L366.543 177.124C371.862 177.566 377.573 177.069 382.611 177.501L383.204 177.597C385.973 183.319 388.142 190.945 387.685 197.322C393.233 197.233 399.247 197.24 404.761 197.03L400.476 218.818C399.729 222.536 398.648 227.299 398.16 230.991C397.607 235.173 398.283 240.607 397.985 244.975L397.74 245.233L397.757 246.58C398.588 248.515 398.147 318.981 398.158 328.799C398.155 335.408 398.111 342.016 398.024 348.624L397.497 349.124C394.794 350.691 391.679 355.157 390.215 357.898C384.838 352.61 376.446 348.663 370.024 344.941C369.192 341.103 368.024 340.889 364.477 342.452C364.402 340.067 364.305 337.681 364.185 335.298C363.926 334.468 363.416 333.521 363.021 332.722C360.931 336.737 358.314 337.83 353.879 338.229L351.488 337.651C348.963 336.462 348.199 336.002 347.548 333.258L347.19 332.89C345.506 331.171 344.12 328.843 342.783 326.806C341.004 323.73 338.669 315.155 340.031 311.904L340.072 311.545C340.336 309.063 339.933 309.117 338.291 307.065C338.408 306.169 338.403 303.581 338.44 302.48C337.921 299.582 338.026 287.561 337.999 284.071C337.878 269.036 338.478 255.622 337.074 240.601L336.855 240.507C335.371 239.804 334.297 239.656 332.705 239.321C330.377 241.719 326.633 246.529 324.578 248.275L324.532 246.367C324.906 240.509 324.5 233.905 322.549 228.356C325.142 227.764 333.816 225.801 335.751 224.73C337.796 224.511 345.045 222.237 346.241 220.663L346.157 220.203C344.108 219.334 337.462 222.145 335.146 222.973C334.367 222.116 330.54 200.25 329.956 197.131C334.914 197.515 341.344 197.31 346.421 197.276C346.358 190.811 347.173 181.73 351.075 176.326L351.405 176.319Z" fill="#DDD4FF"/>
<path d="M398.158 328.8C398.323 327.978 398.284 327.734 398.825 327.104C401.16 326.839 407.397 327.064 410.037 327.099C410.353 331.994 409.199 338.118 406.009 342.066C404.223 344.277 401.547 345.728 400.367 347.072L398.024 348.625C398.111 342.017 398.156 335.408 398.158 328.8Z" fill="#DDD4FF"/>
<path d="M92.2114 226.661C96.6536 228.359 101.874 229.805 106.471 230.98C109.434 231.947 114.106 232.94 117.19 233.6C123.985 235.277 131.104 235.944 137.555 237.484C139.884 238.11 144.103 238.53 146.561 238.649C152.344 239.415 157.884 239.874 163.649 240.508C163.168 245.728 160.089 256.304 158.974 262.654C162.141 259.82 166.761 256.128 169.298 252.991C172.576 256.264 175.637 258.505 178.974 261.502C178.521 255.73 177.068 247.727 176.154 241.885C181.181 242.116 186.988 242.501 191.98 242.48C191.732 248.802 190.175 256.726 189.352 263.181C190.654 262.11 197.928 255.947 199.082 255.527C199.492 255.952 199.397 255.745 199.507 256.058L200.278 257.294C201.027 257.874 202.748 259.115 203.286 259.761C204.771 261.198 205.179 261.545 205.92 263.481C206.26 263.356 206.514 263.205 206.837 263.037C207.469 260.933 205.414 245.757 205.017 242.737C213.358 242.7 221.697 242.513 230.03 242.178C233.937 242.186 237.499 242.042 241.374 241.532C247.189 240.651 255.414 240.384 261.813 239.572C262.285 239.339 271.888 238.165 272.971 238.139C277.644 237.806 285.875 236.307 290.553 235.475C294.367 234.636 298.261 234.052 302.031 233.168C302.241 234.637 302.262 235.526 303.114 236.77C303.242 235.255 303.207 234.593 303.827 233.191C304.903 232.66 307.287 232.272 308.545 231.957C312.794 230.892 318.591 230.116 322.549 228.356C324.5 233.906 324.907 240.509 324.533 246.367L324.578 248.275C326.634 246.529 330.378 241.719 332.705 239.322C334.298 239.656 335.372 239.805 336.855 240.507L337.074 240.601C338.478 255.623 337.879 269.037 337.999 284.071C338.027 287.561 337.921 299.582 338.441 302.48C338.403 303.582 338.408 306.169 338.291 307.065C339.933 309.117 340.336 309.064 340.072 311.545L340.031 311.904C338.669 315.155 341.004 323.73 342.783 326.806C344.12 328.843 345.506 331.171 347.191 332.89L347.548 333.259C348.2 336.002 348.964 336.462 351.488 337.652L353.88 338.229C358.314 337.83 360.932 336.737 363.022 332.722C363.417 333.521 363.927 334.468 364.185 335.298C364.305 337.682 364.403 340.067 364.477 342.453C368.025 340.889 369.192 341.103 370.024 344.941C376.446 348.664 384.838 352.61 390.216 357.898C391.68 355.157 394.795 350.691 397.497 349.124L398.024 348.625C398.111 342.017 398.156 335.408 398.158 328.8C398.147 318.981 398.588 248.516 397.758 246.58C405.615 246.799 414.152 246.622 422.053 246.614L463.203 246.58C484.147 246.515 505.291 246.924 526.204 246.361C543.165 287.289 547.81 332.28 539.569 375.812C539.459 376.685 539.421 377.352 539.121 378.185C536.767 392.046 529.379 419.76 522.148 431.823C524.86 431.885 534.929 431.503 536.387 432.266C537.045 433.191 537.029 433.16 537.372 434.243C537.245 434.936 537.32 435.057 536.585 435.572C535.917 436.039 534.136 436.238 533.344 436.234C520.786 436.164 508.168 436.186 495.612 436.168L424.091 436.242L87.0718 436.172L37.5764 436.172C31.3473 436.182 22.4137 436.454 16.1409 435.972C15.5459 435.926 15.1068 435.161 14.8359 434.708C14.717 433.356 14.8818 432.94 15.7545 431.904C27.4683 432.916 40.8438 431.177 52.7607 431.757C56.4184 431.935 60.5167 431.476 64.1446 431.963C64.4793 430.748 64.855 428.007 65.5534 427.227C69.2798 428.234 72.6677 428.882 76.3093 429.788L75.3014 431.915C80.669 431.266 88.6075 431.664 94.1637 431.681C100.941 431.702 108.099 431.975 114.85 431.733C121.713 431.937 129.107 431.673 136.016 431.803C138.169 431.844 147.611 431.959 149.024 431.57C152.565 432.011 155.407 431.91 158.966 431.804L160.178 431.768C161.032 430.623 161.558 429.612 162.251 428.373C164.075 426.15 166.523 421.287 167.992 418.592C171.123 412.848 174.47 406.856 177.055 400.862C176.931 399.456 177.349 397.416 177.573 395.964C176.814 396.95 177.004 396.874 176.772 398.009C176.647 397.713 176.564 397.39 176.325 397.167L176.203 396.738C175.966 396.023 175.671 395.33 175.319 394.664C174.255 392.662 171.495 390.287 169.316 389.562C167.462 389.3 166.791 388.883 165.769 387.342C162.179 381.93 158.848 375.743 156.306 369.79C155.465 368.692 154.648 366.652 153.876 365.356C150.288 359.324 145.894 349.732 138.189 348.478L137.732 348.102C135.649 347.066 129.603 345.897 127.342 345.978L126.937 346.471C126.52 356.468 112.529 355.158 109.724 347.535C111.6 345.583 111.051 342.712 110.984 340.121L111.14 339.042C103.162 339.084 93.9767 337.324 87.1544 332.997C87.3387 329.655 87.5356 327.518 87.3387 324.141C87.0423 322.966 86.9242 322.316 85.925 321.672C85.3814 321.658 84.7536 321.632 84.4053 322.116C81.1333 326.656 84.5108 330.427 87.1659 332.975C83.8141 331.214 77.5693 327.354 75.5836 324.086C73.8052 321.158 76.2978 315.716 73.3715 312.53C71.5625 312.337 71.055 316.901 71.0511 318.255C71.82 319.151 73.0445 319.847 73.4853 320.722C73.2578 321.786 72.9504 321.801 71.907 322.243L71.6877 322.722C69.2158 322.612 67.4319 322.063 66.0964 324.453C63.8411 325.107 35.2172 324.64 31.2001 324.563C34.4722 315.397 38.3659 305.682 43.6077 297.446C55.2377 279.172 70.2232 262.954 81.6879 244.512C85.0752 239.063 89.6596 232.483 92.2114 226.661Z" fill="url(#paint0_linear_83_4346)"/>
<path d="M92.2114 226.661C96.6537 228.359 101.874 229.805 106.471 230.98C109.434 231.947 114.106 232.94 117.19 233.6C123.985 235.277 131.104 235.944 137.555 237.484C139.884 238.11 144.103 238.53 146.562 238.649C152.344 239.415 157.884 239.874 163.649 240.508C163.168 245.728 160.09 256.304 158.974 262.654C162.141 259.82 166.761 256.128 169.298 252.991C172.576 256.264 175.637 258.505 178.974 261.502C178.521 255.73 177.068 247.727 176.155 241.885C181.181 242.116 186.988 242.501 191.98 242.48C191.732 248.802 190.175 256.726 189.352 263.181C190.654 262.11 197.928 255.947 199.082 255.527C199.492 255.952 199.397 255.745 199.507 256.058C199.552 263.575 199.529 271.092 199.437 278.608C199.412 281.753 199.501 285.905 199.331 288.982L200.227 289.134C204.534 289.721 208.547 292.315 211.192 295.717C217.469 303.792 216.392 315.548 215.795 325.215C215.622 333.415 216.638 341.521 223.285 347.21C225.52 347.322 229.786 352.394 230.807 354.406C231.731 357.12 232.494 363.354 232.881 364.243L233.124 364.199C235.25 372.107 236.165 381.667 237.726 389.784C237.964 391.025 238.07 392.176 238.388 393.426C238.9 394.63 239.794 396.765 240.558 397.778C240.132 399.93 237.518 404.911 236.562 407.905C234.875 411.516 234.456 415.074 234.227 419.009L232.52 419.806C231.713 420.831 228.744 422.629 227.526 423.634C228.602 425.755 231.241 429.968 231.734 431.739C226.627 431.913 220.596 431.772 215.417 431.776L213.609 431.747L178.367 431.741C174.895 431.368 165.92 429.213 162.251 428.373C164.075 426.15 166.523 421.287 167.992 418.592C171.123 412.848 174.47 406.856 177.055 400.862C176.931 399.456 177.349 397.416 177.573 395.964C176.814 396.95 177.004 396.874 176.773 398.009C176.647 397.713 176.564 397.39 176.325 397.167L176.203 396.738C175.966 396.023 175.671 395.33 175.319 394.664C174.255 392.662 171.495 390.287 169.316 389.562C167.462 389.3 166.792 388.883 165.769 387.342C162.179 381.93 158.848 375.743 156.306 369.79C155.465 368.692 154.648 366.652 153.877 365.356C150.288 359.324 145.894 349.732 138.189 348.478L137.732 348.102C135.649 347.066 129.603 345.897 127.342 345.978L126.937 346.471C126.52 356.468 112.529 355.158 109.725 347.535C111.6 345.583 111.051 342.712 110.985 340.121L111.14 339.042C103.162 339.084 93.9767 337.324 87.1545 332.997C87.3388 329.655 87.5356 327.518 87.3388 324.141C87.0424 322.966 86.9242 322.316 85.9251 321.672C85.3815 321.658 84.7537 321.632 84.4053 322.116C81.1334 326.656 84.5109 330.427 87.166 332.975C83.8142 331.214 77.5694 327.354 75.5837 324.086C73.8053 321.158 76.2979 315.716 73.3716 312.53C71.5625 312.337 71.055 316.901 71.0512 318.255C71.8201 319.151 73.0446 319.847 73.4853 320.722C73.2578 321.786 72.9505 321.801 71.9071 322.243L71.6878 322.722C69.2159 322.612 67.432 322.063 66.0965 324.453C63.8412 325.107 35.2173 324.64 31.2002 324.563C34.4723 315.397 38.366 305.682 43.6078 297.446C55.2378 279.172 70.2232 262.954 81.6879 244.512C85.0753 239.063 89.6597 232.483 92.2114 226.661Z" fill="#DDD4FF"/>
<path d="M92.2114 226.661C96.6537 228.359 101.874 229.805 106.471 230.98C109.434 231.947 114.106 232.94 117.19 233.6C123.985 235.277 131.104 235.944 137.555 237.484C135.486 244.701 133.218 249.44 131.039 256.104C133.339 254.983 135.532 253.518 137.556 252.535L137.78 323.085C137.777 325.588 138.046 338.529 137.598 339.924C137.612 342.443 137.542 345.642 137.732 348.102C135.649 347.066 129.603 345.897 127.342 345.978L126.937 346.471C126.52 356.468 112.529 355.158 109.725 347.535C111.6 345.583 111.051 342.712 110.985 340.121L111.14 339.042C103.162 339.084 93.9767 337.324 87.1545 332.997C87.3388 329.655 87.5356 327.518 87.3388 324.141C87.0424 322.966 86.9242 322.316 85.9251 321.672C85.3815 321.658 84.7537 321.632 84.4053 322.116C81.1334 326.656 84.5109 330.427 87.166 332.975C83.8142 331.214 77.5694 327.354 75.5837 324.086C73.8053 321.158 76.2979 315.716 73.3716 312.53C71.5625 312.337 71.055 316.901 71.0512 318.255C71.8201 319.151 73.0446 319.847 73.4853 320.722C73.2578 321.786 72.9505 321.801 71.9071 322.243L71.6878 322.722C69.2159 322.612 67.432 322.063 66.0965 324.453C63.8412 325.107 35.2173 324.64 31.2002 324.563C34.4723 315.397 38.366 305.682 43.6078 297.446C55.2378 279.172 70.2232 262.954 81.6879 244.512C85.0753 239.063 89.6597 232.483 92.2114 226.661Z" fill="#DDD4FF"/>
<path d="M106.695 315.002C107.259 307.154 109.57 302.632 118.261 301.539C124.384 300.769 130.147 301.625 133.358 307.578C133.863 309.26 134.729 313.773 135.125 314.597L135.275 314.617L135.464 312.823C136.083 318.87 135.516 327.992 131.392 332.763C130.35 333.968 128.24 335.511 126.973 336.601C126.837 336.718 126.85 338.131 126.868 338.462L126.801 338.894L126.914 339.755L126.824 340.066C126.944 342.342 126.97 344.19 126.937 346.471C126.52 356.468 112.529 355.159 109.724 347.536C111.6 345.583 111.051 342.712 110.984 340.121L111.14 339.042C103.162 339.085 93.9766 337.324 87.1543 332.997C87.3386 329.655 87.5355 327.518 87.3386 324.142C88.982 324.895 99.9102 324.488 102.033 324.099C98.607 321.049 98.3669 319.6 100.768 315.796L100.936 315.526L103.857 314.415L106.695 315.002Z" fill="#A55680"/>
<path d="M87.3386 324.141C88.982 324.895 99.9102 324.488 102.033 324.099C104.136 324.941 105.046 324.72 107.254 324.433C108.051 327.571 108.912 329.996 110.934 332.583C111.218 332.946 111.147 332.803 111.247 333.165L111.229 335.627L111.14 339.042C103.162 339.084 93.9766 337.324 87.1543 332.997C87.3386 329.655 87.5355 327.518 87.3386 324.141Z" fill="#DDD4FF"/>
<path d="M111.23 335.627C115.614 339.463 121.015 341.283 126.824 340.066C126.944 342.342 126.97 344.19 126.937 346.471C126.52 356.468 112.529 355.159 109.725 347.535C111.6 345.583 111.051 342.712 110.985 340.121L111.14 339.042L111.23 335.627Z" fill="#A55680"/>
<path d="M111.248 333.165C114.09 335.906 116.492 337.434 120.732 337.494C122.314 337.516 125.22 336.707 126.415 336.985C126.511 337.479 126.669 338.452 126.801 338.893L126.914 339.755L126.824 340.065C121.015 341.283 115.614 339.462 111.229 335.627L111.248 333.165Z" fill="#8D3F74"/>
<path d="M120.025 332.869C118.551 331.424 116.85 330.254 117.558 328.048C118.655 327.211 124.57 327.584 126.255 327.503C127.399 327.448 128.117 327.373 128.8 328.076C129.145 329.198 128.994 329.565 128.817 330.771C126.974 334.182 123.249 334.622 120.025 332.869Z" fill="#F5A8B9"/>
<path d="M120.025 332.869C121.906 330.014 125.878 329.469 128.817 330.772C126.975 334.182 123.25 334.622 120.025 332.869Z" fill="#FEFDFE"/>
<path d="M128.082 311.246C131.308 311.642 130.841 314.545 129.281 316.491C126.309 315.759 126.36 313.32 128.082 311.246Z" fill="#1F0D4B"/>
<path d="M116.31 310.983C118.521 312.428 118.393 314.997 116.617 316.765C113.826 315.12 114.239 313.014 116.31 310.983Z" fill="#1F0D4B"/>
<path d="M103.039 320.34C102.805 319.502 102.775 319.552 102.94 318.711C103.612 317.87 103.198 318.088 104.167 317.931C105.25 318.42 104.897 318.229 105.558 319.578C106.145 320.621 106.062 320.102 106.035 321.143C104.935 321.85 103.871 321.191 103.039 320.34Z" fill="#3D126F"/>
<path d="M114.079 306.767C115.099 306.733 116.552 306.592 116.992 307.709C116.273 308.42 116.042 308.202 114.742 308.35C113.855 308.693 113.158 309.106 112.269 308.91L112.089 308.526C112.619 307.548 113.095 307.386 114.079 306.767Z" fill="#1F0D4B"/>
<path d="M122.822 320.791C123.854 320.664 124.544 320.371 125.109 321.331C124.742 322.241 124.439 322.319 123.603 322.835C122.702 322.626 121.269 322.318 120.808 321.44C121.437 320.744 121.589 320.957 122.822 320.791Z" fill="#FEFDFE"/>
<path d="M126.478 306.752C128.522 306.699 131.224 307.289 131.098 309.819C129.065 308.219 127.364 308.267 126.344 307.412L126.478 306.752Z" fill="#1F0D4B"/>
<path d="M131.116 287.418C135.916 294.609 137.814 298.104 134.091 306.52C134.746 308.778 135.165 310.474 135.464 312.823L135.276 314.617L135.125 314.597C134.729 313.773 133.864 309.26 133.358 307.578C130.148 301.625 124.385 300.769 118.261 301.539C109.57 302.632 107.259 307.154 106.696 315.002L103.857 314.415L100.936 315.527C99.8601 312.299 99.9454 307.189 101.153 303.997C107.247 287.897 119.926 293.011 131.116 287.418Z" fill="#1F0D4B"/>
<path d="M106.47 230.979C109.433 231.947 114.105 232.94 117.189 233.6C114.418 239.508 115.374 246.811 115.504 253.547C112.594 249.814 110.745 246.982 109.099 242.574C105.387 245.198 101.448 247.486 97.3301 249.411C100.957 243.726 103.272 236.827 106.47 230.979Z" fill="#FDDADA"/>
<path d="M126.914 339.755C129.991 339.777 134.459 339.913 137.465 339.602L137.597 339.924C137.611 342.443 137.542 345.642 137.732 348.102C135.648 347.066 129.603 345.897 127.342 345.978L126.936 346.471C126.97 344.19 126.944 342.342 126.823 340.066L126.914 339.755Z" fill="#DDD4FF"/>
<path d="M67.3233 317.084C65.75 315.564 61.1212 311.031 63.5176 308.798C67.348 308.558 67.5612 315.412 69.2489 317.575C70.0927 317.729 70.078 317.669 70.7276 318.205L71.0508 318.255C71.8198 319.151 73.0442 319.847 73.485 320.722C73.2575 321.786 72.9501 321.801 71.9067 322.243L71.8181 321.905C70.9568 320.928 70.0851 320.076 69.1658 319.158C67.6296 319.358 59.2766 320.106 60.6203 316.825C62.6175 315.705 65.1998 316.522 67.3233 317.084Z" fill="#FEFDFE"/>
<path d="M70.7275 318.205L71.0507 318.255C71.8197 319.151 73.0441 319.847 73.4849 320.722C73.2574 321.786 72.95 321.801 71.9066 322.243L71.818 321.905C71.9968 320.357 70.8823 320.626 70.7275 318.205Z" fill="#DDD4FF"/>
<path d="M126.868 338.462C129.396 338.517 135.128 338.432 137.2 338.685C137.571 339.192 137.435 338.909 137.465 339.602C134.459 339.913 129.992 339.777 126.915 339.755L126.801 338.894L126.868 338.462Z" fill="#FEFDFE"/>
<path d="M123.787 271.058C125.381 270.159 127.401 270.727 128.294 272.325C129.186 273.923 128.61 275.942 127.009 276.828C125.417 277.709 123.414 277.137 122.527 275.548C121.639 273.959 122.203 271.953 123.787 271.058Z" fill="#DDD4FF"/>
<path d="M223.285 347.21C225.519 347.322 229.786 352.394 230.807 354.406C231.73 357.12 232.494 363.354 232.88 364.243L233.123 364.199C235.25 372.107 236.165 381.667 237.725 389.784C237.964 391.025 238.069 392.176 238.388 393.426C238.9 394.63 239.793 396.765 240.558 397.778C240.132 399.93 237.517 404.911 236.561 407.905C234.874 411.516 234.455 415.074 234.226 419.009L232.52 419.806C231.713 420.831 228.744 422.629 227.525 423.634C228.602 425.755 231.24 429.968 231.734 431.738C226.627 431.912 220.596 431.772 215.417 431.776L213.609 431.747L178.367 431.741C174.895 431.367 165.92 429.213 162.251 428.372C164.075 426.15 166.523 421.287 167.992 418.592C171.122 412.848 174.47 406.856 177.054 400.862C176.931 399.456 177.349 397.416 177.573 395.964C176.814 396.95 177.003 396.874 176.772 398.009C176.647 397.713 176.564 397.39 176.324 397.167L176.202 396.738C175.966 396.023 175.67 395.329 175.319 394.664C174.255 392.662 171.495 390.287 169.316 389.562L169.908 389.312L170.107 388.706C169.986 388.366 169.446 386.774 169.527 386.516C170.282 384.104 171.982 380.596 172.984 378.393C173.664 376.591 174.018 376.004 174.242 374.029C174.107 372.518 174.295 370.232 173.655 369.123C173.706 367.666 174.461 365.842 175.107 364.557C175.566 365.22 176.621 366.647 176.983 367.278C178.562 369.508 180.224 371.679 181.964 373.785C188.609 380.425 194.511 386.288 204.648 383.638L204.851 383.514L205.187 383.304C217.003 375.993 220.214 359.449 223.285 347.21Z" fill="#FEFDFE"/>
<path d="M220.296 372.393C220.527 374.019 220.973 376.58 221.089 378.144C221.917 383.564 223.408 392.031 223.017 397.383C222.844 398.888 222.671 400.364 223.11 401.855C222.289 409.997 222.165 416.553 227.525 423.634C228.602 425.754 231.24 429.968 231.733 431.738C226.627 431.912 220.596 431.772 215.417 431.775L213.609 431.746C213.531 424.184 210.692 407.352 211.954 400.759C213.19 396.158 217.845 374.208 220.296 372.393Z" fill="#C7F6FC"/>
<path d="M211.954 400.759C212.561 402.813 213.01 407.275 213.297 409.611C214.249 416.974 214.956 424.366 215.417 431.776L213.609 431.747C213.531 424.184 210.692 407.353 211.954 400.759Z" fill="#DDD4FF"/>
<path d="M221.089 378.144C221.917 383.564 223.409 392.031 223.018 397.383C221.77 395.211 219.967 380.3 221.089 378.144Z" fill="#FEFDFE"/>
<path d="M232.881 364.243L233.124 364.199C235.251 372.107 236.165 381.667 237.726 389.784C237.964 391.025 238.07 392.177 238.388 393.426C238.9 394.63 239.794 396.765 240.558 397.778C240.132 399.93 237.518 404.911 236.562 407.905C234.875 411.516 234.456 415.074 234.227 419.009L232.521 419.806C233.109 416.904 233.565 411.854 234.549 409.254C236.073 405.226 237.837 402.234 239.257 397.917L237.545 393.769C236.386 389.865 235.489 383.307 234.907 379.194C234.183 374.217 233.507 369.233 232.881 364.243Z" fill="#DDD4FF"/>
<path d="M172.984 378.393C173.64 379.643 175.632 391.849 176.358 394.176C176.511 394.667 176.304 396.16 176.202 396.738C175.965 396.023 175.67 395.329 175.318 394.664C174.255 392.662 171.495 390.287 169.315 389.562L169.908 389.312L170.107 388.706C169.986 388.366 169.446 386.774 169.527 386.516C170.282 384.104 171.981 380.596 172.984 378.393Z" fill="#DDD4FF"/>
<path d="M221.68 363.649C221.519 375.358 226.143 391.464 223.111 401.855C222.671 400.365 222.845 398.888 223.018 397.383C223.409 392.031 221.917 383.564 221.089 378.144C220.973 376.581 220.528 374.019 220.297 372.393C219.869 368.839 220.896 367.148 221.68 363.649Z" fill="#DDD4FF"/>
<path d="M174.243 374.029C174.653 375.482 174.776 375.968 174.911 377.463C175.321 381.341 175.782 385.063 176.618 388.893C176.928 390.317 178.249 393.052 178.338 394.073L177.573 395.964C176.814 396.95 177.004 396.874 176.773 398.009C176.647 397.713 176.564 397.39 176.325 397.167L176.203 396.738C176.304 396.16 176.512 394.667 176.358 394.176C175.632 391.849 173.641 379.643 172.984 378.393C173.664 376.591 174.019 376.004 174.243 374.029Z" fill="#DDD4FF"/>
<path d="M181.965 373.785C188.609 380.425 194.512 386.288 204.649 383.638C200.378 387.332 193.066 385.125 188.947 382.124C186.834 380.584 182.385 376.313 181.965 373.785Z" fill="#F1EFFD"/>
<path d="M175.108 364.557C175.566 365.22 176.622 366.647 176.983 367.278C176.085 369.943 175.042 374.745 174.911 377.463C174.776 375.968 174.653 375.482 174.243 374.029C174.107 372.518 174.296 370.232 173.655 369.123C173.707 367.666 174.461 365.842 175.108 364.557Z" fill="#DDD4FF"/>
<path d="M178.338 394.073C178.758 396.57 178.759 398.813 177.055 400.862C176.931 399.456 177.349 397.416 177.573 395.964L178.338 394.073Z" fill="#F1EFFD"/>
<path d="M177.064 341.227C176.059 331.684 176.315 321.478 176.509 311.878C176.789 298.044 184.645 287.742 199.33 288.982L200.227 289.134C204.534 289.72 208.547 292.314 211.192 295.716C217.469 303.792 216.392 315.547 215.795 325.215C215.622 333.415 216.638 341.521 223.285 347.21C220.214 359.449 217.003 375.993 205.187 383.303L204.851 383.514L204.648 383.638C194.511 386.287 188.609 380.425 181.964 373.785C180.224 371.679 178.562 369.508 176.983 367.278C176.621 366.647 175.566 365.22 175.108 364.557C171.8 358.769 168.877 353.593 166.46 347.366C166.872 345.181 174.992 342.143 177.064 341.227Z" fill="#987ABF"/>
<path d="M177.064 341.227C177.413 341.643 177.988 345.955 178.143 346.693C181.69 363.691 201.012 370.778 210.749 353.778C211.241 352.919 212.242 351.12 213.319 351.355L213.517 351.721C208.986 360.424 199.504 368.265 189.257 363.029C182.304 359.476 175.617 349.193 177.064 341.227Z" fill="#6832AC"/>
<path d="M186.057 328.837C183.237 320.225 181.915 310.49 187.933 302.776C192.176 297.45 199.483 298.365 204.224 302.447C210.601 307.937 209.352 314.845 209.813 322.137C210.723 328.886 205.87 338.894 198.719 340.312C193.81 341.284 185.307 333.919 186.057 328.837Z" fill="#F5A8B9"/>
<path d="M209.812 322.136C210.722 328.885 205.87 338.893 198.718 340.311C193.809 341.284 185.306 333.918 186.056 328.837C188.713 336.096 195.769 339.335 202.639 334.962C207.547 331.838 208.639 327.442 209.812 322.136Z" fill="url(#paint1_linear_83_4346)"/>
<path d="M191.557 321.009C194.709 324.383 197.405 322.816 201.561 322.881C200.878 324.865 200.209 326.369 198.158 327.351C197.052 327.891 195.773 327.954 194.62 327.525C192.066 326.588 191.324 324.444 190.899 322.014L191.557 321.009Z" fill="#F1EFFD"/>
<path d="M192.735 323.643C195.645 325.764 196.93 323.964 199.183 325.225C197.84 325.356 195.569 325.693 194.281 325.328C193.299 325.05 193.24 324.54 192.735 323.643Z" fill="#FDDADA"/>
<path d="M190.899 322.014C189.238 322.652 187.398 323.39 185.908 322.039C184.701 319.714 186.907 316.05 189.841 316.954C191.05 318.046 191.208 319.401 191.557 321.009L190.899 322.014Z" fill="#F980A1"/>
<path d="M203.135 316.278C206.252 316.862 210.459 318.769 206.706 322.052C202.637 323.11 200.808 319.869 203.135 316.278Z" fill="#F980A1"/>
<path d="M189.631 310.445C190.225 310.573 190.619 310.619 191.101 311.022C191.593 311.435 191.91 312.021 191.983 312.66C192.159 314.073 191.679 314.92 190.887 315.999C187.61 315.274 188.352 312.535 189.631 310.445Z" fill="#04010D"/>
<path d="M200.959 310.171C204.084 310.365 204.192 313.053 202.786 315.245L201.916 315.384C199.646 314.507 200.232 312.002 200.959 310.171Z" fill="#04010D"/>
<path d="M199.021 307.424C200.548 307.202 204.805 306.845 205.625 308.351L205.193 308.882C202.86 308.236 200.869 308.622 199.233 308.14L199.021 307.424Z" fill="#04010D"/>
<path d="M190.901 307.391C191.56 307.478 191.495 307.494 192.134 307.726L192.201 308.129C191.45 308.573 188.738 308.722 187.641 308.83L186.799 309.001L186.51 308.788C187.473 307.744 189.543 307.531 190.901 307.391Z" fill="#04010D"/>
<path d="M195.433 314.241L195.889 314.276C195.889 315.644 195.343 317.387 195.753 318.165C196.461 318.29 196.82 318.308 197.527 318.351L197.541 318.789L194.714 318.386C195.076 316.836 195.367 315.845 195.433 314.241Z" fill="#8D3F74"/>
<path d="M182.82 339.473C183.164 339.822 183.169 339.747 183.334 340.136C185.476 345.164 187.34 348.856 192.753 351.076C198.198 353.31 204.127 350.772 207.682 346.341C208.757 345.003 210.501 340.458 211.787 339.876L212.312 340.196C211.901 341.596 211.318 342.939 210.575 344.195C202.774 357.094 185.958 354.855 182.82 339.473Z" fill="#6832AC"/>
<path d="M158.714 372.2L162.932 357.847C163.77 354.985 165.156 349.941 166.46 347.366C168.877 353.594 171.8 358.77 175.108 364.558C174.461 365.842 173.707 367.666 173.655 369.123C174.296 370.232 174.107 372.518 174.243 374.03C174.018 376.004 173.664 376.592 172.984 378.393C171.982 380.596 170.283 384.104 169.527 386.517C169.446 386.774 169.986 388.366 170.108 388.706L169.909 389.312L169.316 389.562C167.462 389.3 166.791 388.883 165.769 387.342C162.179 381.931 158.848 375.743 156.306 369.79C157.399 370.261 158.087 371.21 158.714 372.2Z" fill="#FEFDFE"/>
<path d="M173.655 369.123C174.296 370.232 174.107 372.518 174.243 374.029C174.018 376.004 173.664 376.592 172.984 378.393C171.982 380.596 170.283 384.104 169.527 386.516C169.446 386.774 169.986 388.366 170.108 388.706L169.909 389.312L169.316 389.562C167.462 389.3 166.791 388.883 165.769 387.342C162.179 381.93 158.848 375.743 156.306 369.79C157.399 370.261 158.087 371.21 158.714 372.2C159.755 375.166 165.607 385.579 167.753 387.869C170.147 381.863 171.761 375.338 173.655 369.123Z" fill="#DDD4FF"/>
<path d="M137.555 237.484C139.884 238.11 144.103 238.531 146.562 238.649C147.075 243.92 148.237 252.868 148.126 257.888C145.742 255.424 143.974 252.74 141.771 250.213C140.492 250.862 139.49 251.343 138.298 252.168L137.556 252.535C135.532 253.518 133.339 254.983 131.039 256.104C133.218 249.44 135.486 244.702 137.555 237.484Z" fill="#F1EFFD"/>
<path d="M138.298 252.167C138.579 254.818 138.379 261.269 138.369 264.15L138.39 286.022C138.517 299.952 138.571 313.883 138.553 327.813C138.559 330.33 138.861 347.458 138.189 348.478L137.732 348.102C137.542 345.642 137.611 342.443 137.597 339.924C138.046 338.529 137.776 325.588 137.779 323.085L137.556 252.535L138.298 252.167Z" fill="#9D88EA"/>
<path d="M322.549 228.356C324.5 233.905 324.906 240.509 324.532 246.367L324.578 248.275C326.633 246.529 330.377 241.719 332.705 239.321C334.297 239.656 335.371 239.805 336.854 240.507L337.074 240.601C338.478 255.623 337.878 269.036 337.998 284.071C338.026 287.561 337.921 299.582 338.44 302.48C338.403 303.581 338.408 306.169 338.291 307.065C339.933 309.117 340.336 309.064 340.072 311.545L340.031 311.904C338.669 315.155 341.004 323.73 342.783 326.806C340.546 326.306 331.022 326.487 328.178 326.488C323.28 326.491 317.48 326.233 312.643 326.368C310.19 335.521 306.926 344.531 303.681 353.443C301.658 358.997 299.028 364.997 297.647 370.668C297.005 373.301 297.299 377.317 297.504 380.014C297.515 386.987 297.629 393.96 297.848 400.931C297.926 403.777 297.967 409.076 298.379 411.8C297.953 416.16 298.697 426.42 298.615 431.692C278.796 432.224 256.722 431.771 236.748 431.755L231.734 431.738C231.24 429.968 228.602 425.754 227.525 423.634C228.744 422.629 231.713 420.831 232.52 419.806L234.226 419.009C234.455 415.073 234.874 411.516 236.561 407.904C237.517 404.911 240.132 399.93 240.558 397.778C239.793 396.765 238.9 394.63 238.388 393.426C238.069 392.176 237.964 391.025 237.725 389.784C236.165 381.667 235.25 372.107 233.123 364.198L232.88 364.243C232.494 363.354 231.73 357.12 230.807 354.405C229.786 352.394 225.519 347.322 223.285 347.21C216.638 341.521 215.621 333.415 215.795 325.215C216.391 315.547 217.469 303.792 211.191 295.716C208.547 292.314 204.534 289.72 200.226 289.134L199.33 288.982C199.501 285.905 199.412 281.753 199.437 278.608C199.528 271.091 199.552 263.574 199.507 256.058L200.277 257.293C201.026 257.873 202.748 259.115 203.286 259.76C204.771 261.198 205.178 261.545 205.919 263.481C206.26 263.356 206.513 263.205 206.837 263.037C207.469 260.932 205.414 245.757 205.017 242.737C213.357 242.699 221.696 242.513 230.03 242.177C233.937 242.186 237.499 242.042 241.374 241.532C247.189 240.65 255.413 240.383 261.812 239.571C262.284 239.339 271.888 238.165 272.971 238.139C277.644 237.805 285.875 236.307 290.553 235.475C294.367 234.636 298.26 234.052 302.03 233.168C302.24 234.637 302.261 235.525 303.114 236.77C303.241 235.255 303.206 234.593 303.827 233.191C304.903 232.66 307.286 232.272 308.544 231.957C312.794 230.892 318.59 230.116 322.549 228.356Z" fill="#DDD4FF"/>
<path d="M313.202 287.397C315.507 289.142 317.922 289.86 320.232 291.368C321.439 292.748 320.941 294.929 320.52 296.663C318.158 306.39 315.897 316.917 312.643 326.368C310.19 335.521 306.926 344.532 303.681 353.443C301.658 358.998 299.028 364.997 297.647 370.668C297.005 373.302 297.299 377.317 297.504 380.014C297.515 386.987 297.629 393.961 297.848 400.931C297.926 403.778 297.967 409.076 298.379 411.8C297.953 416.16 298.697 426.42 298.615 431.692C278.797 432.224 256.722 431.771 236.748 431.755L231.734 431.738C231.24 429.968 228.602 425.755 227.525 423.634C228.744 422.629 231.713 420.831 232.52 419.806L234.226 419.009C234.455 415.074 234.874 411.516 236.561 407.905C237.517 404.911 240.132 399.93 240.558 397.778C239.793 396.765 238.9 394.63 238.388 393.426C238.069 392.176 237.964 391.025 237.725 389.784C236.165 381.667 235.25 372.107 233.123 364.199L232.88 364.243C232.494 363.354 231.73 357.12 230.807 354.406C234.537 350.918 253.573 345.555 257.383 347.946C260.787 351.998 270.359 353.614 273.249 348.309C273.054 346.745 273.124 342.58 273.106 340.825C273.257 338.752 273.112 335.803 273.065 333.661C276.576 331.331 278.025 329.742 279.975 326.029C285.365 326.535 291.213 326.047 296.615 326.356C300.124 319.155 303.527 311.345 306.683 303.97C308.981 298.598 310.877 292.782 313.202 287.397Z" fill="#C7F6FC"/>
<path d="M273.065 333.661C276.576 331.33 278.026 329.742 279.975 326.029C285.365 326.535 291.213 326.047 296.615 326.356C293.949 332.107 288.441 344.541 282.42 346.749C279.931 347.662 275.147 347.573 273.249 348.309C273.054 346.745 273.124 342.58 273.106 340.825C273.257 338.752 273.112 335.803 273.065 333.661Z" fill="#DDD4FF"/>
<path d="M240.558 397.778C244.292 400.687 246.755 404.981 249.773 408.198C258.775 417.797 249.571 417.36 246.764 423.024L245.538 421.854C244.878 421.583 243.577 420.747 242.893 420.358C239.49 418.421 237.878 418.714 234.227 419.009C234.456 415.074 234.875 411.516 236.562 407.905C237.518 404.911 240.132 399.93 240.558 397.778Z" fill="#FEFDFE"/>
<path d="M236.562 407.905C238.544 413.768 243.95 417.184 245.538 421.854C244.878 421.583 243.577 420.747 242.893 420.358C239.49 418.422 237.878 418.714 234.227 419.009C234.456 415.074 234.875 411.516 236.562 407.905Z" fill="#C7F6FC"/>
<path d="M234.226 419.009C237.878 418.714 239.489 418.421 242.893 420.358C243.577 420.747 244.878 421.583 245.538 421.854L246.763 423.024C244.614 424.871 243.355 424.148 241.431 422.503C240.389 424.07 240.06 424.701 238.401 425.714L235.028 425.815C235.562 427.607 236.33 429.957 236.748 431.755L231.734 431.738C231.24 429.968 228.602 425.754 227.525 423.634C228.744 422.629 231.713 420.831 232.52 419.806L234.226 419.009Z" fill="#FAC1C9"/>
<path d="M322.549 228.356C324.5 233.905 324.907 240.509 324.533 246.367L324.072 245.662C323.269 245.648 323.601 245.514 323.031 246.042C323.036 247.393 324.009 251.965 324.288 253.524C324.854 256.845 325.327 260.181 325.708 263.528L240.742 263.532C233.558 263.501 226.374 263.529 219.19 263.617C215.388 263.65 209.561 263.859 205.92 263.481C206.261 263.356 206.514 263.205 206.838 263.037C207.469 260.932 205.415 245.757 205.018 242.737C213.358 242.699 221.697 242.513 230.031 242.177C233.937 242.186 237.499 242.042 241.374 241.532C247.189 240.65 255.414 240.383 261.813 239.571C262.285 239.339 271.888 238.165 272.971 238.139C277.644 237.805 285.875 236.307 290.553 235.475C294.367 234.636 298.261 234.052 302.031 233.168C302.241 234.637 302.262 235.525 303.114 236.77C303.242 235.255 303.207 234.593 303.827 233.191C304.903 232.66 307.287 232.272 308.545 231.957C312.794 230.892 318.591 230.116 322.549 228.356Z" fill="#DDD4FF"/>
<path d="M302.031 233.168C302.241 234.637 302.261 235.526 303.114 236.77C303.385 237.932 303.437 238.122 303.942 239.19C305.187 242.649 308.507 249.477 310.133 253.079C306.963 251.279 301.69 249.084 299.021 247.018C296.077 250.01 294.117 252.98 290.809 255.998C292.029 247.007 291.799 244.215 290.553 235.475C294.367 234.636 298.26 234.052 302.031 233.168Z" fill="#FAC1C9"/>
<path d="M261.813 239.572C262.285 239.339 271.888 238.165 272.971 238.139C274.754 244.501 277.023 251.306 279.043 257.633C275.737 255.446 272.498 253.161 269.329 250.78C266.272 254.431 263.624 257.463 260.188 260.792C260.832 253.171 262.227 247.493 261.813 239.572Z" fill="#C7F6FC"/>
<path d="M230.031 242.178C233.938 242.186 237.499 242.042 241.374 241.532C243.107 247.783 244.77 254.055 246.363 260.343C242.756 258.035 239.678 255.076 236.513 252.193C233.737 254.962 230.164 258.584 226.823 260.593C227.592 257.167 229.99 245.235 230.031 242.178Z" fill="#FDDADA"/>
<path d="M303.827 233.191L304.397 233.384C304.712 234.594 304.579 238.171 303.942 239.19C303.437 238.122 303.385 237.932 303.114 236.77C303.242 235.255 303.207 234.593 303.827 233.191Z" fill="#9D88EA"/>
<path d="M395.334 357.331C389.485 351.421 387.53 344.719 393.756 338.085C394.96 336.862 397.903 334.998 399.539 334.452C406.15 332.246 404.986 327.119 403.333 321.635C398.661 306.122 415.469 289.923 428.637 290.354C434.775 290.555 440.852 298.486 441.943 305.222C447.158 306.029 453.213 308.383 451.686 314.996C450.212 321.383 444.426 323.256 443.02 330.031C445.486 336.142 452.726 338.83 454.363 344.793C452.981 351.85 445.436 348.908 444.502 355.214L454.363 362.379L454.203 362.848C446.741 356.855 441.331 353.35 432.761 349.129C433.832 355.183 432.721 349.719 432.695 350.014C432.518 351.943 431.913 353.674 430.691 355.183C425.418 361.695 418.471 356.421 415.898 352.573C412.37 354.086 407.218 353.679 403.867 355.582C400.586 357.446 398.481 355.264 395.334 357.331Z" fill="#FFFADC"/>
<path d="M249.164 310.335C249.607 311.213 249.279 310.992 250.001 311.268C251.133 310.25 251.788 305.048 255.546 302.144C259.326 299.224 262.822 298.654 267.554 299.164C273.221 299.774 279.606 301.423 283.329 305.964C283.533 306.963 283.56 308.195 283.62 309.229C283.454 309.695 283.128 310.339 283.558 310.688C289.272 315.331 285.868 316.265 282.417 320.376C282.032 320.836 280.578 324.811 279.975 326.03C278.026 329.742 276.576 331.331 273.066 333.661C273.113 335.803 273.257 338.752 273.107 340.825C273.125 342.58 273.055 346.745 273.249 348.309C270.359 353.615 260.787 351.998 257.383 347.946C257.709 345.87 257.605 335.321 257.627 332.75C254.573 330.606 253.224 328.222 251.767 324.959L250.557 320.75C245.157 319.096 242.284 312.635 249.164 310.335Z" fill="#FAC1C9"/>
<path d="M257.627 332.75C263.619 335.149 266.299 336.361 272.878 333.777C272.898 335.694 272.836 339.041 273.107 340.825C273.125 342.58 273.055 346.745 273.25 348.309C270.359 353.615 260.788 351.998 257.384 347.946C257.71 345.87 257.605 335.321 257.627 332.75Z" fill="#F5A8B9"/>
<path d="M416.962 333.021C422.951 336.072 425.63 337.615 432.206 334.328C432.227 336.766 432.165 341.023 432.435 343.293C432.453 345.526 432.384 350.823 432.578 352.813C429.689 359.562 420.121 357.505 416.719 352.352C417.045 349.71 416.94 336.292 416.962 333.021Z" fill="#F5A8B9"/>
<path d="M256.519 317.113C258.035 316.852 259.483 317.844 259.789 319.352C260.093 320.861 259.144 322.339 257.645 322.687C256.637 322.922 255.581 322.589 254.888 321.819C254.196 321.049 253.976 319.963 254.315 318.985C254.655 318.006 255.498 317.289 256.519 317.113Z" fill="#F980A1"/>
<path d="M275.113 317.4C276.012 317.01 277.053 317.137 277.831 317.733C278.61 318.329 279.006 319.3 278.866 320.271C278.725 321.242 278.07 322.06 277.154 322.411C275.781 322.937 274.238 322.268 273.683 320.905C273.128 319.542 273.763 317.985 275.113 317.4Z" fill="#F980A1"/>
<path d="M268.741 323.058C269.671 322.938 270.9 322.574 271.445 323.431C270.458 325.013 267.969 325.389 266.263 325.329C265.015 325.115 264.272 324.962 263.246 324.257L263.352 323.834C265.336 323.102 266.652 323.173 268.741 323.058Z" fill="#FEFDFE"/>
<path d="M259.437 310.658C262.372 311.129 261.849 313.038 261.047 315.373C259.991 315.475 259.934 315.336 259.211 314.711C258.569 313.185 258.89 312.191 259.437 310.658Z" fill="#04010D"/>
<path d="M272.659 310.693C273.624 311.026 274.296 311.265 274.651 312.201C274.112 313.342 273.948 313.904 273.577 315.126C272.454 315.253 272.99 315.325 271.918 314.846C270.882 313.19 271.534 312.063 272.659 310.693Z" fill="#04010D"/>
<path d="M258.562 307.647C258.771 307.615 258.981 307.586 259.191 307.559C260.397 307.405 260.481 307.413 261.337 308.066L261.348 308.525C260.487 309.299 260.587 309.073 259.272 309.352L258.227 309.674C257.405 309.469 257.685 309.71 257.274 309.055C257.503 308.271 257.884 308.125 258.562 307.647Z" fill="#04010D"/>
<path d="M271.812 307.228C273.247 307.421 274.739 307.474 275.849 308.328C276.195 309.242 276.126 308.752 275.822 309.865C273.777 308.662 272.315 309.178 271.448 308.137L271.812 307.228Z" fill="#0F1131"/>
<path d="M264.88 314.046L265.31 313.8C266.042 315.237 266.373 315.645 266.393 317.22C265.935 318.028 265.982 317.806 264.961 318.299C264.567 318 264.731 318.197 264.624 317.562L264.39 317.555L264.308 317.44C264.941 317.327 264.961 317.315 265.552 317.054C265.748 315.84 265.218 315.263 264.88 314.046Z" fill="#8D3F74"/>
<path d="M215.795 325.215C215.845 325.141 215.876 325.049 215.945 324.993C216.761 324.328 248.097 324.7 251.767 324.958C253.224 328.222 254.573 330.606 257.626 332.75C257.605 335.321 257.709 345.87 257.383 347.946C253.573 345.554 234.537 350.917 230.807 354.405C229.786 352.394 225.519 347.322 223.285 347.21C216.638 341.521 215.621 333.415 215.795 325.215Z" fill="#DDD4FF"/>
<path d="M249.164 310.335C247.969 306.044 246.652 301.928 248.601 297.762C251.804 290.919 258.379 291.788 263.978 289.482C266.574 287.599 268.03 285.085 271.177 283.87C275.445 282.221 278.344 283.97 279.964 288.505C281.193 287.427 281.828 286.602 283.583 286.883C286.304 288.524 285.174 293.934 284.323 296.433C287.112 301.67 286.271 304.234 283.619 309.229C283.56 308.195 283.532 306.963 283.329 305.964C279.605 301.423 273.221 299.774 267.553 299.164C262.822 298.654 259.326 299.224 255.546 302.144C251.787 305.048 251.133 310.25 250 311.268C249.279 310.992 249.607 311.213 249.164 310.335Z" fill="#1F0D4B"/>
<path d="M313.712 281.367C315.677 275.406 316.099 271.265 321.737 267.914C321.557 270.425 321.196 273.808 321.182 276.261C322.116 275.026 325.217 270.728 326.937 271.024C327.968 273.108 325.593 277.018 326.986 277.892C328.016 277.598 328.655 276.732 329.418 275.938C327.849 281.804 325.552 287.748 320.232 291.368C317.922 289.86 315.507 289.142 313.202 287.397L313.09 287.056C312.463 285.202 308.881 279.087 309.894 276.845C311.577 277.693 312.672 279.761 313.712 281.367Z" fill="#FAC1C9"/>
<path d="M325.707 263.528C325.327 260.181 324.853 256.845 324.287 253.524C324.008 251.965 323.035 247.393 323.03 246.042C323.6 245.514 323.268 245.648 324.071 245.662L324.532 246.367L324.578 248.275C325.044 252.583 325.973 260.215 326.956 264.321L239.263 264.335L212.875 264.376C209.875 264.386 202.979 264.653 200.428 264.35C200.3 272.611 200.232 280.872 200.226 289.134L199.33 288.982C199.501 285.905 199.412 281.753 199.437 278.608C199.528 271.091 199.552 263.574 199.507 256.058L200.277 257.294C201.026 257.873 202.748 259.115 203.286 259.761C204.771 261.198 205.178 261.545 205.919 263.481C209.56 263.859 215.387 263.651 219.19 263.617C226.374 263.529 233.557 263.501 240.741 263.532L325.707 263.528Z" fill="#9D88EA"/>
<path d="M200.278 257.293C201.027 257.873 202.749 259.115 203.286 259.76C203.16 261.314 204.057 262.274 203.062 263.5C202.107 263.791 202.174 263.765 201.197 263.523C199.853 262.192 200.399 259.733 200.278 257.293Z" fill="#DDD4FF"/>
<path d="M336.855 240.507L337.074 240.601C338.479 255.623 337.879 269.037 337.999 284.071C338.027 287.561 337.921 299.582 338.441 302.48C338.403 303.582 338.408 306.169 338.291 307.065C337.913 306.162 337.794 305.658 337.758 304.688C337.175 288.916 337.478 273.094 337.355 257.313C337.318 252.537 337.453 247.877 336.828 243.134C336.697 242.144 336.54 241.436 336.855 240.507Z" fill="#9D88EA"/>
<path d="M312.643 326.368C317.48 326.233 323.281 326.491 328.179 326.489C331.022 326.488 340.547 326.306 342.783 326.806C344.12 328.844 345.506 331.172 347.191 332.891L347.548 333.259C348.2 336.002 348.964 336.462 351.488 337.652L353.88 338.229C358.314 337.83 360.931 336.737 363.022 332.723C363.416 333.521 363.927 334.468 364.185 335.298C364.305 337.682 364.403 340.067 364.477 342.453C368.024 340.889 369.192 341.103 370.024 344.941C376.446 348.664 384.838 352.61 390.216 357.899C393 361.153 396.034 364.316 398.408 367.887C406.462 380.004 410.787 393.906 414.622 407.812C415.139 409.687 418.365 420.788 417.412 421.947C417.487 423.475 419.375 430.079 419.914 431.763C414.904 431.865 409.892 431.863 404.881 431.759C402.585 431.608 392.678 431.824 391.647 431.563C390.973 432.32 389.477 432.066 388.46 432.024C369.61 432.088 350.76 432.007 331.911 431.78C323.337 431.717 314.474 431.927 305.931 431.668C303.614 431.801 300.96 431.715 298.615 431.693C298.697 426.42 297.953 416.16 298.379 411.8C297.968 409.076 297.927 403.778 297.848 400.931C297.63 393.961 297.515 386.988 297.504 380.014C297.299 377.317 297.006 373.302 297.647 370.668C299.029 364.998 301.658 358.998 303.681 353.443C306.926 344.532 310.191 335.521 312.643 326.368Z" fill="#5FE2FF"/>
<path d="M312.643 326.368C317.48 326.233 323.281 326.491 328.179 326.489C331.022 326.488 340.547 326.306 342.783 326.806C344.12 328.844 345.506 331.172 347.191 332.891L347.548 333.259C348.2 336.002 348.964 336.462 351.488 337.652C351.625 339.57 351.698 341.442 352.113 343.319C329.388 346.337 327.927 364.906 320.676 382.739C318.3 382.967 313.6 381.87 311.004 381.527C306.586 380.944 301.959 380.175 297.504 380.014C297.299 377.317 297.006 373.302 297.647 370.668C299.029 364.998 301.658 358.998 303.681 353.443C306.926 344.532 310.191 335.521 312.643 326.368Z" fill="#DDD4FF"/>
<path d="M297.504 380.014C301.959 380.175 306.585 380.943 311.004 381.527C313.6 381.87 318.3 382.966 320.676 382.739C316.303 392.726 306.333 404.236 298.379 411.8C297.967 409.076 297.926 403.777 297.848 400.931C297.629 393.96 297.515 386.987 297.504 380.014Z" fill="#FEFDFE"/>
<path d="M305.931 431.668C307.252 430.276 312.529 427.283 314.559 425.695C321.704 420.007 328.194 413.541 333.91 406.417C333.618 414.553 332.533 423.542 331.911 431.78C323.337 431.717 314.474 431.927 305.931 431.668Z" fill="#FEFDFE"/>
<path d="M388.74 425.833C389.493 424.055 393.056 412.945 393.06 412.94L394.133 414.257L394.351 414.484C396.379 417.055 399.045 424.11 401.006 425.409C401.683 425.444 401.957 425.492 402.62 425.382C403.345 427.517 404.099 429.643 404.88 431.759C402.585 431.608 392.678 431.824 391.647 431.563C390.973 432.32 389.477 432.066 388.459 432.023C388.434 430.293 388.33 427.429 388.74 425.833Z" fill="#987ABF"/>
<path d="M388.74 425.833C389.493 424.055 393.056 412.945 393.06 412.94L394.133 414.257L394.351 414.484C393.609 419.101 392.641 427.433 391.647 431.563C390.973 432.32 389.477 432.066 388.459 432.023C388.434 430.293 388.33 427.429 388.74 425.833Z" fill="#FEFDFE"/>
<path d="M417.412 421.947C417.486 423.475 419.375 430.079 419.914 431.763C414.904 431.865 409.891 431.863 404.88 431.759C404.099 429.643 403.345 427.517 402.62 425.382C403.893 425.175 404.909 425.046 406.193 424.931C409.43 424.195 413.013 423.186 416.256 422.348L417.412 421.947Z" fill="#FAC1C9"/>
<path d="M416.256 422.348C415.358 425.072 406.581 427.717 406.193 424.931C409.43 424.195 413.013 423.186 416.256 422.348Z" fill="#F980A1"/>
<path d="M388.174 401.304C389.547 404.156 393.31 411.604 394.133 414.257L393.06 412.94C393.056 412.945 389.493 424.054 388.74 425.833C388.43 424.24 388.519 421.635 388.369 419.949C387.878 414.456 388.261 406.42 387.367 401.207L388.174 401.304Z" fill="#987ABF"/>
<path d="M363.022 332.723C363.417 333.521 363.927 334.469 364.186 335.298C364.306 337.682 364.403 340.067 364.477 342.453L362.954 342.73C361.999 342.398 358.231 342.023 356.787 341.774C355.55 340.696 354.635 339.691 353.88 338.229C358.314 337.83 360.932 336.737 363.022 332.723Z" fill="#F5A8B9"/>
<path d="M351.488 337.651L353.88 338.229C354.634 339.691 355.55 340.696 356.787 341.773C358.231 342.023 361.999 342.398 362.954 342.73C361.309 343.5 359.943 344.168 358.353 345.041C356.47 344.518 354.707 343.997 352.747 344.192L352.113 343.319C351.698 341.441 351.625 339.57 351.488 337.651Z" fill="#FAC1C9"/>
<path d="M356.623 347.254L357.284 346.657C357.113 347.96 357.054 349.207 356.98 350.516C356.432 360.256 357.028 370.405 356.453 380.092C354.509 380.117 353.043 380.214 351.137 379.803C351.375 379.565 351.249 379.616 351.471 379.568L351.526 379.84L351.675 379.856L352.008 379.486C353.33 379.416 354.653 379.385 355.975 379.393C356.003 368.677 356.219 357.962 356.623 347.254Z" fill="#678CCF"/>
<path d="M379.739 382.828L380.046 382.38C382.323 388.599 385.352 395.294 388.174 401.304L387.367 401.206C384.515 394.872 382.339 389.16 379.739 382.828Z" fill="#678CCF"/>
<path d="M352.746 344.192C354.707 343.997 356.47 344.518 358.352 345.041C358.029 345.518 357.553 346.172 357.284 346.657L356.622 347.253C355.503 346.493 354.371 345.753 353.226 345.032L352.75 344.428L352.746 344.192Z" fill="#F5A8B9"/>
<path d="M352.751 344.428L353.226 345.032C352.991 346.4 352.518 351.343 352.67 352.513C353.277 352.924 353.594 353.024 353.856 353.687C353.557 354.382 353.142 355.094 352.309 354.997C351.935 354.163 352.391 345.635 352.751 344.428Z" fill="#7BCBED"/>
<path d="M379.739 382.828C378.961 380.903 378.135 378.761 377.855 376.697C378.779 378.676 379.33 380.31 380.046 382.381L379.739 382.828Z" fill="#7BCBED"/>
<path d="M335.839 377.768C336.329 378.756 334.618 403.831 334.247 406.743C333.426 404.255 335.34 381.222 335.839 377.768Z" fill="#678CCF"/>
<path d="M351.76 366.227C352.697 366.382 353.055 366.36 353.205 367.316C351.869 369.316 351.02 370.455 351.74 372.829C352.724 373.31 352.858 373.386 353.573 374.211C353.076 374.863 353.114 374.821 352.39 375.21C350.207 374.686 351.234 367.898 351.76 366.227Z" fill="#7BCBED"/>
<path d="M474.075 301.418C476.541 301.486 484.582 301.781 486.873 301.359C487.253 301.411 488.048 301.391 488.284 301.701C489.395 303.17 488.135 330.551 487.404 333.497C485.652 340.557 474.126 352.684 469.129 358.494C463.999 364.341 458.857 369.941 453.057 375.139C452.122 375.978 451.185 376.847 450.367 377.8C449.663 380.916 449.345 383.701 448.85 386.773C447.547 394.867 447.025 400.021 449.667 407.997C451.659 415.851 453.817 423.924 455.606 431.8C444.011 431.736 431.353 432.08 419.914 431.763C419.375 430.079 417.487 423.475 417.412 421.947C418.365 420.788 415.14 409.687 414.622 407.811C410.787 393.906 406.462 380.004 398.409 367.887C396.035 364.316 393.001 361.153 390.216 357.898C391.68 355.157 394.795 350.691 397.497 349.124L398.025 348.624H414.622C418.894 351.736 415.709 353.747 422.735 356.274C429.661 356.59 422.285 356.441 423.828 357.898C430.117 356 429.363 352.167 436.133 349.124C441.777 346.588 444.336 350.544 449.229 350.544L454.38 345.928C459.886 340.3 465.274 334.558 470.541 328.706C471.81 327.518 472.709 325.988 473.13 324.301C473.881 321.327 473.546 317.662 473.632 314.551C473.753 310.163 473.796 305.806 474.075 301.418Z" fill="#987ABF"/>
<path d="M482.894 414.531C478.07 410.643 473.514 404.454 473.811 397.844C473.841 397.17 474.511 396.234 475.142 395.971C481.791 393.191 483.661 403.067 484.396 407.545C484.655 409.128 484.392 410.336 484.953 411.555L485.338 411.19C486.787 408.441 490.258 404.194 492.55 402.049L493.008 402.419C490.553 405.362 488.175 408.667 485.804 411.449L485.879 411.878C488.858 411.961 491.361 411.153 494.23 411.876C496.551 412.461 502.889 414.207 502.302 417.276C501.437 421.799 493.931 420.424 490.959 419.467C487.952 418.501 485.883 417.18 483.743 415.124C481.577 418.758 479.371 422.369 477.128 425.956C482.337 424.131 487.532 423.402 492.688 425.812C495.255 427.012 496.839 428.662 495.298 431.441C495.941 432.044 519.376 431.745 522.147 431.823C524.86 431.885 534.929 431.503 536.386 432.266C537.045 433.19 537.029 433.16 537.372 434.243C537.245 434.936 537.32 435.057 536.585 435.572C535.917 436.039 534.136 436.238 533.344 436.234C520.786 436.164 508.168 436.185 495.611 436.168L424.091 436.242L87.0718 436.172L37.5764 436.172C31.3473 436.182 22.4137 436.453 16.1409 435.971C15.5459 435.926 15.1068 435.161 14.8359 434.708C14.717 433.356 14.8818 432.94 15.7545 431.904C27.4683 432.916 40.8438 431.177 52.7607 431.757C56.4184 431.935 60.5167 431.476 64.1446 431.963C64.4793 430.747 64.855 428.006 65.5534 427.227C69.2798 428.233 72.6677 428.882 76.3093 429.788L75.3014 431.915C80.669 431.266 88.6074 431.663 94.1637 431.68C100.941 431.702 108.099 431.975 114.85 431.732C121.713 431.936 129.107 431.673 136.016 431.803C138.169 431.843 147.611 431.959 149.024 431.57C152.565 432.011 155.407 431.91 158.966 431.803L160.178 431.767C161.032 430.623 161.558 429.612 162.251 428.372C165.92 429.213 174.895 431.367 178.367 431.741L213.609 431.747L215.417 431.776C220.596 431.772 226.627 431.912 231.734 431.738L236.749 431.755C256.722 431.771 278.797 432.224 298.615 431.692C300.96 431.714 303.614 431.801 305.931 431.668C314.474 431.927 323.337 431.717 331.911 431.78C350.76 432.006 369.61 432.087 388.46 432.023C389.477 432.066 390.973 432.32 391.647 431.563C392.678 431.824 402.585 431.608 404.881 431.759C409.892 431.863 414.904 431.865 419.914 431.763C431.353 432.08 444.011 431.736 455.605 431.8C461.412 431.998 467.768 431.865 473.614 431.858L475.241 427.367C474.895 427.134 474.552 426.897 474.21 426.659C469.943 423.672 465.613 418.905 464.5 413.64C463.637 409.553 467.933 407.396 470.827 410.097C474.334 413.37 476.223 419.484 476.762 424.163C478.79 420.799 480.594 417.727 482.894 414.531Z" fill="#ACA5F5"/>
<path d="M65.5533 427.228C69.2797 428.234 72.6676 428.882 76.3092 429.788L75.3013 431.915C73.775 432.397 66.0553 432.171 64.1445 431.963C64.4792 430.748 64.8549 428.007 65.5533 427.228Z" fill="#A55680"/>
<path d="M162.251 428.373C165.92 429.213 174.895 431.368 178.367 431.741C172.592 431.906 166.014 431.763 160.178 431.767C161.032 430.623 161.559 429.612 162.251 428.373Z" fill="#DDD4FF"/>
<path d="M476.066 428.069C477.03 428.711 480.681 430.926 481.09 431.643L480.498 431.813L474.77 431.808L476.066 428.069Z" fill="#F1EFFD"/>
<path d="M415.416 306.968C415.472 302.835 423.693 299.958 427.471 300.931C436.135 303.162 441.204 312.727 439.336 321.29C438.412 325.285 436.29 328.399 434.055 331.628C427.728 340.773 419.795 339.865 414.787 330.358C411.931 324.938 410.853 321.28 412.74 315.152C413.31 313.145 415.027 308.845 415.372 307.231L415.416 306.968Z" fill="#FAC1C9"/>
<path d="M415.326 309.265C416.651 308.181 418.827 306.61 420.677 307.335C420.314 308.472 417.037 309.801 415.796 310.394C415.257 310.018 415.472 310.265 415.281 309.529L415.326 309.265Z" fill="#3D126F"/>
<path d="M429.393 322.05C430.089 322.343 431.175 323.451 431.154 324.177C431.049 327.867 428.356 329.511 425.343 330.061C423.571 329.485 423.374 329.429 421.79 328.383C420.684 327.259 418.642 324.566 419.054 322.925C421.792 321.389 424.535 325.895 429.393 322.05Z" fill="#F1EFFD"/>
<path d="M418.751 310.224C422.148 310.586 421.686 312.997 419.94 315.031C418.837 315.259 418.744 315.117 417.921 314.676C416.873 313.033 417.642 311.565 418.751 310.224Z" fill="#1F0D4B"/>
<path d="M430.349 310.432C433.451 311.427 433.089 313.228 431.23 315.214C427.966 314.568 428.579 312.36 430.349 310.432Z" fill="#1F0D4B"/>
<path d="M429.467 307.354L429.637 307.347C431.49 307.265 434.838 307.784 434.874 310.17C433.881 309.862 430.19 308.451 429.444 308.002L429.467 307.354Z" fill="#6832AC"/>
<path d="M422.857 315.373L423.347 315.79C423.726 317.331 424.646 318.732 426.378 318.705C427.009 318.331 427.019 318.14 427.409 317.487C427.238 316.794 427.063 316.392 427.25 315.706L427.882 315.727C428.502 320.05 423.438 320.686 422.857 315.373Z" fill="#3E1A2D"/>
<path d="M438.96 342.016C438.977 342.138 438.993 342.259 439.01 342.38C436.86 350.377 430.074 357.939 421.418 358.488C419.681 358.598 418.625 358.443 417.366 358.339L417.255 358.211L417.374 357.944C429.197 357.127 433.373 351.976 438.96 342.016Z" fill="#ACA5F5"/>
<path d="M539.121 378.185C536.767 392.046 529.379 419.76 522.148 431.823C519.376 431.745 495.941 432.044 495.298 431.441C496.839 428.663 495.256 427.012 492.689 425.812C487.532 423.402 482.337 424.131 477.128 425.956C479.372 422.369 481.577 418.759 483.744 415.124C485.883 417.181 487.953 418.501 490.959 419.468C493.931 420.424 501.437 421.799 502.302 417.276C502.889 414.207 496.551 412.461 494.23 411.876C491.361 411.153 488.858 411.962 485.879 411.878L485.805 411.449C488.175 408.667 490.553 405.362 493.008 402.419C496.919 406.071 499.933 409.027 505.587 409.567C510.301 410.017 511.572 406.091 508.132 403.26C504.269 400.081 500.058 399.616 495.226 399.821C497.897 397.229 500.764 394.655 503.52 392.147C505.578 396.707 509.396 399.64 514.178 400.911C515.281 401.203 516.852 401.206 517.804 400.509C522.542 397.045 514.494 392.464 511.639 391.277C509.909 390.548 508.437 390.322 506.677 390.116C509.446 388.427 512.214 386.698 515.056 385.137C517.023 389.835 520.053 393.72 524.697 396.037C528.109 397.928 532.123 395.717 529.751 391.742C527.057 387.228 522.615 385.275 517.846 383.974C524.914 381.296 531.37 385.407 539.121 378.185Z" fill="#DDD4FF"/>
<path d="M514.226 384.758C511.869 379.934 510.409 373.736 513.988 369.453C518.874 363.61 521.371 373.575 519.565 377.227C518.929 378.513 517.77 381.695 517.762 382.897C518.426 383.357 518.212 383.194 519.122 383.315C521.21 382.649 521.157 379.428 523.777 377.621C527.939 374.75 535.518 370.968 539.569 375.812C539.46 376.685 539.421 377.352 539.121 378.185C531.37 385.407 524.914 381.296 517.845 383.974C522.615 385.275 527.057 387.228 529.751 391.742C532.123 395.717 528.109 397.929 524.697 396.037C520.053 393.72 517.023 389.835 515.056 385.137C512.214 386.698 509.446 388.427 506.677 390.116C508.437 390.322 509.909 390.548 511.639 391.277C514.494 392.464 522.542 397.045 517.804 400.509C516.852 401.206 515.281 401.204 514.178 400.911C509.396 399.64 505.578 396.707 503.52 392.147C500.764 394.656 497.897 397.229 495.226 399.821C500.058 399.616 504.269 400.081 508.132 403.26C511.572 406.091 510.301 410.017 505.587 409.567C499.933 409.027 496.919 406.071 493.008 402.419L492.55 402.049C492.264 401.435 491.131 400.475 490.565 399.885C487.479 396.665 484.521 392.901 484.174 388.273C483.807 383.258 488.817 382.75 491.563 386.173C494.679 390.056 495.184 394.23 494.919 399.01C497.492 396.455 500.463 393.863 503.174 391.417C500.064 387.573 498.504 385.067 498.528 379.801C498.545 375.983 502.18 372.687 504.896 376.586C507.247 379.962 506.666 385.643 505.946 389.589L514.226 384.758Z" fill="#ACA5F5"/>
<path d="M469.128 358.494C472.023 360.012 481.4 365.981 481.885 368.753C483.2 376.28 464.26 373.092 460.963 372.526C472.871 383.863 470.079 386.501 454.977 388.477C456.344 390.611 456.178 391.613 455.587 394.268C454.834 397.648 451.711 405.218 449.666 407.997C447.024 400.021 447.546 394.867 448.85 386.773C449.345 383.701 449.662 380.916 450.367 377.801C451.184 376.847 452.121 375.978 453.057 375.139C458.856 369.941 463.999 364.341 469.128 358.494Z" fill="#FFFADC"/>
<path d="M474.977 292.828C475.162 288.969 474.614 283.119 475.582 279.615C476.32 276.94 480.231 277.089 480.432 281.688L481.424 281.345C482.518 280.561 482.099 280.641 483.306 280.537C484.353 281.188 484.482 281.77 484.706 282.935L485.436 283.2C486.293 282.735 486.332 282.623 487.32 282.664C490.275 284.371 488.406 293.968 487.969 296.978C487.768 298.357 486.997 299.995 486.873 301.36C484.583 301.781 476.541 301.487 474.075 301.419C473.687 298.233 469.608 291.715 470.989 289.714C472.633 289.702 473.962 291.659 474.977 292.828Z" fill="#FAC1C9"/>
<path d="M484.705 282.935L485.435 283.199C485.584 284.133 485.767 285.015 485.346 285.832L484.941 285.888C484.276 284.901 484.53 284.12 484.705 282.935Z" fill="#DDD4FF"/>
<path d="M480.432 281.688L481.424 281.345C481.668 282.493 481.912 283.024 481.551 284.084L481.154 284.206C480.51 283.373 480.554 282.743 480.432 281.688Z" fill="#FDDADA"/>
<path d="M442.422 329.494C442.827 328.259 443.073 327.629 443.63 326.456C447.674 327.963 469.37 326.047 471.704 327.589C466.436 333.44 461.048 339.182 455.542 344.81C455.27 344.365 455.401 344.511 455.118 344.232C450.792 339.976 445.012 334.964 442.422 329.494Z" fill="#DDD4FF"/>
<path d="M508.963 310.617C510.889 310.605 512.599 311.156 513.237 313.191C513.52 314.074 513.438 315.032 513.011 315.854C512.337 317.158 511.499 317.568 510.179 317.977C505.079 317.837 503.581 312.638 508.963 310.617Z" fill="#DDD4FF"/>
<path d="M176.122 46.043C219.095 9.70234 301.579 -9.26261 344.153 38.7263C352.612 48.261 355.818 60.4515 361.957 71.3585C364.713 76.3192 367.745 79.828 370.662 84.414C373.455 52.272 413.072 44.8962 434.839 63.5198C437.376 65.6886 440.315 68.1151 442.314 70.825C455.595 88.8375 463.301 113.437 462.346 135.795C461.718 150.466 447.908 160.366 433.813 158.524C424.261 157.276 414.235 151.191 406.655 145.16L406.172 145.54C406.439 146.307 408.447 148.216 409.113 148.849C419.145 158.377 430.969 164.181 443.259 170.116C447.135 171.987 457.957 176.078 460.503 178.581C456.144 178.39 451.555 177.606 447.206 177.648C425.795 177.854 404.623 178.031 383.205 177.598L382.611 177.501C377.573 177.069 371.862 177.566 366.544 177.124L366.067 177.126C362.187 177.092 355.154 176.748 351.405 176.32L351.075 176.326C347.173 181.731 346.358 190.811 346.421 197.276C341.345 197.311 334.914 197.515 329.957 197.131C330.54 200.25 334.367 222.116 335.146 222.973C331.472 224.132 327.561 225.629 323.848 226.537C317.126 228.182 310.336 229.704 303.575 231.185L302.544 231.378C298.739 232.656 289.132 233.921 284.676 234.645C265.478 237.753 246.111 239.711 226.679 240.506C221.228 240.728 215.774 240.862 210.319 240.909C206.76 240.916 203.006 240.727 199.493 240.815C183.195 240.683 166.921 239.546 150.762 237.412C148.121 237.089 139.844 236.224 137.893 235.666L137.574 235.62C133.832 235.183 126.731 233.756 122.907 232.946C113.854 231.031 101.883 228.519 93.2236 225.412C100.991 211.751 107.299 196.324 111.761 181.255C122.53 144.885 128.028 106.26 149.825 74.2369C147.521 73.5612 132.486 73.635 129.297 73.553C130.456 72.584 131.682 71.6977 132.966 70.9011C140.299 66.2653 145.28 65.206 153.52 67.0849C155.355 65.4079 157.153 63.1817 158.938 61.3865C163.913 56.3809 170.242 49.9297 176.122 46.043Z" fill="#DDD4FF"/>
<path d="M134.982 120.996L176.918 120.921C185.239 120.928 194.592 121.153 202.839 120.835C201.195 135.972 198.889 150.804 199.445 166.066C199.541 168.725 199.438 171.594 199.437 174.274C199.375 187.132 199.394 199.989 199.494 212.847C199.552 219.027 199.571 225.208 199.55 231.389C199.547 233.745 199.384 238.506 199.594 240.584L199.493 240.815C183.195 240.683 166.921 239.546 150.762 237.411C148.121 237.089 139.845 236.224 137.894 235.666L138.426 235.195C138.606 231.394 138.399 226.605 138.383 222.703L138.359 198.584L138.344 166.506C138.339 160.135 138.727 152.01 137.96 145.822C136.94 137.597 136.106 129.186 134.982 120.996Z" fill="#DDD4FF"/>
<path d="M167.562 135.823C168.264 135.777 168.969 135.781 169.671 135.837C172.704 136.044 175.527 137.459 177.511 139.764C181.861 144.924 180.678 155.856 180.669 162.502C180.659 169.918 181.144 178.574 180.455 185.836C176.95 185.924 173.256 185.883 169.736 185.897L156.705 185.864L156.854 160.904C156.89 150.515 154.54 138.701 167.562 135.823Z" fill="#9D88EA"/>
<path d="M166.808 136.654C167.41 136.602 168.015 136.57 168.619 136.556C173.273 136.441 178.277 139.546 179.261 144.101C180.347 149.127 179.985 155.605 179.999 160.763L180.009 185.334L170.916 185.294L157.435 185.368C157.512 177.121 157.546 168.874 157.538 160.627C157.552 151.382 155.315 139.426 166.808 136.654Z" fill="#FEFDFE"/>
<path d="M251.423 68.6716C252.186 68.1081 252.956 67.5538 253.733 67.01C263.441 60.3329 275.404 57.7909 286.986 59.945C281.114 61.0737 275.564 63.4887 270.734 67.0166C268.222 69.1142 266.766 71.0861 264.701 73.6247C259.639 81.737 257.794 90.7257 259.922 100.122C261.959 108.865 267.35 116.456 274.931 121.257C282.669 126.172 292.072 127.727 300.979 125.562C309.688 123.497 317.192 117.995 321.782 110.308C322.63 108.917 323.553 107.139 324.076 105.594C324.185 106.352 324.324 107.167 324.38 107.925C323.557 115.484 321.007 123.365 316.398 129.476C309.394 138.753 298.965 144.833 287.445 146.355C275.989 147.851 264.411 144.704 255.287 137.615C235.32 122.385 231.349 93.7901 246.805 73.9432C248.292 72.1404 249.832 70.3825 251.423 68.6716Z" fill="#FEFDFE"/>
<path d="M396.351 136.151C399.019 138.671 403.845 142.975 406.654 145.16L406.172 145.54C406.438 146.307 408.446 148.216 409.112 148.849C419.145 158.377 430.968 164.181 443.259 170.116C447.134 171.987 457.956 176.078 460.502 178.581C456.144 178.39 451.554 177.606 447.205 177.648C425.794 177.854 404.622 178.031 383.204 177.598L382.611 177.501C377.572 177.069 371.862 177.566 366.543 177.124L366.066 177.126C362.186 177.091 355.154 176.748 351.404 176.319L351.075 176.326C341.361 176.276 331.563 175.714 321.676 175.658C325.934 165.947 337.964 164.199 347.298 164.227L347.512 163.83C351.755 156.15 358.146 151.96 366.406 149.752C367.35 149.017 370.304 149.931 370.945 149.589C379.449 145.057 385.154 143.598 395.113 145.265C394.569 141.285 395.07 139.851 396.351 136.151Z" fill="#F1EFFD"/>
<path d="M176.123 46.0429C178.664 45.8798 180.871 45.4186 183.469 45.4886C193.712 45.7649 200.192 51.9157 208.239 56.1532C215.093 53.6474 221.21 50.0248 228.594 49.2091C243.217 47.5929 248.814 55.9644 251.423 68.6714C249.833 70.3823 248.293 72.1402 246.806 73.943L149.825 74.2368C147.521 73.5611 132.486 73.6349 129.297 73.5529C130.456 72.5839 131.682 71.6976 132.966 70.901C140.299 66.2652 145.28 65.2059 153.52 67.0848C155.355 65.4078 157.154 63.1816 158.938 61.3865C163.913 56.3808 170.242 49.9296 176.123 46.0429Z" fill="#F1EFFD"/>
<path d="M167.79 76.9119C169.431 78.7371 170.541 80.7177 171.86 82.7617C176.543 90.0237 181.351 97.1758 185.782 104.598C189.138 110.218 188.568 114.153 188.441 120.359C193.477 120.286 198.514 120.258 203.55 120.275C202.85 126.968 202.193 133.781 201.368 140.452C199.972 151.738 200.397 162.992 200.396 174.347L200.4 219.528C200.4 222.008 200.831 239.443 199.864 240.398C199.786 240.476 199.683 240.522 199.593 240.584C199.384 238.506 199.547 233.745 199.55 231.389C199.571 225.209 199.552 219.028 199.494 212.847C199.393 199.989 199.374 187.132 199.436 174.274C199.438 171.595 199.541 168.725 199.444 166.067C198.889 150.804 201.194 135.972 202.839 120.836C194.591 121.154 185.238 120.929 176.918 120.922L134.982 120.997C136.106 129.186 136.94 137.597 137.96 145.822C138.727 152.01 138.338 160.136 138.343 166.506L138.359 198.584L138.382 222.703C138.399 226.605 138.606 231.394 138.426 235.195L137.894 235.666L137.574 235.62L137.407 179.553C137.387 169.11 137.629 157.968 137.274 147.568C136.985 139.109 134.799 129.03 134.412 120.393L148.727 120.369C148.396 116.891 148.048 113.022 148.951 109.6C150.945 102.049 163.176 84.6471 167.79 76.9119Z" fill="#9D88EA"/>
<path d="M168.032 78.0513C168.532 78.5174 171.095 82.6581 171.611 83.5077C176.739 91.9477 183.29 100.195 187.173 109.259C188.209 111.678 187.86 117.548 187.786 120.275C181.633 120.214 175.48 120.2 169.327 120.23C162.653 120.201 155.98 120.251 149.307 120.38C149.103 117.084 148.805 113.549 149.535 110.299C151.239 102.713 163.43 85.3904 168.032 78.0513Z" fill="#DDD4FF"/>
<path d="M167.292 106.508C168.909 106.585 169.975 106.72 170.284 108.529C170.045 109.487 169.762 109.625 169.033 110.287C167.379 110.185 166.291 109.971 165.979 108.176C166.471 106.959 166.22 107.385 167.292 106.508Z" fill="#9D88EA"/>
<path d="M167.351 107.452C167.696 107.146 168.183 107.059 168.613 107.223C169.044 107.388 169.348 107.779 169.402 108.237C169.456 108.695 169.252 109.145 168.871 109.406C168.33 109.776 167.595 109.661 167.192 109.144C166.79 108.627 166.859 107.885 167.351 107.452Z" fill="#F1EFFD"/>
<path d="M255.257 189.075C255.215 183.957 254.78 172.076 255.641 167.818L255.825 167.801C256.245 172.768 255.849 178.418 255.975 183.445C256.004 184.589 255.862 188.013 256.103 188.946L256.803 189.164L256.574 189.972C234.846 189.736 211.189 211.565 206.687 232.262C206.106 234.936 205.6 237.9 204.871 240.489L204.398 240.475C204.327 240.279 204.235 240.073 204.257 239.856C206.559 217.842 223.368 198.188 244.091 191.103C247.796 189.836 251.437 189.136 255.257 189.075Z" fill="#9D88EA"/>
<path d="M256.803 189.164C267.674 189.196 282.422 197.933 289.612 205.678C297.545 214.223 301.588 219.901 303.575 231.185L302.544 231.378C301.938 225.133 298.249 217.998 294.555 213.042C284.845 200.016 272.473 192.479 256.574 189.972L256.803 189.164Z" fill="#9D88EA"/>
<path d="M264.701 73.6248C266.766 71.0861 268.222 69.1143 270.734 67.0166C274.677 69.0355 276.107 70.5751 279.181 73.8294C274.354 73.8836 269.525 73.8152 264.701 73.6248Z" fill="#F1EFFD"/>
<path d="M324.076 105.594C324.176 104.661 324.084 104.572 324.507 103.773C324.795 105.181 324.638 106.508 324.38 107.925C324.324 107.167 324.185 106.352 324.076 105.594Z" fill="#F1EFFD"/>
<path d="M403.789 66.6795C406.324 66.2992 410.682 66.7364 413.211 67.2923C423.238 69.495 430.285 75.7005 435.703 84.2406C438.253 88.2499 440.425 92.488 442.19 96.9C446.102 106.91 450.68 126.139 448.748 136.893C448.278 139.51 446.492 142.575 444.072 143.93C439.829 146.306 435.411 145.563 431.013 144.427C414.279 138.502 404.255 126.418 393.465 113.255C380.255 97.1418 376.837 69.5546 403.789 66.6795Z" fill="#FEFDFE"/>
<path d="M277.873 28.1278C283.508 27.2518 288.782 31.1249 289.636 36.7663C290.489 42.4072 286.597 47.6684 280.955 48.5C275.344 49.3272 270.121 45.4596 269.273 39.8494C268.424 34.2397 272.269 28.9988 277.873 28.1278Z" fill="#DDD4FF"/>
<path d="M338.44 302.48C340.639 295.575 343.073 290.32 349.926 286.812C355.773 283.881 362.541 283.386 368.752 285.434C378.963 288.785 389.84 301.64 386.411 313.376C384.313 320.555 376.773 327.62 370.061 330.922C368.879 331.498 367.692 332.062 366.498 332.613C365.25 333.707 365.04 333.888 364.185 335.298C363.926 334.468 363.416 333.521 363.021 332.722C360.931 336.737 358.314 337.83 353.879 338.229L351.488 337.651C348.963 336.462 348.199 336.002 347.547 333.258L347.19 332.89C345.505 331.171 344.12 328.843 342.782 326.806C341.004 323.73 338.669 315.155 340.031 311.904L340.072 311.545C340.336 309.063 339.933 309.117 338.291 307.065C338.407 306.169 338.403 303.581 338.44 302.48Z" fill="#F980A1"/>
<path d="M340.797 311.074C341.134 308.905 342.692 306.175 344.471 304.973C351.002 300.559 364.474 302.441 368.992 309.063C371.74 313.091 372.098 318.009 371.381 322.646C370.901 326.617 366.838 330.963 366.498 332.613C365.25 333.707 365.041 333.888 364.186 335.298C363.927 334.468 363.417 333.521 363.022 332.722C360.932 336.737 358.314 337.83 353.88 338.229L351.488 337.651C348.964 336.462 348.2 336.002 347.548 333.258L347.191 332.89C345.506 331.171 344.12 328.843 342.783 326.806C341.005 323.73 338.67 315.155 340.031 311.904L340.438 311.795L340.797 311.074Z" fill="#FAC1C9"/>
<path d="M348.842 326.627C349.664 327.053 350.555 327.493 351.35 327.953C352.381 327.419 353.771 327.578 354.995 327.583C356.343 327.473 359.069 327.17 360.262 327.399C362.852 328.777 363.621 329.75 363.021 332.722C360.931 336.737 358.314 337.83 353.879 338.229L351.488 337.652C348.963 336.462 348.199 336.002 347.548 333.259C347.512 331.351 347.229 328.843 348.175 327.253L348.842 326.627Z" fill="#3D126F"/>
<path d="M348.842 326.627C349.664 327.053 350.555 327.493 351.35 327.953C352.381 327.419 353.771 327.578 354.995 327.583C356.343 327.473 359.069 327.17 360.262 327.399L360.015 327.818C360.212 331.518 355.494 334.181 352.257 332.555C349.675 331.257 349.206 329.7 348.175 327.253L348.842 326.627Z" fill="#FEFDFE"/>
<path d="M354.995 327.583C356.344 327.473 359.07 327.17 360.263 327.4L360.015 327.818C357.536 327.922 353.423 328.579 351.351 327.953C352.381 327.419 353.772 327.578 354.995 327.583Z" fill="#3C363C"/>
<path d="M340.797 311.074C343.793 309.336 346.019 309.578 349.452 309.44C350.573 310.376 351.589 311.454 352.958 311.745C353.897 311.601 354.091 311.41 354.882 310.915C355.15 311.351 355.433 311.735 355.594 312.21C355.519 313.443 355.479 314.019 355.579 315.237L354.943 316.046C354.762 314.788 354.727 312.902 353.595 312.231C352.615 312.835 351.915 316.315 351.089 317.455C349.398 319.77 345.919 320.326 343.632 318.606C341.637 317.105 342.081 313.431 341.364 311.75L340.438 311.795L340.797 311.074Z" fill="#1F0D4B"/>
<path d="M348.627 311.492L348.735 311.253C349.401 311.074 349.429 311.152 350.118 311.32C350.278 311.792 350.409 312.219 350.548 312.698L351.434 312.892C352.356 316.224 348.977 318.957 345.816 318.233C342.586 317.494 340.833 312.673 344.267 310.856C344.991 310.473 345.543 310.583 346.264 310.917L346.422 311.627C347.228 311.625 347.832 311.659 348.627 311.492Z" fill="#FAC1C9"/>
<path d="M348.627 311.492C348.734 312.948 348.947 313.622 347.547 314.321C346.589 314.07 346.985 314.314 346.334 313.534C346.078 312.549 346.135 312.563 346.421 311.627C347.227 311.625 347.831 311.659 348.627 311.492Z" fill="#0F1131"/>
<path d="M355.594 312.21C357.067 311.142 358.953 310.817 360.691 311.381C360.949 311.319 361.22 311.328 361.474 311.406C362.439 311.264 363.008 311.537 363.806 312.108C364.057 312.291 364.303 312.483 364.541 312.683C364.746 314.377 364.726 315.735 363.561 317.125C362.737 318.108 361.548 318.711 360.268 318.793C359.024 318.861 357.805 318.418 356.894 317.567C356.134 316.863 355.896 316.186 355.579 315.237C355.48 314.018 355.519 313.443 355.594 312.21Z" fill="#FAC1C9"/>
<path d="M361.475 311.406C362.192 311.626 362.635 312.342 362.512 313.082C362.39 313.822 361.738 314.357 360.989 314.333C360.239 314.309 359.624 313.734 359.549 312.988C359.473 312.241 359.962 311.555 360.691 311.381C360.95 311.32 361.22 311.328 361.475 311.406Z" fill="#04010D"/>
<path d="M354.883 310.915C357.734 310.07 366.66 309.225 368.178 312.226C367.771 312.96 368.068 312.668 367.133 312.986C366.432 312.859 365.982 312.766 365.281 312.579L364.541 312.684C364.303 312.483 364.058 312.291 363.807 312.108C363.009 311.537 362.439 311.264 361.475 311.406C361.221 311.328 360.95 311.32 360.691 311.381C358.953 310.817 357.068 311.142 355.595 312.21C355.434 311.735 355.151 311.351 354.883 310.915Z" fill="url(#paint2_linear_83_4346)"/>
<path d="M364.54 312.684L365.28 312.579C365.531 315.16 365.527 316.145 364.049 318.346C360.734 320.396 355.959 320.604 354.943 316.046L355.579 315.237C355.895 316.186 356.134 316.863 356.894 317.567C357.805 318.419 359.024 318.861 360.268 318.793C361.547 318.711 362.737 318.108 363.56 317.125C364.725 315.735 364.746 314.377 364.54 312.684Z" fill="#04010D"/>
<path d="M354.044 325.893C354.342 326.448 354.645 327.068 354.995 327.583C353.771 327.578 352.381 327.419 351.35 327.953C350.555 327.493 349.664 327.052 348.842 326.627C350.481 326.912 352.436 326.322 354.044 325.893Z" fill="#FDDADA"/>
<path d="M348.842 326.627C349.826 326.026 353.067 325.42 354.044 325.893C352.436 326.322 350.481 326.912 348.842 326.627Z" fill="#A55680"/>
<path d="M359.211 307.427C360.571 307.28 361.861 307.002 362.971 307.82L363.059 308.459C361.865 308.441 360.185 308.586 359.248 307.979L359.211 307.427Z" fill="#3E1A2D"/>
<path d="M344.727 307.075C345.958 306.94 346.757 306.73 347.717 307.364L347.726 308.094C346.664 308.134 345.236 308.371 344.533 307.722L344.727 307.075Z" fill="#04010D"/>
<path d="M351.405 176.319C355.155 176.748 362.187 177.091 366.067 177.126L366.544 177.124C371.863 177.566 377.573 177.069 382.612 177.501C385.058 186.168 387.316 186.704 387.179 197.269C374.041 197.037 360.238 197.263 347.063 197.31C346.941 187.575 347.994 185.276 351.405 176.319Z" fill="#DDD4FF"/>
<path d="M366.543 177.125C366.809 178.57 366.814 185.79 366.353 186.947C365.685 185.36 365.722 178.855 366.066 177.126L366.543 177.125Z" fill="#9D88EA"/>
<path d="M322.549 228.356C325.142 227.764 333.816 225.801 335.751 224.73C336.82 228.992 342.69 238.623 344.982 243.723C343.121 242.968 338.695 240.936 337.074 240.601L336.855 240.507C335.371 239.805 334.297 239.656 332.705 239.322C330.377 241.719 326.633 246.529 324.578 248.275L324.532 246.367C324.906 240.509 324.5 233.906 322.549 228.356Z" fill="#C7F6FC"/>
<path d="M351.076 176.326L351.405 176.319C347.994 185.276 346.941 187.575 347.063 197.31C360.238 197.263 374.041 197.037 387.179 197.269C387.316 186.704 385.058 186.168 382.612 177.501L383.205 177.597C385.973 183.319 388.142 190.945 387.686 197.322C393.234 197.233 399.248 197.24 404.762 197.03L400.477 218.818C399.73 222.536 398.648 227.299 398.161 230.991C397.608 235.173 398.284 240.607 397.986 244.975L397.741 245.233C397.014 244.445 397.314 242.161 397.25 241.078C396.789 233.256 398.267 226.619 399.75 219.001L403.86 197.869L362.523 197.929C352.061 197.971 341.316 198.201 330.878 198.004C331.63 202.166 335.291 220.013 335.147 222.973C334.368 222.116 330.541 200.25 329.957 197.131C334.915 197.515 341.345 197.31 346.422 197.276C346.358 190.811 347.174 181.73 351.076 176.326Z" fill="#9D88EA"/>
<path d="M397.757 246.58C398.588 248.515 398.147 318.981 398.157 328.799C398.155 335.408 398.11 342.016 398.024 348.624L397.497 349.124C397.129 346.565 397.49 340.847 397.508 338.062L397.512 316.762L397.305 249.48C397.313 248.278 397.139 247.401 397.757 246.58Z" fill="#9D88EA"/>
<path d="M366.122 213.538C369.494 213.281 372.635 214.021 375.201 216.305C381.217 221.66 379.625 229.281 379.843 236.298C380.134 245.704 379.38 255.707 380.057 265.035L369.756 265.084C364.817 265.073 359.878 265.094 354.938 265.148L354.872 239.043C354.855 228.909 352.845 216.058 366.122 213.538Z" fill="#9D88EA"/>
<path d="M366.962 214.105C374.478 213.891 379.015 219.681 379.259 226.845C379.39 230.682 379.261 234.6 379.257 238.445L379.322 264.304C375.986 264.254 372.235 264.111 368.935 264.291L355.54 264.327C355.683 255.511 355.414 246.579 355.462 237.746C355.516 227.925 353.69 215.932 366.962 214.105Z" fill="#FEFDFE"/>
<path d="M383.205 177.598C404.623 178.032 425.795 177.854 447.206 177.649C451.555 177.606 456.145 178.39 460.503 178.581C464.11 179.529 468.274 182.824 471.621 184.657C496.622 198.347 514.615 218.552 525.644 244.915C483.092 245.153 440.538 245.174 397.986 244.975C398.284 240.607 397.608 235.173 398.16 230.992C398.648 227.3 399.73 222.536 400.477 218.818L404.762 197.03C399.248 197.24 393.234 197.233 387.686 197.322C388.142 190.945 385.973 183.319 383.205 177.598Z" fill="#DDD4FF"/>
<path d="M473.741 209.491C482.683 207.621 491.436 213.393 493.243 222.351C495.051 231.309 489.221 240.026 480.255 241.773C471.376 243.502 462.766 237.739 460.976 228.868C459.186 219.997 464.887 211.344 473.741 209.491Z" fill="#DDD4FF"/>
<path d="M23.1943 362.216C43.0706 362.631 63.3495 361.99 83.084 362.453C81.8738 366.45 80.4546 371.166 78.9535 375.026C77.6344 378.822 76.2191 385.761 75.1242 388.511L74.6233 390.268C74.0628 393.896 72.8394 397.764 72.0639 401.436C70.916 405.394 65.1848 424.404 65.3286 426.973L65.5528 427.227C64.8545 428.007 64.4788 430.748 64.1441 431.963C60.5161 431.476 56.4178 431.935 52.7601 431.757C40.8432 431.177 27.4677 432.916 15.7539 431.904C19.0312 431.517 27.6624 431.796 31.5684 431.746C23.2951 409.637 21.2721 385.614 23.1943 362.216Z" fill="#DDD4FF"/>
<path d="M64.6348 385.535C61.5805 382.61 59.5292 379.205 59.2241 374.936C58.9315 370.421 62.8504 369.287 65.5405 372.816C68.8753 377.191 68.5155 381.21 67.9839 386.271C70.6887 386.997 72.3545 387.51 74.9899 388.502C74.8286 386.662 74.3134 384.99 74.3441 383.045C74.3878 380.272 74.7761 373.609 78.9542 375.026C77.6352 378.822 76.2198 385.761 75.125 388.511L74.6241 390.268L74.443 390.118C73.9011 388.332 69.8542 387.741 68.0977 387.298C68.2338 391.915 67.816 392.726 65.8265 396.874C64.1902 400.285 58.2966 404.763 57.7546 398.234C57.4232 394.24 60.7859 389.297 63.7467 386.496C60.8986 386.325 58.1976 386.17 55.3402 386.116C55.4085 392.4 54.6533 399.461 47.2429 401.158C45.1999 401.626 45.1115 397.52 45.34 396.346C46.2749 391.546 47.7719 388.963 51.6877 386.119C48.605 387.191 46.4137 389.32 43.2134 390.652C40.5977 391.699 36.8139 392.615 34.0904 391.779C32.6626 391.341 32.2385 389.021 33.0669 387.786C35.568 384.039 39.948 382.632 44.2132 383.91C46.9848 384.74 48.2443 386.197 51.2458 385.489L51.6154 385.398C48.7015 383.677 41.2063 376.277 43.3168 372.743C45.5297 370.938 48.7034 372.619 50.5909 374.206C53.9405 377.023 54.7479 380.996 55.082 385.163C57.8946 385.13 61.9032 385.169 64.6348 385.535Z" fill="#ACA5F5"/>
<path d="M72.0645 401.436C69.6352 397.473 72.3226 393.504 74.4428 390.118L74.6238 390.268C74.0633 393.896 72.8399 397.764 72.0645 401.436Z" fill="#ACA5F5"/>
<path d="M83.7686 168.689C95.2382 167.01 99.4421 175.629 97.0905 185.56C93.9575 198.789 87.3714 210.39 81.0414 222.204C77.7864 220.742 73.0778 219.153 69.6609 217.933C62.6166 215.138 57.1976 212.808 50.5352 209.321C51.2028 200.661 54.2039 192.343 59.2194 185.253C65.0404 177.082 73.7089 170.372 83.7686 168.689Z" fill="#DDD4FF"/>
<path d="M72.8556 197.225C76.8084 196.511 80.5988 199.116 81.3513 203.063C82.1038 207.011 79.5374 210.828 75.5993 211.619C71.6066 212.422 67.7259 209.811 66.963 205.808C66.2002 201.806 68.8476 197.949 72.8556 197.225Z" fill="#DDD4FF"/>
<path d="M27.086 338.995C50.8524 339.495 74.9078 338.965 98.6968 339.323C102.754 339.384 106.878 339.946 110.985 340.121C111.051 342.712 111.6 345.583 109.725 347.535C109.714 347.525 109.707 347.512 109.694 347.506C107.867 346.631 97.164 349.447 94.8157 350.387C89.4722 352.527 85.9033 355.906 83.6523 361.194C66.1895 361.549 48.6107 360.683 31.1278 361.072C28.574 361.13 25.9631 361.073 23.4121 360.949C24.3244 352.872 25.3719 346.869 27.086 338.995Z" fill="#DDD4FF"/>
<path d="M145.472 373.293C146.285 373.661 146.933 374.043 147.816 374.102C149.651 381.599 153.55 390.24 158.458 396.236C159.682 397.733 162.805 400.4 164.382 401.703C170.48 405.071 175.98 405.57 176.324 397.167C176.564 397.39 176.647 397.713 176.772 398.009C177.003 396.874 176.814 396.95 177.573 395.964C177.349 397.416 176.931 399.456 177.054 400.862C174.47 406.856 171.122 412.848 167.991 418.592C166.523 421.287 164.075 426.15 162.251 428.372C161.558 429.612 161.032 430.623 160.177 431.767L158.965 431.803C155.406 431.91 152.565 432.011 149.024 431.57C148.572 428.173 148.475 423.54 148.265 419.989L146.986 398.745C150.403 396.18 152.308 394.298 153.869 390.311C151.667 391.828 148.114 395.53 146.929 397.91C146.353 393.252 146.303 387.445 146.045 382.68C145.89 379.83 145.493 375.998 145.472 373.293Z" fill="#DDD4FF"/>
<path d="M176.325 397.167C176.564 397.39 176.647 397.713 176.773 398.009C177.004 396.874 176.814 396.95 177.573 395.964C177.35 397.416 176.931 399.456 177.055 400.862C174.47 406.856 171.123 412.848 167.992 418.592C166.523 421.287 164.075 426.15 162.251 428.373C161.559 429.612 161.032 430.623 160.178 431.767L158.966 431.804C160.592 428.394 162.729 424.852 164.605 421.533L173.984 404.951C171.225 405.047 165.028 405.326 164.383 401.703C170.48 405.071 175.98 405.57 176.325 397.167Z" fill="#DDD4FF"/>
<path d="M153.399 410.378C156.657 409.271 161.782 408.469 165.14 409.334C164.753 412.797 156.733 413.126 154.129 412.138L153.846 412.363C155.009 414.222 158.758 413.528 159.04 415.007C156.879 416.127 152.266 413.815 149.848 413.202L152.361 411.139L153.399 410.378Z" fill="#FEFDFE"/>
<path d="M152.361 411.139C152.066 410.711 151.847 410.335 151.577 409.888C151.725 408.839 151.548 409.333 152.264 408.409C152.914 408.4 152.871 408.425 153.473 408.66C156.231 407.271 158.818 403.835 161.234 402.132C162.049 402.142 161.696 402.017 162.334 402.51C161.953 405.52 154.562 408.195 153.4 410.377L152.361 411.139Z" fill="#DDD4FF"/>
<path d="M31.1999 324.563C35.217 324.64 63.8409 325.107 66.0962 324.453C68.509 326.647 71.979 326.177 74.9211 325.855C75.4068 326.161 83.1204 332.165 83.2916 332.368C81.9715 333.442 78.6235 331.709 77.649 335.091C78.2762 338.489 84.609 337.134 86.2994 334.501C88.3726 334.892 94.2876 337.538 96.5205 338.473C88.1052 338.569 80.998 338.173 72.7243 338.04L27.4209 337.63C28.487 333.39 29.9484 328.786 31.1999 324.563Z" fill="#DDD4FF"/>
<path d="M50.4677 211.212C59.2187 215.608 70.8732 220.507 80.2417 223.388C78.0558 226.658 75.9662 229.927 73.2597 232.797C62.1286 244.57 57.1209 240.918 52.368 226.666C50.607 221.385 50.4176 216.728 50.4677 211.212Z" fill="#DDD4FF"/>
<path d="M86.499 402.268C87.9078 399.164 95.517 374.962 96.4494 374.675L96.1918 374.952L96.3554 375.221C95.7664 378.634 94.2204 383.573 93.1441 386.926C93.8403 391.013 93.831 395.151 93.7938 399.287C93.6986 410.007 92.9193 420.762 92.6896 431.475L106.451 431.491C108.393 431.499 113.073 431.474 114.851 431.733C108.099 431.976 100.941 431.702 94.164 431.681C88.6078 431.664 80.6693 431.266 75.3018 431.915L76.3096 429.788C78.1838 427.657 84.4969 406.572 86.499 402.268Z" fill="#DDD4FF"/>
<path d="M86.499 402.268C87.9078 399.164 95.517 374.962 96.4494 374.675L96.1918 374.952L96.3553 375.221C95.7664 378.634 94.2204 383.573 93.1441 386.926C92.4326 388.632 87.3341 402.392 86.7014 402.69L86.499 402.268Z" fill="#DDD4FF"/>
<path d="M145.472 373.293C145.192 371.64 144.428 368.893 145.23 367.523C146.436 368.411 147.389 372.509 147.817 374.103C146.934 374.043 146.286 373.662 145.472 373.293Z" fill="#DDD4FF"/>
<defs>
<linearGradient id="paint0_linear_83_4346" x1="456.259" y1="236.899" x2="490.064" y2="428.223" gradientUnits="userSpaceOnUse">
<stop stop-color="#D1CBFB"/>
<stop offset="1" stop-color="#E3E3F8"/>
</linearGradient>
<linearGradient id="paint1_linear_83_4346" x1="202.304" y1="338.391" x2="196.764" y2="325.482" gradientUnits="userSpaceOnUse">
<stop stop-color="#360069"/>
<stop offset="1" stop-color="#59279F"/>
</linearGradient>
<linearGradient id="paint2_linear_83_4346" x1="361.556" y1="310.21" x2="361.271" y2="312.23" gradientUnits="userSpaceOnUse">
<stop stop-color="#0C0226"/>
<stop offset="1" stop-color="#25084A"/>
</linearGradient>
</defs>
</svg>
