<svg width="1359" height="1074" viewBox="0 0 1359 1074" fill="none" xmlns="http://www.w3.org/2000/svg">
<g opacity="0.6">
<path d="M160.446 521.597C186.53 479.917 217.853 419.107 230.496 373.212C233.678 361.551 236.435 349.795 238.76 337.964C242.987 316.53 245.77 297.592 255.757 277.483C278.807 231.069 343.39 186.766 392.193 164.693C410.606 156.515 429.778 149.865 449.48 144.823C511.075 129.47 566.536 132.562 622.584 163.138C672.152 190.179 708.637 229.745 742.625 271.806C754.332 286.293 762.665 301.86 773.352 316.862C775.038 319.227 777.699 320.44 780.578 321.186C793.322 344.447 804.134 363.351 811.759 388.687C819.406 411.159 820.622 435.19 825.843 458.018C836.555 504.865 867.356 542.86 917.76 557.78C986.998 578.276 1036.65 549.939 1083.9 507.152C1120.22 474.262 1165.47 439.58 1216.57 431.299C1238.09 427.851 1262.37 427.814 1282.69 436.149C1286.16 444.786 1289.13 454.578 1291.95 463.478C1310.43 522.772 1318.17 584.452 1314.85 646.05C1314.46 654.734 1312.41 682.025 1309.74 689.809C1321.94 703.146 1321.78 732.067 1320.31 748.685C1315.98 797.932 1292.31 840.391 1271.86 885.19C1269.77 889.774 1257.34 915.008 1257.01 918.147C1273.93 913.273 1299.44 906.832 1316.88 912.043C1329.15 915.71 1315.88 936.576 1311.93 942.468C1298.42 962.627 1280.11 980.472 1261.13 996.391C1258.38 998.697 1240.78 1013.22 1239.57 1014.88C1236.04 1022.8 1223.85 1052.92 1221.67 1060.67C1225.88 1060.68 1252.3 1060.25 1253.98 1061.33C1261.43 1061.59 1274.57 1061.71 1280.05 1067.01C1282.66 1075.19 1237.77 1073.43 1231.63 1073.52C1201.3 1073.79 1170.98 1073.91 1140.66 1073.87L890.435 1073.89L417.622 1073.69L134.288 1073.41C122.958 1073.3 58.9656 1073.35 52.6949 1070.15L52.533 1069.16C56.9098 1065.11 137.432 1064.65 149.161 1064.58C149.217 1063.49 149.022 1062.26 148.347 1061.36C137.348 1046.68 127.63 1031.57 118.271 1016.04C77.2003 947.873 48.213 873.713 52.0202 794.835C54.9924 733.256 75.0425 676.567 103.393 620.948C111.559 604.928 121.192 589.417 130.133 573.757C139.878 557.022 149.763 539.424 159.775 522.851C218.388 522.049 269.603 531.702 327.169 537.046C387.85 542.678 453.571 502.898 501.057 470.278L500.235 468.189C490.341 476.407 477.9 483.797 466.854 490.537C428.45 513.968 379.077 539.085 331.462 535.948C294.869 533.536 256.48 527.017 219.495 523.588C196.274 521.435 183.182 522.073 160.446 521.597Z" fill="url(#paint0_linear_32_4546)"/>
<path d="M648.67 829.572L648.43 829.108C643.49 819.445 642.308 810.041 646.549 799.913C650.255 791.286 657.557 784.372 666.835 780.708C676.065 777.037 686.524 776.967 695.812 780.516C700.968 782.438 710.976 788.278 713.103 792.868C722.489 803.552 723.067 817.928 714.661 829.268C742.361 830.384 773.017 828.771 799.618 830.065C798.42 832.947 798.885 843.981 798.835 850.46C798.664 872.965 799.183 897.479 798.717 920.153C798.453 920.389 798.188 920.627 797.924 920.863L795.99 921.191L795.81 921.811C787.518 920.156 787.429 906.632 761.371 907.071C750.162 908.684 740.101 914.294 733.373 922.683C726.299 931.508 723.353 942.561 725.187 953.388C726.194 959.143 728.311 963.817 731.554 968.798C746.58 986.142 765.567 992.612 786.728 978.536C791.605 975.291 792.245 970.488 798.494 973.887C799.519 999.114 798.935 1027.47 798.549 1052.83L644.609 1052.92L603.682 1052.92C599.645 1052.92 587.876 1053.13 584.854 1052.53L584.307 1051.91C584.103 1053.53 583.954 1054.13 584.038 1055.78L583.71 1056.74C583.179 1060.01 582.121 1063.26 581.194 1066.46L580.689 1066.77C580.445 1064.43 580.432 1063.66 580.526 1061.3C574.973 1061.36 543.556 1062.14 540.738 1060.84C539.941 1061.01 538.612 1061.36 537.862 1061.37L516.384 1061.49L511.699 1061.5C503.902 1061.57 496.086 1061.72 488.297 1061.44C484.088 1061.71 480.776 1061.9 476.541 1061.88C472.831 1062.06 470.138 1062.3 466.418 1061.92C463.638 1061.74 459.993 1061.77 457.137 1061.71L454.943 1060.91C452.358 1061.96 443.543 1061.58 440.083 1061.61C437.77 1062.31 429.122 1062.55 426.955 1061.34C425.879 1057.64 423.753 1054.04 421.579 1050.81L421.459 1040.86L419.284 1041.23C415.367 1036.91 398.42 992.676 393.171 982.614L392.22 982.112C389.66 979.449 391.097 982.706 388.192 979.274C388.317 977.608 388.256 977.714 389.354 976.391L386.581 975.617L386.35 975.785C386.865 968.804 387.771 962.418 388.741 955.492C389.771 951.921 391.895 936.947 391.909 933.275C390.691 932.021 386.407 931.587 384.133 931.109L386.923 930.968C386.514 926.472 385.12 925.895 382.129 922.504L379.568 922.239L376.224 921.315C376.805 921.281 377.309 921.267 377.893 921.146C401.889 916.17 423.365 921.683 448.398 920.277C450.739 918.173 451.016 917.994 454.155 917.05C453.012 914.426 451.851 914.906 448.963 914.325C451.299 914.384 452.507 914.655 454.471 913.526C455.794 911.512 455.299 908.891 455.193 906.437C456.228 906.211 457.266 906.002 458.309 905.807L457.062 905.531C454.88 903.225 455.267 895.279 455.192 891.934L460.012 887.395C459.501 878.657 459.846 864.229 455.172 856.873C451.073 850.424 444.282 849.168 437.13 847.42C436.662 846.078 436.451 843.226 436.277 841.686L438.021 839.468C445.57 838.989 466.504 839.718 475.165 839.737C503.826 839.674 532.487 839.831 561.146 840.209L561.467 829.331L563.353 829.603C566.389 829.13 585.138 829.542 588.999 829.548C608.886 829.576 628.76 830.04 648.67 829.572Z" fill="#F4CAE4"/>
<path d="M454.155 917.049C460.52 917.037 479.293 916.474 484.039 918.26L484.547 919.205C484.143 919.424 483.201 919.97 482.81 920.109C497.765 920.963 521.767 919.631 534.612 921.166C530.489 921.582 527.959 921.677 523.817 921.705L523.826 930.607L575.568 930.458C585.183 930.448 596.364 930.186 605.82 930.725L605.762 944.482C603.035 944.409 599.864 944.04 597.438 944.991L596.621 946.594L596.189 944.446L595.016 945.672C593.331 954.017 592.432 963.428 591.155 971.921C587.759 997.937 583.53 1026.47 581.503 1052.43L581.299 1055.7L580.526 1061.3C574.973 1061.36 543.556 1062.14 540.738 1060.84C539.941 1061.01 538.612 1061.36 537.862 1061.37L516.384 1061.49L511.699 1061.5C503.902 1061.57 496.086 1061.72 488.297 1061.44C484.088 1061.71 480.776 1061.9 476.541 1061.88C472.831 1062.06 470.138 1062.3 466.418 1061.92C463.638 1061.74 459.993 1061.77 457.137 1061.71L454.943 1060.91C452.358 1061.96 443.543 1061.58 440.083 1061.61C437.77 1062.31 429.122 1062.55 426.955 1061.34C425.879 1057.64 423.753 1054.04 421.579 1050.8L421.459 1040.86L419.284 1041.23C415.367 1036.91 398.42 992.675 393.171 982.613L392.22 982.111C389.66 979.448 391.097 982.706 388.192 979.274C388.317 977.608 388.256 977.714 389.354 976.39L386.581 975.616L386.35 975.785C386.865 968.804 387.771 962.417 388.741 955.491C389.771 951.92 391.895 936.947 391.909 933.275C390.691 932.021 386.407 931.587 384.133 931.109L386.923 930.968C386.514 926.472 385.12 925.895 382.129 922.503L379.568 922.239L376.224 921.315C376.805 921.281 377.309 921.266 377.893 921.146C401.889 916.17 423.365 921.683 448.398 920.277C450.739 918.173 451.016 917.994 454.155 917.049Z" fill="#7A4EA4"/>
<path d="M509.089 944.451L569.001 944.415C573.586 944.423 590.356 944.191 594.152 944.836L595.016 945.672C593.33 954.016 592.432 963.428 591.155 971.921C587.759 997.937 583.529 1026.47 581.503 1052.43L581.298 1055.7L580.526 1061.3C574.973 1061.36 543.556 1062.14 540.738 1060.84C529.549 1037.72 519.78 1013.37 508.892 990.072C505.497 982.806 501.737 974.57 499.32 967.08C503.331 959.69 507.867 952.614 509.089 944.451Z" fill="white"/>
<path d="M566.74 957.341C574.325 963.994 580.764 969.208 591.156 971.921C587.759 997.937 583.53 1026.47 581.503 1052.43C576.315 1052.35 571.126 1052.36 565.938 1052.48C566.611 1045.17 566.25 1027.73 566.128 1020.14C566.794 1015.41 566.603 1003.11 566.629 997.879L566.74 957.341Z" fill="#F4CAE4"/>
<path d="M562.191 1054.49C561.534 1048.58 561.968 1037.46 561.99 1031.03L562.086 981.068C562.089 971.479 562.482 958.633 561.264 949.335L566.741 957.341L566.629 997.879C566.604 1003.11 566.795 1015.41 566.129 1020.14C566.251 1027.73 566.612 1045.17 565.939 1052.48L564.621 1052.5L563.235 1055.77C562.502 1055.26 562.924 1055.63 562.191 1054.49Z" fill="#F88FB9"/>
<path d="M562.984 1036.35C562.675 1026.46 564.558 1016.1 565.224 1005.97C565.879 1009.15 565.836 1016.28 566.128 1020.14C566.25 1027.73 566.611 1045.17 565.938 1052.48L564.621 1052.5C564.643 1049.15 565.065 1037.55 563.706 1035.24L562.984 1036.35Z" fill="#EE72AD"/>
<path d="M565.939 1052.48C571.127 1052.36 576.316 1052.35 581.504 1052.43L581.3 1055.7C575.277 1055.64 569.256 1055.67 563.234 1055.77L564.621 1052.5L565.939 1052.48Z" fill="#EE72AD"/>
<path d="M454.155 917.049C460.52 917.037 479.293 916.474 484.039 918.26L484.547 919.205C484.143 919.424 483.201 919.97 482.81 920.109C497.765 920.963 521.767 919.631 534.612 921.166C530.489 921.582 527.959 921.677 523.817 921.705L523.826 930.607L575.568 930.458C585.183 930.448 596.364 930.186 605.82 930.725L605.762 944.482C603.035 944.409 599.864 944.04 597.438 944.991L596.621 946.594L596.189 944.446L595.016 945.672L594.152 944.836C590.356 944.191 573.587 944.423 569.001 944.415L509.09 944.451C507.867 952.614 503.331 959.69 499.321 967.08C501.737 974.57 505.497 982.806 508.892 990.072C519.78 1013.37 529.549 1037.72 540.738 1060.84C539.941 1061.01 538.612 1061.36 537.862 1061.37L516.384 1061.49C516.357 1051.72 515.798 1044.09 514.856 1034.49C514.181 1027.61 512.199 1012.63 513.123 1006.56C511.339 1001.96 509.771 998.747 507.512 994.3C505.828 990.103 503.817 985.688 502.005 981.509C499.436 975.827 497.181 969.725 494.918 963.912C493.814 960.199 491.413 954.344 489.759 950.788C489.132 948.533 488.001 945.827 487.145 943.589C481.056 943.644 461.079 943.434 456.301 944.939L442.481 945.042C436.243 945.482 427.875 946.347 421.787 946.481C403.689 949.708 391.08 965.199 410.89 974.763C403.108 975.985 396.696 975.499 389.354 976.39L386.581 975.616L386.35 975.785C386.865 968.804 387.771 962.417 388.741 955.491C389.771 951.92 391.895 936.947 391.909 933.275C390.691 932.021 386.407 931.587 384.133 931.109L386.923 930.968C386.514 926.472 385.12 925.895 382.129 922.503L379.568 922.239L376.224 921.315C376.805 921.281 377.309 921.266 377.893 921.146C401.889 916.17 423.365 921.683 448.398 920.277C450.739 918.173 451.016 917.994 454.155 917.049Z" fill="#7A4EA4"/>
<path d="M386.581 975.617C389.683 964.956 390.333 945.246 393.655 933.113C395.724 931.589 415.72 932.251 419.886 932.287C420.044 938.072 420.069 940.801 421.788 946.481C403.689 949.709 391.08 965.199 410.89 974.764C403.108 975.985 396.697 975.5 389.355 976.391L386.581 975.617Z" fill="#DDD4FF"/>
<path d="M382.13 922.504C401.888 921.972 423.003 923.008 442.75 922.254C461.102 921.552 478.777 921.086 497.159 921.314C503.703 921.396 514.837 920.928 520.946 921.683C506.469 923.186 490.539 920.624 476.016 922.486C474.574 922.672 472.296 924.239 470.758 924.82C465.265 924.669 456.907 924.753 451.346 925.106C448.296 925.219 448.463 924.73 446.731 926.166C446.609 927.9 446.547 928.748 446.64 930.514C431.291 930.852 415.834 930.497 400.476 930.583C395.845 930.609 391.529 930.412 386.924 930.968C386.515 926.472 385.12 925.895 382.13 922.504Z" fill="#DDD4FF"/>
<path d="M513.123 1006.56C521.031 1024.08 529.4 1044.38 537.862 1061.37L516.384 1061.49C516.357 1051.72 515.798 1044.09 514.856 1034.49C514.181 1027.61 512.199 1012.63 513.123 1006.56Z" fill="#F0F2FB"/>
<path d="M446.062 932.096L447.196 932.375C452.161 932.33 478.914 931.544 481.401 933.076C482.204 934.373 482.873 935.409 483.526 936.79C484.816 939.017 486.024 941.286 487.146 943.589C481.057 943.644 461.08 943.434 456.302 944.939L442.482 945.042C445.035 940.538 445.908 937.057 446.062 932.096Z" fill="#B4ADFC"/>
<path d="M447.196 932.376C452.161 932.331 478.914 931.545 481.401 933.076C482.204 934.373 482.873 935.409 483.526 936.79L482.41 937.657C474.482 938.184 455.482 938.874 447.995 937.579C446.919 936.009 447.285 934.562 447.196 932.376Z" fill="white"/>
<path d="M470.758 924.82C472.296 924.239 474.573 922.672 476.016 922.487C490.539 920.624 506.469 923.186 520.945 921.683L520.911 930.566C514.036 930.525 503.261 930.786 496.712 930.388C493.757 929.786 482.097 929.836 478.315 929.801C475.09 927.399 471.066 928.056 470.758 924.82Z" fill="white"/>
<path d="M419.886 932.286C428.342 932.297 437.692 932.462 446.061 932.096C445.907 937.057 445.034 940.538 442.482 945.042C436.243 945.482 427.875 946.347 421.788 946.481C420.069 940.8 420.044 938.072 419.886 932.286Z" fill="#DDD4FF"/>
<path d="M500.553 943.504C502.985 943.736 506.823 943.984 509.09 944.451C507.868 952.614 503.332 959.69 499.321 967.081C498.575 964.586 494.108 955.047 492.79 951.922C496.684 949.343 497.86 947.169 500.553 943.504Z" fill="#DDD4FF"/>
<path d="M451.346 925.105C456.907 924.753 465.265 924.669 470.758 924.82C471.066 928.056 475.09 927.399 478.315 929.801C470.96 929.765 458.778 930.33 451.99 929.606C450.956 928.096 451.363 927.235 451.346 925.105Z" fill="#F0F2FB"/>
<path d="M454.156 917.049C460.521 917.037 479.293 916.474 484.039 918.26L484.547 919.205C484.144 919.424 483.202 919.97 482.81 920.109C471.34 920.243 459.869 920.299 448.398 920.277C450.74 918.173 451.017 917.994 454.156 917.049Z" fill="white"/>
<path d="M446.639 930.515C446.547 928.749 446.609 927.9 446.731 926.166C448.463 924.73 448.296 925.219 451.346 925.106C451.363 927.235 450.955 928.097 451.989 929.607C458.778 930.331 470.959 929.765 478.314 929.802C482.097 929.836 493.757 929.786 496.711 930.388C480.845 930.889 462.645 930.508 446.639 930.515Z" fill="#DDD4FF"/>
<path d="M489.692 943.922L500.552 943.504C497.86 947.169 496.684 949.343 492.79 951.922L489.692 943.922Z" fill="#DDD4FF"/>
<path d="M484.408 932.309C487.78 932.177 489.734 932.207 493.101 932.426C497.079 933.501 493.977 935.52 496.213 934.419L496.891 932.737C500.729 931.958 523.58 932.402 528.878 932.368C553.764 932.206 578.942 932.621 603.824 932.248L604.021 942.898L501.393 942.738C497.607 943.137 492.979 942.874 489.104 942.782C486.81 938.562 485.988 936.787 484.408 932.309Z" fill="url(#paint1_linear_32_4546)"/>
<path d="M484.408 932.309C487.78 932.177 489.734 932.207 493.101 932.426C490.939 939.017 495.258 941.45 501.393 942.738C497.607 943.137 492.979 942.874 489.104 942.782C486.81 938.562 485.988 936.787 484.408 932.309Z" fill="#B4ADFC"/>
<path d="M410.891 974.764C417.825 976.599 424.539 977.982 430.478 981.857C437.816 986.713 443.865 991.755 449.523 998.292C448.518 1004.38 447.98 1011.69 446.335 1017.4C445.416 1020.59 439.128 1024.29 439.37 1027.78C439.456 1029.02 438.762 1029.62 437.919 1030.61C440.911 1032.43 444.229 1034.16 446.218 1036.9C443.893 1038.12 443.001 1038.07 442.025 1039.87C443.775 1046.35 450.73 1055.52 454.944 1060.91C452.359 1061.96 443.544 1061.58 440.084 1061.61C437.771 1062.31 429.123 1062.55 426.956 1061.34C425.879 1057.64 423.753 1054.04 421.579 1050.81L421.46 1040.86L419.285 1041.23C415.367 1036.91 398.421 992.676 393.172 982.614L392.22 982.112C389.66 979.449 391.098 982.706 388.192 979.274C388.317 977.608 388.256 977.714 389.355 976.391C396.697 975.5 403.108 975.985 410.891 974.764Z" fill="white"/>
<path d="M410.891 974.764C417.825 976.599 424.539 977.982 430.478 981.857C426.927 981.843 424.68 981.73 421.149 982.304L420.086 982.21C419.033 983.802 419.31 991.753 419.27 994.187C419.313 1009.49 419.688 1026.03 419.285 1041.23C415.367 1036.91 398.421 992.676 393.172 982.614L392.22 982.112C389.66 979.449 391.098 982.706 388.192 979.274C388.317 977.608 388.256 977.714 389.355 976.391C396.697 975.5 403.108 975.985 410.891 974.764Z" fill="white"/>
<path d="M410.891 974.764C417.825 976.599 424.539 977.982 430.478 981.857C426.927 981.843 424.68 981.73 421.149 982.304L420.086 982.21C419.033 983.802 419.31 991.753 419.27 994.187C418.807 991.095 418.859 985.645 418.792 982.361C410.952 982.811 401.188 982.614 393.172 982.614L392.22 982.112C389.66 979.449 391.098 982.706 388.192 979.274C388.317 977.608 388.256 977.714 389.355 976.391C396.697 975.5 403.108 975.985 410.891 974.764Z" fill="#B4ADFC"/>
<path d="M426.743 1036.46C430.381 1032.41 431.989 1030.13 437.919 1030.61C440.91 1032.43 444.228 1034.16 446.218 1036.9C443.893 1038.12 443.001 1038.07 442.025 1039.87C443.774 1046.35 450.73 1055.52 454.944 1060.91C452.358 1061.96 443.544 1061.58 440.084 1061.61C436.194 1052.97 430.518 1045.76 426.743 1036.46Z" fill="#55348B"/>
<path d="M419.27 994.187C419.31 991.753 419.032 983.802 420.086 982.21L421.149 982.304C422.113 999.041 421.693 1023.81 421.46 1040.86L419.285 1041.23C419.688 1026.03 419.312 1009.49 419.27 994.187Z" fill="#55348B"/>
<path d="M483.809 1001.93C489.941 994.396 495.957 990.05 502.006 981.509C503.818 985.688 505.828 990.103 507.512 994.3C509.771 998.747 511.34 1001.96 513.123 1006.56C512.2 1012.63 514.181 1027.61 514.857 1034.49C515.799 1044.09 516.358 1051.72 516.384 1061.49L511.699 1061.5C503.902 1061.57 496.087 1061.72 488.298 1061.44C484.088 1061.71 480.777 1061.9 476.542 1061.88C472.831 1062.06 470.138 1062.3 466.418 1061.92C463.638 1061.74 459.994 1061.77 457.138 1061.71C457.193 1056.26 457.158 1050.64 458.405 1045.3L465.353 1045.02C468.023 1044.27 472.031 1045.72 474.676 1046.58L474.04 1046.73C476.425 1047.58 476.182 1047.07 479.406 1045.99C479.742 1036.88 481.791 1009.79 483.809 1001.93Z" fill="white"/>
<path d="M465.353 1045.02L468.123 1046.12C469.19 1048.8 467.574 1050.36 466.502 1053.4L474.991 1051.85C479.73 1054.93 483.836 1058.06 488.298 1061.44C484.088 1061.71 480.777 1061.9 476.542 1061.88C472.831 1062.06 470.138 1062.3 466.418 1061.92C463.638 1061.74 459.994 1061.77 457.138 1061.71C457.193 1056.27 457.158 1050.64 458.405 1045.3L465.353 1045.02Z" fill="#55348B"/>
<path d="M466.419 1061.92C466.093 1059.04 465.577 1059.31 466.952 1057.56C471.008 1056.9 473.873 1059.33 476.542 1061.88C472.831 1062.06 470.139 1062.3 466.419 1061.92Z" fill="white"/>
<path d="M507.513 994.3C509.772 998.747 511.34 1001.96 513.124 1006.56C512.2 1012.63 514.182 1027.61 514.857 1034.49C515.799 1044.09 516.358 1051.72 516.385 1061.49L511.7 1061.5C511.655 1052.63 510.663 1041.93 510.198 1032.9C509.55 1020.3 508.963 1006.78 507.513 994.3Z" fill="#F88FB9"/>
<path d="M487.145 943.589C488.001 945.827 489.132 948.534 489.758 950.788C491.413 954.345 493.814 960.199 494.918 963.912C494.695 967.009 494.505 971.514 494.077 974.475C491.993 971.592 489.574 967.596 487.602 964.552C476.679 952.783 471.583 951.377 456.301 944.94C461.079 943.434 481.056 943.644 487.145 943.589Z" fill="white"/>
<path d="M489.759 950.788C491.414 954.344 493.815 960.199 494.919 963.912C494.696 967.008 494.506 971.514 494.078 974.474C491.994 971.592 489.575 967.596 487.603 964.551C489.295 961.436 488.236 955.525 489.759 950.788Z" fill="#DDD4FF"/>
<path d="M446.218 1036.9C448.884 1036.1 448.612 1035.73 450.785 1036.34C451.875 1039.6 448.159 1044.71 449.58 1046.37C452.106 1042.29 455.319 1035.36 457.759 1030.75C458.474 1036.01 459.273 1040.03 458.405 1045.3C457.158 1050.64 457.193 1056.27 457.138 1061.71L454.944 1060.91C450.73 1055.52 443.775 1046.35 442.025 1039.87C443.001 1038.07 443.893 1038.12 446.218 1036.9Z" fill="white"/>
<path d="M494.919 963.912C497.182 969.725 499.437 975.827 502.006 981.509C495.957 990.05 489.941 994.396 483.81 1001.93C483.819 998.692 483.825 992.014 484.79 989.118C486.453 984.127 492.335 979.722 494.078 974.475C494.506 971.514 494.696 967.008 494.919 963.912Z" fill="#B4ADFC"/>
<path d="M561.467 829.331L563.353 829.603C562.983 850.133 562.859 870.664 562.982 891.196C563.064 902.75 563.824 919.012 562.801 929.993C574.728 914.714 595.529 905.903 613.876 918.627C621.172 923.641 625.922 931.173 627.027 939.478C627.964 946.911 625.247 952.977 620.325 958.81C615.907 964.047 602.342 972.258 595.018 971.166C594.593 970.491 594.422 970.397 594.25 969.67C594.951 962.013 596.419 954.274 596.621 946.595L597.438 944.991C599.864 944.04 603.035 944.409 605.762 944.483L605.821 930.725C596.365 930.187 585.183 930.449 575.568 930.458L523.827 930.607L523.817 921.705C527.959 921.677 530.489 921.582 534.612 921.167C521.767 919.631 497.765 920.963 482.81 920.109C483.201 919.97 484.144 919.424 484.547 919.206L484.039 918.26C479.293 916.474 460.52 917.037 454.155 917.05C453.013 914.426 451.851 914.906 448.964 914.325C451.299 914.384 452.507 914.655 454.471 913.526C455.794 911.512 455.299 908.891 455.193 906.437C456.228 906.211 457.266 906.002 458.309 905.807L457.062 905.531C454.88 903.225 455.267 895.279 455.192 891.934L460.012 887.395C459.501 878.657 459.846 864.229 455.172 856.873C451.074 850.424 444.283 849.168 437.131 847.42C436.662 846.078 436.451 843.226 436.277 841.686L438.021 839.468C445.57 838.989 466.504 839.718 475.165 839.737C503.827 839.674 532.488 839.831 561.146 840.209L561.467 829.331Z" fill="#F0F2FB"/>
<path d="M460.012 887.395C461.369 886.49 462.768 885.641 464.206 884.85C469.663 881.892 487.658 872.89 493.468 874.309L494.124 875.638C495.498 875.033 538.104 875.667 543.596 875.652C546.443 876.127 546.897 876.063 549.206 877.513C550.492 879.588 549.989 881.184 549.169 883.509C547.097 889.369 538.074 917.691 535.148 920.852L534.613 921.167C521.767 919.631 497.766 920.963 482.81 920.109C483.202 919.97 484.144 919.424 484.547 919.206L484.039 918.26C479.293 916.474 460.521 917.038 454.156 917.05C453.013 914.426 451.852 914.906 448.964 914.325C451.3 914.384 452.507 914.655 454.472 913.526C455.795 911.512 455.3 908.891 455.194 906.437C456.229 906.211 457.267 906.002 458.31 905.807L457.062 905.531C454.88 903.225 455.268 895.279 455.192 891.934L460.012 887.395Z" fill="#B4ADFC"/>
<path d="M460.012 887.395C461.368 886.49 462.767 885.641 464.205 884.85C469.663 881.892 487.657 872.89 493.468 874.309L494.123 875.638C492.113 885.212 489.923 894.979 488.544 904.629C478.62 904.846 468.139 904.92 458.309 905.807L457.061 905.531C454.88 903.225 455.267 895.279 455.191 891.934L460.012 887.395Z" fill="white"/>
<path d="M543.596 875.652C546.442 876.126 546.896 876.063 549.206 877.513C550.492 879.588 549.989 881.184 549.168 883.508C547.097 889.369 538.073 917.691 535.147 920.852C532.806 919.703 529.999 919.975 527.271 919.95C529.126 904.549 543.414 883.349 543.596 875.652Z" fill="#DDD4FF"/>
<path d="M531.229 893.808L531.974 894.629C532.112 898.344 528.121 903.791 526.031 907.064L525.163 906.39C524.214 903.014 528.493 896.182 531.229 893.808Z" fill="#DDD4FF"/>
<path d="M595.017 945.672L596.19 944.446L596.621 946.595C596.419 954.274 594.952 962.013 594.251 969.671C592.831 977.365 591.895 986.504 591.099 994.326C589.171 1013.24 585.435 1033.03 584.308 1051.91C584.104 1053.53 583.955 1054.13 584.039 1055.78L583.711 1056.74C583.18 1060.01 582.122 1063.26 581.194 1066.46L580.69 1066.77C580.446 1064.43 580.433 1063.66 580.527 1061.3L581.299 1055.7L581.504 1052.43C583.53 1026.47 587.76 997.937 591.156 971.922C592.433 963.428 593.331 954.017 595.017 945.672Z" fill="#55348B"/>
<path d="M731.555 968.798C722.657 966.299 721.658 947.787 722.485 940.246C724.164 924.951 743.253 903.486 761.828 906.435L761.372 907.07C750.162 908.684 740.101 914.294 733.373 922.682C726.299 931.507 723.353 942.56 725.187 953.388C726.194 959.143 728.311 963.816 731.555 968.798Z" fill="#EE72AD"/>
<path d="M713.103 792.868C722.489 803.552 723.067 817.928 714.661 829.268C712.428 829.397 713.258 829.717 711.607 828.917C712.551 827.148 713.562 826.436 714.377 824.926C721.456 811.808 717.038 804.353 713.103 792.868Z" fill="#EE72AD"/>
<path d="M940.518 606.751C970.725 606.438 1000.99 607.144 1031.09 606.752C1033.73 610.584 1032.49 648.128 1032.58 655.327C1041.98 661.463 1043.6 674.264 1045.85 684.046C1052.18 711.606 1053.46 735.618 1077.52 755.719C1077.8 757.919 1069.72 778.313 1068.2 780.246C1065.04 789.142 1061.79 799.971 1059.15 809.104C1049.49 816.565 1041.12 812.57 1030.39 809.329L1029.66 809.574C1028.59 812.368 1025.04 818.819 1023.19 821.218C1025.4 824.204 1030.23 828.146 1033.25 830.726C1032.04 832.905 1031.34 835.686 1031.02 838.124C1029.2 837.102 1027.83 836.792 1025.7 836.766C999.07 836.444 972.4 836.746 945.763 836.946C899.421 837.295 852.903 836.649 806.581 837.547C806.404 829.787 807.084 822.14 807.263 814.38C807.456 800.48 807.397 786.579 807.088 772.682C807.202 768.138 806.546 757.891 806.068 753.325C793.332 760.515 788.022 762.801 772.645 761.987C771.872 761.946 771.723 761.994 770.851 762.067C748.986 756.486 736.601 732.133 746.516 712.767C751.092 703.676 759.487 696.678 769.781 693.373C782.749 689.257 792.788 692.12 804.282 697.347C805.913 669.032 803.847 637.421 804.906 608.838C806.506 607.452 807.366 607.835 810.102 607.521L812.056 606.757C829.81 608.312 853.818 606.445 872.158 607.036C877.379 607.205 888.614 606.685 893.347 607.417C877.909 616.942 872.861 633.455 882.342 649.03C883.586 651.072 885.246 652.752 887.561 653.64C889.2 655.412 894.363 661.282 896.162 662.27C906.155 667.763 916.873 670.662 928.388 668.343C938.169 666.391 946.665 660.871 951.927 653.051C963.399 636.065 959.678 617.466 940.518 606.751Z" fill="#DDD4FF"/>
<path d="M1031.09 606.752C1033.73 610.584 1032.49 648.128 1032.58 655.327C1041.98 661.463 1043.6 674.264 1045.85 684.046C1052.18 711.606 1053.46 735.618 1077.52 755.719C1077.81 757.919 1069.72 778.313 1068.2 780.246C1051.78 772.602 1041.95 753.156 1032.98 740.734C1032.36 741.926 1032.57 743.846 1032.55 745.327L1031.18 745.802C1031.17 741.231 1031.71 736.052 1031.75 731.266L1031.81 673.936C1031.77 662.821 1028.72 613.074 1031.09 606.752Z" fill="#B4ADFC"/>
<path d="M1032.55 745.327C1032.56 743.846 1032.36 741.927 1032.98 740.735C1041.95 753.156 1051.78 772.603 1068.2 780.247C1065.04 789.142 1061.79 799.971 1059.15 809.104C1049.49 816.565 1041.12 812.57 1030.39 809.33C1031.48 804.232 1031.98 791.516 1031.79 786.338C1030.62 782.671 1031.72 779.858 1030.48 775.442C1029.91 769.167 1030.3 751.818 1031.18 745.802L1032.55 745.327Z" fill="#F0F2FB"/>
<path d="M1031.18 745.802L1032.55 745.326C1032.39 758.894 1032.4 772.808 1031.79 786.337C1030.62 782.67 1031.72 779.857 1030.48 775.442C1029.91 769.166 1030.3 751.817 1031.18 745.802Z" fill="#B4ADFC"/>
<path d="M1017.86 801.58C1016.69 799.087 1013.94 794.039 1014.77 791.795L1015.95 791.644C1020.08 794.08 1024.1 802.727 1027.77 807.348L1028.31 808.012L1029.66 809.574C1028.59 812.368 1025.04 818.819 1023.19 821.218C1018.28 815.516 1004.83 818.599 1001.67 809.391C1001.2 808.019 1000.5 807.145 1001.17 805.885L1003.68 806.217L1004.11 805.646L1001.46 802.151L1001.69 801.002L1004.04 800.598C1004.12 799.156 1004.05 799.18 1003.58 797.815C1006.91 796.808 1014.22 800.204 1017.86 801.58Z" fill="#CE85A1"/>
<path d="M810.103 607.521L812.057 606.757C812.746 615.927 813.565 702.668 811.349 705.297C810.456 699.709 810.733 692.791 810.59 687.08C809.926 660.609 810.702 633.979 810.103 607.521Z" fill="white"/>
<path d="M1028.31 808.012C1028.88 799.306 1029.5 783.176 1030.48 775.442C1031.72 779.857 1030.62 782.67 1031.79 786.337C1031.98 791.516 1031.49 804.231 1030.39 809.329L1029.66 809.574L1028.31 808.012Z" fill="#DDD4FF"/>
<path d="M811.283 750.065L811.842 750.802C812.705 759.488 813.367 832.985 811.237 837.448C808.553 833.378 809.035 757.826 811.283 750.065Z" fill="white"/>
<path d="M653.87 383.118C639.189 370.485 638.766 357.509 650.035 342.639C659.041 330.755 672.838 324.362 688.825 326.782C692.575 327.349 699.246 329.131 702.277 331.237C704.436 334.606 708.575 336.215 711.101 338.938C718.134 346.515 724.814 357.317 722.635 367.585C721.32 375.526 713.011 380.776 713.601 382.308L715.43 381.928C720.205 383.042 729.457 382.331 733.921 382.539C744.902 383.048 793.642 380.745 801.017 383.193C799.006 386.724 798.965 462.656 799.344 471.025C792.989 465.983 790.226 464.91 782.617 461.467C771.432 458.962 761.338 459.484 751.21 465.114C741.99 470.311 735.444 478.702 733.049 488.391C730.874 497.168 732.631 506.381 737.929 513.956C741.536 519.14 747.915 524.602 753.789 527.537C756.764 528.042 759.716 530.739 766.415 530.986C781.448 531.541 789.655 526.061 800.1 517.657L800.256 599.472C772.22 599.635 743.992 599.268 716.017 599.57C718.224 602.884 720.629 606.26 722.363 609.789C729.398 628.67 717.794 647.087 697.414 652.573C692.878 653.795 684.849 653.902 679.94 654.209C678.258 654.06 676.263 653.392 674.623 652.856C664.319 649.485 655.943 642.424 651.404 633.285C648.311 627.049 646.635 617.716 649.191 611.054C650.251 608.29 652.348 605.68 653.334 603.21L653.609 602.499C639.188 602.67 624.766 602.741 610.344 602.711C602.983 602.722 591.463 603.025 584.47 602.439C582.962 600.928 583.44 600.981 583.115 598.443C583.172 579.08 583.059 559.718 582.774 540.357C584.141 539.06 584.196 539.133 584.974 537.51C588.169 533.894 589.384 532.377 591.935 528.373L582.853 524.611C583.883 520.846 584.744 519.299 587.062 516.115L584.203 514.194C580.292 512.041 576.435 509.803 572.638 507.482C565.538 503.629 558.905 499.093 552.85 493.948C549.486 490.627 544.322 485.198 540.637 482.522C542.808 477.663 549.583 469.604 552.466 464.085C557.703 454.06 559.712 445.101 563.298 434.9L563.434 434.611C569.316 430.717 567.522 416.048 564.256 410.619C564.321 410.112 564.978 408.903 565.235 408.361C569.623 400.972 574.9 389.733 569.624 382.095L577.302 382.06C600.608 382.261 631.27 381.723 653.87 383.118Z" fill="#B4ADFC"/>
<path d="M563.298 434.9C566.17 436.064 576.722 445.691 577.654 448.316C578.699 452.878 579.465 456.2 579.976 460.818L582.21 461.397C592.344 460.646 599.679 459.793 609.703 462.111L610.483 462.552C612.742 463.804 615.414 464.502 617.727 465.744C646.052 480.939 636.834 525.393 601.89 525.978L591.935 528.373L582.853 524.611C583.883 520.846 584.744 519.299 587.062 516.115L584.203 514.194C580.292 512.041 576.435 509.803 572.638 507.482C565.538 503.629 558.905 499.093 552.85 493.948C549.486 490.627 544.322 485.198 540.637 482.522C542.808 477.663 549.583 469.604 552.466 464.085C557.703 454.06 559.712 445.101 563.298 434.9Z" fill="#E0EEFC"/>
<path d="M563.298 434.9C566.17 436.064 576.722 445.691 577.654 448.316C578.699 452.878 579.465 456.2 579.976 460.818L582.21 461.397C580.998 462.262 580.733 462.065 580.742 463.289C580.803 470.853 582.044 479.869 582.756 487.344C583.513 496.28 583.995 505.233 584.203 514.194C580.292 512.041 576.435 509.803 572.638 507.482C565.538 503.629 558.905 499.093 552.85 493.948C549.486 490.627 544.322 485.198 540.637 482.522C542.808 477.663 549.583 469.604 552.466 464.085C557.703 454.06 559.712 445.101 563.298 434.9Z" fill="#DDD4FF"/>
<path d="M567.783 468.312C569.578 476.02 575.249 501.337 572.637 507.482C565.537 503.629 558.904 499.092 552.85 493.948C558.58 487.89 562.978 475.985 567.783 468.312Z" fill="#E0EEFC"/>
<path d="M591.819 513.706C591.36 516.848 590.774 518.418 592.955 520.997C593.456 521.585 593.975 522.16 594.509 522.723C597.399 523.771 599.33 524.316 601.889 525.978L591.934 528.373L582.853 524.611C583.882 520.846 584.744 519.3 587.061 516.115L591.819 513.706Z" fill="#F7AD9B"/>
<path d="M593.293 512.887C597.016 511.555 598.319 510.888 601.96 512.348C603.64 514.288 603.191 513.213 603.356 515.687C602.001 518.727 600.624 519.623 597.35 520.927L594.509 522.723C593.975 522.16 593.457 521.585 592.955 520.998C590.774 518.419 591.36 516.848 591.819 513.706L593.293 512.887Z" fill="#F8B7B5"/>
<path d="M593.293 512.887L596.237 513.65L596.973 514.9C596.404 516.503 596.131 517.09 595.334 518.614L595.701 520.114L597.35 520.927L594.509 522.723C593.975 522.16 593.457 521.585 592.955 520.997C590.774 518.419 591.36 516.848 591.819 513.706L593.293 512.887Z" fill="#FBC0C4"/>
<path d="M569.623 382.095L577.301 382.06L577.406 428.872C577.43 434.844 577.846 442.61 577.653 448.316C576.721 445.691 566.169 436.064 563.297 434.9L563.434 434.611C569.316 430.717 567.521 416.048 564.255 410.619C564.32 410.112 564.977 408.903 565.235 408.362C569.622 400.972 574.899 389.733 569.623 382.095Z" fill="#DDD4FF"/>
<path d="M753.789 527.537C748.787 527.263 742.679 523.235 739.327 519.829C724.214 504.47 725.504 479.588 742.649 466.029C750.731 459.64 762.612 457.609 772.976 458.552C775.897 458.818 780.6 459.259 782.617 461.468C771.432 458.962 761.338 459.485 751.21 465.114C741.991 470.311 735.444 478.702 733.05 488.391C730.875 497.169 732.632 506.381 737.93 513.957C741.537 519.14 747.915 524.603 753.789 527.537Z" fill="#A884F7"/>
<path d="M583.114 598.443C592.986 598.979 652.462 598.073 655.805 599.932L655.635 601.147L653.608 602.499C639.188 602.67 624.765 602.741 610.343 602.711C602.983 602.722 591.462 603.025 584.469 602.439C582.962 600.928 583.439 600.981 583.114 598.443Z" fill="#A884F7"/>
<path d="M579.976 460.818C586.269 457.332 604.424 457.541 609.702 462.111C599.678 459.793 592.343 460.646 582.209 461.397L579.976 460.818Z" fill="#A884F7"/>
<path d="M426.097 609.665L426.457 609.22L425.447 608.487L426.695 608.003C427.8 608.887 428.488 609.483 430.003 609.464C439.68 609.337 449.43 608.645 459.12 608.632L540.902 608.833C543.291 608.827 561.619 608.27 562.439 608.586L559.213 609.515L558.641 701.369C552.057 696.82 549.141 695.48 541.465 692.617L541.331 692.284C539.406 691.114 538.808 691.291 536.408 690.897L531.275 692.198C512.639 693.609 498.991 704.914 494.667 721.572L493.577 721.961C493 724.297 492.381 726.653 491.935 729.01L491.22 728.749C491.48 736.264 500.27 755.322 508.697 756.977L509.491 756.673C527.165 766.625 540.871 768.725 557.989 755.796C559.543 754.627 560.426 753.439 561.884 753.556C561.933 768.465 561.885 783.373 561.741 798.282C561.72 807.951 562.055 819.809 561.467 829.331L561.146 840.209C532.488 839.831 503.827 839.674 475.166 839.737C466.505 839.718 445.57 838.989 438.021 839.468C439.907 838.266 440.722 837.519 442.999 837.215C443.865 836.016 444.559 834.844 445.333 833.596L443.322 833.408C437.417 834.048 435.234 837.498 430.523 836.022C428.32 834.495 428.102 833.088 427.075 830.592L425.096 829.635C423.088 830.85 424.287 831.158 422.354 832.81C422.007 835.275 422.086 836.883 420.104 838.621L419.575 838.567C417.701 837.837 415.827 836.902 414.005 836.043C413.577 836.416 413.148 836.789 412.719 837.161C391.348 838.06 368.744 837.347 347.385 837.629C341.581 837.705 332.063 837.302 328.906 838.467C329.928 825.13 328.985 799.483 328.841 785.345C323.442 785.427 317.989 785.423 312.624 785.937C315.917 776.962 318.088 768.797 318.731 759.358C316.701 758.083 305.33 754.554 301.54 753.082C309.139 746.211 318.367 736.348 325.672 728.863L329.226 724.557C336.063 716.318 338.362 712.428 329.139 704.918C329.076 699.528 330.039 693.682 329.775 687.949C329.495 681.885 329.845 675.133 329.875 669.006L330.054 609.488C358.387 609.151 392.2 609.341 420.51 609.934L426.097 609.665Z" fill="#DDD4FF"/>
<path d="M426.097 609.665L426.457 609.22L425.447 608.487L426.696 608.003C427.8 608.887 428.489 609.483 430.003 609.464C439.681 609.337 449.43 608.645 459.121 608.632L540.902 608.833C543.291 608.827 561.619 608.27 562.439 608.586L559.213 609.515C528.298 609.516 492.191 610.49 461.874 609.332C472.526 616.82 479.451 623.438 481.625 636.49C483.114 645.428 480.332 655.405 474.238 662.549C468.063 669.914 458.899 674.663 448.842 675.714C436.688 676.955 428.059 673.112 418.667 666.477C397.611 647.318 403.771 624.87 426.097 609.665Z" fill="#F0F2FB"/>
<path d="M392.931 735.425C398.643 732.888 402.42 729.124 407.325 725.464L408.33 725.851C409.34 728.971 408.106 733.479 406.516 736.403C402.72 744.181 394.025 743.162 387.907 748.537C384.208 751.787 381.089 755.41 377.559 758.863C362.825 773.276 350.721 783.61 328.84 785.345C323.442 785.427 317.988 785.423 312.624 785.936C315.917 776.961 318.088 768.797 318.73 759.358C320.246 759.914 324.822 761.711 326.146 762.023L328.663 763.326C343.872 763.916 351.464 757.717 363.455 750.059C370.346 745.658 377.255 741.094 383.674 736.139C388.824 732.165 388.513 721.003 398.051 727.399C399.502 730.378 395.177 732.556 392.931 735.425Z" fill="#FBC0C4"/>
<path d="M428.299 800.195C441.094 799.61 451.4 801.584 452.3 815.93C452.787 823.681 450.218 830.288 445.313 836.661L442.999 837.215C443.865 836.016 444.559 834.844 445.332 833.596L443.322 833.408C437.417 834.048 435.234 837.498 430.523 836.022C428.32 834.495 428.102 833.088 427.075 830.592L425.096 829.635C423.088 830.85 424.287 831.158 422.354 832.81C422.007 835.275 422.086 836.883 420.103 838.621L419.575 838.567C417.701 837.837 415.827 836.902 414.005 836.043C410.005 825.646 417.416 805.524 428.299 800.195Z" fill="#55348B"/>
<path d="M444.736 810.309C446.244 814.85 446.978 816.92 447.578 821.591C448.396 826.076 446.995 829.356 445.332 833.596L443.321 833.408C437.417 834.048 435.234 837.498 430.522 836.022C428.319 834.495 428.102 833.088 427.074 830.592C425.52 828.252 424.585 827.324 424.305 824.693L424.999 822.082L425.074 815.997C433.954 816.036 437.104 814.118 444.736 810.309Z" fill="#FED7D6"/>
<path d="M424.305 824.693L424.999 822.082C427.986 824.22 428.824 824.669 432.237 826.195L431.864 827.022C431.057 828.844 430.221 829.937 430.781 831.715C433.049 832.954 437.34 831.981 439.745 831.168L441.767 830.946C443.356 832.265 442.85 831.475 443.321 833.408C437.417 834.048 435.234 837.498 430.522 836.022C428.319 834.495 428.102 833.087 427.074 830.591C425.52 828.251 424.585 827.324 424.305 824.693Z" fill="#F0F2FB"/>
<path d="M447.578 821.591C448.397 826.076 446.996 829.356 445.333 833.596L443.322 833.408C442.851 831.475 443.357 832.265 441.768 830.946L439.746 831.168C439.268 829.786 439.324 829.545 439.237 828.076C440.525 827.06 440.695 827.074 441.472 825.724C440.864 824.906 440.511 824.377 439.987 823.512L440.882 822.53C443.203 822.138 444.271 822.283 446.586 822.403L447.578 821.591Z" fill="#FBC0C4"/>
<path d="M424.305 824.693C424.585 827.324 425.521 828.251 427.075 830.591L425.096 829.635C423.088 830.85 424.287 831.158 422.354 832.809C420.076 830.662 415.977 827.923 418.518 825.126C420.869 824.511 421.392 824.843 423.575 825.545L424.305 824.693Z" fill="#FED7D6"/>
<path d="M557.989 755.796C559.543 754.627 560.426 753.439 561.884 753.556C561.933 768.465 561.886 783.374 561.741 798.282C561.72 807.951 562.055 819.809 561.468 829.331L561.146 840.209C532.488 839.831 503.827 839.674 475.166 839.737C466.505 839.718 445.57 838.989 438.021 839.468C439.907 838.266 440.722 837.519 443 837.215L445.313 836.661C450.296 838.523 544.318 837.868 557.458 837.887L557.989 755.796Z" fill="#B4ADFC"/>
<path d="M325.672 728.863C327.928 735.518 326.083 753.563 326.147 762.023C324.822 761.711 320.246 759.914 318.731 759.358C316.701 758.083 305.33 754.554 301.54 753.082C309.139 746.211 318.367 736.348 325.672 728.863Z" fill="#DDD4FF"/>
<path d="M420.509 609.934L426.097 609.665C403.77 624.87 397.611 647.318 418.666 666.477L417.332 666.839C414.894 666.11 411.929 663.197 410.507 661.267C397.144 643.134 401.158 622.406 420.509 609.934Z" fill="#B4ADFC"/>
<path d="M491.22 728.749C491.138 727.793 491.075 727.048 491.071 726.091C491.089 716.619 495.262 707.554 502.649 700.943C512.545 692.196 523.344 690.507 536.408 690.897L531.275 692.197C512.639 693.609 498.99 704.914 494.667 721.572L493.577 721.961C493 724.297 492.381 726.653 491.935 729.01L491.22 728.749Z" fill="#A884F7"/>
<path d="M325.672 728.862L329.226 724.556C329.096 737.356 329.142 750.564 328.663 763.326L326.147 762.023C326.083 753.563 327.928 735.518 325.672 728.862Z" fill="#F0F2FB"/>
<path d="M298.372 784.275C302.046 785.093 309.591 787.379 312.624 785.936C317.989 785.423 323.442 785.427 328.841 785.345C328.986 799.483 329.928 825.13 328.906 838.467C332.063 837.302 341.582 837.705 347.385 837.628C368.744 837.347 391.348 838.06 412.719 837.16C413.148 836.789 413.577 836.416 414.005 836.043C415.827 836.902 417.701 837.837 419.575 838.567L420.104 838.62C422.086 836.882 422.007 835.275 422.354 832.809C424.287 831.158 423.088 830.85 425.096 829.635L427.075 830.591C428.102 833.087 428.32 834.495 430.523 836.022C435.234 837.498 437.418 834.048 443.322 833.408L445.333 833.596C444.559 834.844 443.865 836.016 443 837.215C440.722 837.519 439.907 838.266 438.021 839.467L436.278 841.686C436.451 843.226 436.662 846.078 437.131 847.42C444.283 849.167 451.074 850.424 455.172 856.872C459.846 864.229 459.501 878.656 460.012 887.395L455.192 891.933C455.268 895.279 454.88 903.225 457.062 905.531L458.31 905.806C457.266 906.001 456.229 906.211 455.193 906.437C455.3 908.891 455.795 911.511 454.471 913.526C452.507 914.655 451.3 914.384 448.964 914.324C451.852 914.906 453.013 914.425 454.156 917.049C451.017 917.994 450.739 918.173 448.398 920.277C423.366 921.683 401.89 916.17 377.894 921.146C377.31 921.266 376.805 921.281 376.224 921.315L379.568 922.239L382.13 922.503C385.12 925.895 386.515 926.472 386.924 930.968L384.134 931.109C386.407 931.587 390.691 932.021 391.91 933.275C391.895 936.947 389.772 951.92 388.742 955.491C387.772 962.417 386.865 968.804 386.35 975.785L386.581 975.616L389.355 976.39C388.256 977.714 388.317 977.608 388.192 979.274C391.097 982.706 389.66 979.448 392.22 982.111L387.88 982.513L387.312 982.641C378.022 1009.34 369.66 1035.77 360.613 1062.39C346.126 1062.53 323.036 1063.23 309.096 1062.43C303.427 1060.06 296.407 1055.86 291.21 1052.67C285.662 1052.2 280.143 1051.43 274.6 1051.14C273.325 1053.22 271.597 1055.85 270.572 1057.98C270.809 1059.33 271.022 1060.9 271.39 1062.2C269.032 1063.24 237.942 1062.84 232.36 1063.11C226.538 1055.43 222.43 1051.09 216.479 1042.61C211.67 1041.24 206.049 1038.87 203.348 1034.85C203.598 1034.24 205.536 1031.38 206.012 1030.65L201.275 1027.87C205.571 1018.05 212.766 998.197 215.424 988.289L216.005 986.528C221.978 972.172 226.435 957.357 233.269 943.165C236.819 935.473 237.212 873.361 237.808 859.105C245.333 862.29 248.315 863.238 256.467 864.525C273.144 866.638 286.561 866.124 301.575 858.782C301.96 858.403 303.66 856.45 303.583 856.159C296.867 830.667 291.816 810.921 298.372 784.275Z" fill="#F0F2FB"/>
<path d="M256.467 864.525C273.144 866.639 286.561 866.124 301.575 858.782C308.777 880.482 320.379 930.762 319.502 952.382C318.782 970.103 305.689 1030.6 298.364 1047.3C295.889 1049.1 293.584 1050.75 291.21 1052.67C285.662 1052.2 280.143 1051.43 274.6 1051.14C273.325 1053.22 271.597 1055.85 270.572 1057.98C270.809 1059.33 271.022 1060.9 271.39 1062.2C269.032 1063.24 237.942 1062.84 232.36 1063.11C226.538 1055.43 222.43 1051.09 216.479 1042.61C211.67 1041.24 206.049 1038.87 203.348 1034.85C203.598 1034.24 205.536 1031.38 206.012 1030.65L201.275 1027.87C205.571 1018.05 212.766 998.198 215.424 988.289L216.005 986.528C221.978 972.172 226.435 957.357 233.269 943.165C236.819 935.474 237.212 873.361 237.808 859.105C245.333 862.29 248.315 863.238 256.467 864.525Z" fill="#B4ADFC"/>
<path d="M272.892 912.025L273.772 911.442C276.753 915.318 286.538 943.018 286.914 947.833C288.58 969.283 283.236 993.063 279.86 1014.29C278.973 1019.86 275.631 1036.12 273.698 1040.73L273.158 1041.8L272.12 1041.51C263.037 1031.63 248.42 1019.2 238.147 1008.95L238.331 1008.31C243.583 995.952 248.367 984.593 252.855 971.985C259.641 955.55 265.864 938.923 271.513 922.128C271.517 921.219 272.728 914.239 272.892 912.025Z" fill="#DDD4FF"/>
<path d="M272.892 912.025L273.772 911.442C276.753 915.318 286.538 943.018 286.914 947.833C288.58 969.283 283.236 993.063 279.86 1014.29C278.973 1019.86 275.631 1036.12 273.698 1040.73L273.158 1041.8L272.12 1041.51C263.037 1031.63 248.42 1019.2 238.147 1008.95L238.331 1008.31C241.16 1009.03 267.854 1034.85 271.852 1038.88C272.053 1035.43 272.217 1032.14 272.676 1028.7C275.824 1014.76 277.257 999.941 279.703 985.878C283.544 963.799 277.525 943.516 271.513 922.128C271.517 921.219 272.728 914.239 272.892 912.025Z" fill="#F0F2FB"/>
<path d="M238.148 1008.95C248.42 1019.2 263.037 1031.63 272.12 1041.51L273.158 1041.8C273.073 1045.25 272.518 1048.37 274.601 1051.14C273.325 1053.22 271.597 1055.85 270.573 1057.98C270.809 1059.33 271.023 1060.9 271.39 1062.2C269.032 1063.24 237.942 1062.84 232.36 1063.11C226.538 1055.43 222.43 1051.09 216.479 1042.61C218.438 1040.24 219.662 1040.08 222.775 1038.85L224.884 1039.71C227.115 1037.34 235.24 1014.34 238.148 1008.95Z" fill="#DDD4FF"/>
<path d="M222.775 1038.85L224.884 1039.71C227.123 1042.42 231.91 1045.09 235.183 1046.79C246.753 1052.83 256.857 1058.51 270.573 1057.98C270.809 1059.33 271.023 1060.9 271.39 1062.2C269.032 1063.24 237.942 1062.84 232.36 1063.11C226.538 1055.43 222.43 1051.09 216.479 1042.61C218.438 1040.24 219.662 1040.08 222.775 1038.85Z" fill="#F0F2FB"/>
<path d="M273.697 1040.73C281.647 1043.16 288.99 1044.12 298.364 1047.3C295.889 1049.1 293.583 1050.75 291.209 1052.67C285.662 1052.2 280.142 1051.43 274.6 1051.14C272.518 1048.37 273.072 1045.25 273.157 1041.8L273.697 1040.73Z" fill="#F4CAE4"/>
<path d="M206.012 1030.65C209.943 1032.27 219.443 1036.54 222.775 1038.85C219.662 1040.08 218.438 1040.24 216.479 1042.61C211.67 1041.24 206.049 1038.87 203.349 1034.85C203.598 1034.24 205.536 1031.38 206.012 1030.65Z" fill="#F4CAE4"/>
<path d="M422.355 832.81C424.287 831.158 423.089 830.85 425.097 829.635L427.075 830.591C428.103 833.087 428.32 834.495 430.523 836.022C435.235 837.498 437.418 834.048 443.322 833.408L445.333 833.596C444.559 834.844 443.865 836.016 443 837.215C440.723 837.519 439.908 838.266 438.022 839.468L436.278 841.686C436.452 843.226 436.663 846.078 437.131 847.42C444.283 849.168 451.074 850.424 455.173 856.873C459.847 864.229 459.502 878.657 460.013 887.395L455.192 891.934C455.268 895.279 454.881 903.225 457.062 905.531L458.31 905.807C457.267 906.002 456.229 906.211 455.194 906.437C455.3 908.891 455.795 911.512 454.472 913.526C452.508 914.655 451.3 914.384 448.964 914.325C451.852 914.906 453.013 914.426 454.156 917.05C451.017 917.994 450.74 918.173 448.399 920.277C423.366 921.683 401.89 916.17 377.894 921.146C377.31 921.266 376.806 921.281 376.224 921.315C372.86 919.444 369.506 908.471 368.045 904.687C364.365 894.97 360.579 885.287 356.688 875.638C370.815 867.176 373.323 867.276 390.004 866.412C390.422 857.587 405.481 843.26 416.594 847.638L417.561 845.706C419.093 842.574 419.555 841.931 420.104 838.621C422.087 836.883 422.007 835.275 422.355 832.81Z" fill="#DDD4FF"/>
<path d="M390.004 866.412C390.433 869.955 385.626 886.905 384.747 892.103C383.7 898.303 383.059 901.261 382.803 907.941L398.948 907.9C399.171 900.964 399.229 896.62 401.747 889.91C403.276 885.84 405.56 881.317 406.444 877.22L406.9 877.73C405.261 882.148 402.587 901.609 402.085 906.654C409.062 907.278 414.868 907.73 421.881 908.02L420.892 909.505C424.111 912.88 443.253 913.877 448.964 914.324C451.852 914.906 453.013 914.426 454.156 917.049C451.017 917.994 450.74 918.173 448.399 920.277C423.366 921.683 401.89 916.17 377.894 921.146C377.31 921.266 376.806 921.281 376.224 921.315C372.86 919.444 369.506 908.471 368.045 904.687C364.365 894.969 360.579 885.286 356.688 875.638C370.815 867.176 373.323 867.276 390.004 866.412Z" fill="#DDD4FF"/>
<path d="M422.354 832.81C424.287 831.158 423.088 830.85 425.096 829.635L427.075 830.591C428.102 833.087 428.32 834.495 430.523 836.022C435.234 837.498 437.417 834.048 443.322 833.408L445.332 833.596C444.559 834.844 443.865 836.016 442.999 837.215C440.722 837.519 439.907 838.266 438.021 839.468L436.277 841.686C436.058 845.421 436.713 844.979 434.718 847.531C429.477 850.252 423.764 845.486 417.561 845.706C419.092 842.574 419.554 841.931 420.103 838.621C422.086 836.883 422.006 835.275 422.354 832.81Z" fill="#F8B7B5"/>
<path d="M421.88 908.02C431.665 907.856 445.784 907.642 455.193 906.437C455.299 908.892 455.794 911.512 454.471 913.527C452.507 914.655 451.299 914.385 448.963 914.325C443.253 913.878 424.11 912.881 420.892 909.506L421.88 908.02Z" fill="url(#paint2_linear_32_4546)"/>
<path d="M436.277 841.686C436.451 843.227 436.662 846.078 437.13 847.42C437.87 852.879 436.085 857.97 434.669 863.303C428.678 858.318 422.045 853.058 416.593 847.638L417.56 845.707C423.763 845.486 429.477 850.253 434.718 847.531C436.712 844.979 436.058 845.422 436.277 841.686Z" fill="#FBC0C4"/>
<path d="M349.517 881.934C350.824 879.086 353.945 877.27 356.687 875.638C360.578 885.287 364.365 894.97 368.045 904.687C369.506 908.471 372.86 919.445 376.224 921.315L379.569 922.239L382.13 922.504C385.12 925.896 386.515 926.472 386.924 930.968L384.134 931.109C386.407 931.587 390.691 932.021 391.91 933.275C391.895 936.947 389.772 951.921 388.742 955.492C387.772 962.418 386.865 968.804 386.35 975.785L383.2 976.324C382.742 976.18 382.283 976.036 381.823 975.892C372.898 951.528 365.953 925.128 356.76 900.878C354.305 894.402 352.036 885.226 349.517 881.934Z" fill="#DDD4FF"/>
<path d="M379.569 922.239L382.13 922.504C385.12 925.895 386.515 926.472 386.924 930.968L384.134 931.109C386.407 931.587 390.691 932.021 391.91 933.275C391.895 936.947 389.772 951.92 388.742 955.491L388.345 954.798C384.226 947.484 376.675 931.972 379.464 924.037L379.569 922.239Z" fill="#DDD4FF"/>
<path d="M379.568 922.239L382.129 922.504C385.119 925.895 386.514 926.472 386.923 930.968L384.133 931.109C382.429 931.101 382.501 931.105 380.88 930.615C379.289 928.907 379.568 926.411 379.463 924.037L379.568 922.239Z" fill="white"/>
<path d="M349.516 881.934C352.035 885.226 354.304 894.402 356.76 900.878C365.953 925.128 372.898 951.528 381.823 975.892C382.282 976.036 382.741 976.18 383.199 976.324L386.35 975.785L386.581 975.617L389.355 976.391C388.256 977.714 388.317 977.608 388.192 979.274C391.097 982.706 389.66 979.449 392.22 982.112L387.88 982.514L387.312 982.642L377.715 982.66C376.352 978.905 375.256 974.538 374.095 970.68C365.614 942.517 354.448 914.951 346.506 886.693C346.054 885.082 348.461 883.096 349.516 881.934Z" fill="#B4ADFC"/>
<path d="M414.006 836.043C415.828 836.902 417.702 837.837 419.576 838.567C419.03 839.03 418.12 839.61 417.409 839.526C407.707 838.382 331.959 841.137 328.906 838.467C332.064 837.302 341.582 837.705 347.385 837.629C368.745 837.347 391.349 838.06 412.72 837.161C413.148 836.789 413.577 836.416 414.006 836.043Z" fill="#B4ADFC"/>
<path d="M1140.61 808.359C1142.6 805.953 1144.42 803.29 1146.36 800.798C1179.85 757.558 1222.97 714.087 1277.61 693.864C1286.77 690.474 1298.83 686.77 1308.58 689.659L1309.33 689.943L1309.74 689.809C1321.94 703.146 1321.78 732.067 1320.31 748.685C1315.98 797.931 1292.31 840.391 1271.86 885.19C1269.77 889.774 1257.34 915.008 1257.01 918.146C1244.97 918.924 1210.04 938.968 1200.14 946.663C1177.04 964.632 1154.52 990.051 1144.37 1016.37C1143.06 1019.77 1138.5 1022.09 1139.57 1026.27C1140.06 1029.32 1140.52 1031.54 1139.36 1034.43C1137.91 1025.67 1137.15 1013.86 1136.01 1004.76C1131.4 967.781 1129.65 930.979 1131.49 893.773C1131.83 886.748 1132.08 871.733 1133.67 865.055C1136.8 858.663 1136.82 842.634 1137.85 835.335C1140.4 817.239 1139.58 799.139 1140.1 780.977C1141.3 786.681 1140.34 801.307 1140.61 808.359Z" fill="#DDD4FF"/>
<path d="M1308.58 689.659L1309.33 689.943C1307.78 694.031 1296.71 710.802 1293.5 715.873C1280.22 736.967 1266.78 757.982 1253.19 778.917L1136.99 962.587L1136.27 962.437C1142.65 948.931 1160.54 921.647 1168.82 908.473L1235.22 804.625L1282.21 731.306C1289.12 720.325 1301.28 699.299 1308.58 689.659Z" fill="#DDD4FF"/>
<path d="M1047.34 862.302L1048.04 860.831C1050.37 860.659 1063.7 863.324 1067.97 863.771C1090.05 866.082 1111.53 868.151 1133.67 865.055C1132.08 871.733 1131.83 886.748 1131.49 893.773C1129.65 930.979 1131.4 967.781 1136.01 1004.76C1137.15 1013.86 1137.91 1025.67 1139.36 1034.43C1140.52 1031.54 1140.06 1029.32 1139.57 1026.27C1138.5 1022.09 1143.06 1019.77 1144.37 1016.37C1154.52 990.052 1177.04 964.632 1200.14 946.663C1210.04 938.968 1244.97 918.924 1257.01 918.147C1273.93 913.273 1299.44 906.832 1316.88 912.043C1329.15 915.71 1315.88 936.577 1311.93 942.468C1298.42 962.627 1280.11 980.472 1261.13 996.392C1258.38 998.697 1240.78 1013.22 1239.57 1014.88C1236.04 1022.8 1223.85 1052.92 1221.67 1060.67C1225.88 1060.68 1252.3 1060.25 1253.98 1061.33C1219.15 1061.39 1184.32 1061.25 1149.49 1060.91C1139.22 1060.87 1128.96 1060.9 1118.69 1061.03C1114.85 1061.08 1103.14 1061.66 1100.29 1060.59C1098.12 1060.17 1096.94 1060.34 1094.71 1060.38C1092.67 1061.43 1047.11 1060.9 1041.6 1060.88L1041.35 1059.34C1041.78 1057.48 1042.09 1055.08 1042.4 1053.16C1044.46 1050.94 1044.44 1048.09 1043.29 1045.5L1040.78 1044.58C1034.43 1044.27 1032.07 1043.68 1026.42 1041.44C1027.71 1012.43 1028.8 982.35 1032.93 953.612C1035.81 933.461 1039.82 913.081 1042.85 892.921C1044.36 882.832 1046.55 872.436 1047.34 862.302Z" fill="url(#paint3_linear_32_4546)"/>
<path d="M1047.34 862.302L1048.04 860.831C1050.37 860.659 1063.7 863.324 1067.97 863.771C1090.05 866.082 1111.53 868.151 1133.67 865.055C1132.08 871.733 1131.83 886.748 1131.49 893.773C1129.65 930.979 1131.4 967.781 1136.01 1004.76C1137.15 1013.86 1137.91 1025.67 1139.36 1034.43L1138.81 1041.44C1129.73 1044.26 1126.13 1045.58 1116.65 1044.01C1110.83 1023.72 1104.56 1003.21 1099.72 982.715C1095.66 964.917 1092.31 946.987 1089.68 928.964C1087.76 916.543 1085.26 900.926 1085.28 888.597C1081 902.032 1076.17 918.795 1073.18 932.404C1070.53 944.433 1068.77 958.594 1066.59 970.888C1064.07 984.507 1061.14 998.06 1057.82 1011.53C1056.16 1018.47 1051.71 1038.75 1049.18 1044.47C1046.42 1044.53 1043.53 1044.63 1040.78 1044.58C1034.43 1044.27 1032.07 1043.68 1026.42 1041.44C1027.71 1012.43 1028.8 982.35 1032.93 953.612C1035.81 933.461 1039.82 913.081 1042.85 892.921C1044.36 882.832 1046.55 872.436 1047.34 862.302Z" fill="#A884F7"/>
<path d="M1136.04 1053.25C1155.76 1057.11 1196.19 1040.52 1213.67 1031.07C1221.74 1026.72 1231.49 1018.31 1239.57 1014.88C1236.04 1022.8 1223.85 1052.92 1221.67 1060.67C1225.87 1060.68 1252.3 1060.25 1253.98 1061.33C1219.15 1061.39 1184.32 1061.25 1149.49 1060.91C1139.22 1060.87 1128.96 1060.91 1118.69 1061.03C1114.85 1061.08 1103.14 1061.66 1100.29 1060.59C1111.31 1058.21 1127.69 1059.54 1135.38 1057.78C1136.29 1055.95 1136.01 1055.39 1136.04 1053.25Z" fill="#F0F2FB"/>
<path d="M1119 1048.87C1126.73 1051.8 1127.05 1050.78 1135 1051.64L1136.04 1053.25C1136.01 1055.39 1136.29 1055.95 1135.38 1057.78C1127.69 1059.54 1111.31 1058.21 1100.29 1060.59C1098.12 1060.17 1096.94 1060.34 1094.71 1060.38C1097.3 1055.99 1112.85 1051.2 1119 1048.87Z" fill="#55348B"/>
<path d="M194.682 599.765C225.326 597.101 269.458 665.033 284.408 686.438C288.319 692.035 293.389 699.199 296.76 705.056C300.631 711.848 303.972 718.883 306.756 726.11L323.039 715.925C322.96 712.404 323.482 705.46 326.179 702.811C327.767 704.553 326.841 706.28 327.969 708.338C329.108 706.839 328.814 706.921 329.14 704.917C338.362 712.427 336.063 716.318 329.226 724.556L325.672 728.862C318.367 736.348 309.139 746.211 301.54 753.081C305.331 754.554 316.702 758.083 318.731 759.358C318.088 768.797 315.917 776.961 312.625 785.936C309.591 787.379 302.046 785.093 298.372 784.275C291.816 810.921 296.867 830.667 303.583 856.159C303.66 856.45 301.96 858.403 301.575 858.782C286.561 866.124 273.145 866.638 256.468 864.525C248.315 863.238 245.333 862.29 237.808 859.105C237.212 873.361 236.819 935.473 233.269 943.165C224.173 930.564 213.852 917.594 204.799 904.79C201.97 900.786 197.003 896.132 193.769 892.025C193.683 888.439 185.135 865.967 183.57 860.811C182.041 855.774 179.611 848.242 178.122 842.7C164.349 791.74 155.793 739.837 160.279 687.197C161.916 667.975 163.822 651.759 171.561 633.588C177.024 620.755 180.342 606.834 194.682 599.765Z" fill="#DDD4FF"/>
<path d="M272.904 749.881L274.006 748.798C281.032 748.678 295.142 750.477 301.54 753.082C305.33 754.554 316.701 758.083 318.731 759.358C318.088 768.797 315.917 776.962 312.624 785.937C309.591 787.38 302.046 785.093 298.372 784.275C291.816 810.921 296.867 830.667 303.583 856.16C303.66 856.45 301.959 858.403 301.575 858.782C286.561 866.124 273.144 866.639 256.467 864.525C248.315 863.238 245.333 862.29 237.808 859.105C232.084 854.764 228.331 849.784 227.676 842.856C224.897 813.419 229.98 773.558 248.927 749.825C254.868 757.073 266.242 755.353 272.904 749.881Z" fill="#7A4EA4"/>
<path d="M323.039 715.926C322.96 712.405 323.482 705.46 326.179 702.812C327.767 704.553 326.841 706.28 327.969 708.339C329.108 706.84 328.814 706.921 329.14 704.918C338.362 712.428 336.063 716.318 329.226 724.557L325.672 728.863C318.367 736.348 309.139 746.211 301.54 753.082C295.142 750.477 281.032 748.678 274.006 748.798L272.904 749.881C264.217 743.118 265.022 745.591 265.365 733.445C266.969 733.903 268.119 734.416 269.736 734.121C270.351 736.951 270.453 738.939 272.772 740.725C280.611 741.472 299.662 730.067 306.756 726.111L323.039 715.926Z" fill="#F8B7B5"/>
<path d="M255.427 733.889C250.518 731.577 242.942 724.37 240.833 719.721C238.63 714.863 239.407 707.834 241.848 703.14C244.078 698.914 248.156 695.757 253.069 694.454C256.269 693.577 278.379 693.084 280.744 694.273C282.293 696.618 282.266 699.098 282.61 701.894C279.65 707.569 277.38 707.976 273.52 712.42L273.835 713.682C271.989 715.081 271.707 715.567 270.508 717.382C265.953 716.785 267.066 712.86 260.139 716.168L259.234 717.643L261.078 721.18C260.922 722.223 260.611 725.003 260.229 725.817C259.236 729.325 259.158 732.081 255.427 733.889Z" fill="#55348B"/>
<path d="M260.229 725.817C257.608 723.377 254.301 720.712 255.767 717.075C257.888 716.826 257.032 716.833 259.234 717.642L261.078 721.179C260.922 722.222 260.611 725.002 260.229 725.817Z" fill="white"/>
<path d="M261.078 721.179L261.428 722.793C261.476 727.614 262.196 729.52 265.365 733.445C265.022 745.591 264.217 743.118 272.904 749.881C266.242 755.353 254.868 757.073 248.927 749.825L251.413 746.956C256.347 741.324 253.472 739.473 255.427 733.888C259.158 732.081 259.236 729.324 260.229 725.817C260.611 725.002 260.922 722.222 261.078 721.179Z" fill="#FBC0C4"/>
<path d="M273.835 713.682C277.348 717.695 280.964 723.131 276.099 727.535C275.492 731.49 273.299 732.134 269.736 734.121C268.119 734.416 266.969 733.903 265.365 733.445C262.196 729.521 261.476 727.614 261.429 722.793L261.078 721.179L259.233 717.643L260.139 716.168C267.066 712.86 265.953 716.785 270.508 717.382C271.707 715.567 271.989 715.081 273.835 713.682Z" fill="#FBC0C4"/>
<path d="M262.126 722.844C265.111 728.276 269.898 734.018 276.098 727.535C275.492 731.49 273.298 732.134 269.736 734.122C268.118 734.416 266.969 733.903 265.364 733.445C262.195 729.521 261.476 727.615 261.428 722.793L262.126 722.844Z" fill="#411C66"/>
<path d="M260.139 716.168C262.283 718.454 262.717 718.169 263.163 720.67L262.127 722.844L261.429 722.793L261.078 721.179L259.233 717.643L260.139 716.168Z" fill="#52426B"/>
<path d="M194.682 599.765C196.343 601.746 202.475 626.157 202.11 628.708L201.213 628.266C199.959 624.144 194.445 603.161 194.682 599.765Z" fill="#DDD4FF"/>
<path d="M897.307 980.466L897.375 982.466L898.268 982.478L899.512 981.787L900.676 982.312C910.132 1005.33 918.271 1028.98 927.423 1052.12C928.586 1055.06 929.468 1057.62 931.01 1060.44C933.196 1061.33 934.377 1061.16 936.755 1061.17L939.623 1061.15C956.948 1060.8 986.518 1060.25 1003.38 1061.06L1003.25 1059.49C1009.56 1060.44 1031.96 1058.74 1041.35 1059.34L1041.6 1060.88C1047.11 1060.9 1092.67 1061.43 1094.71 1060.38C1096.94 1060.34 1098.12 1060.17 1100.29 1060.59C1103.14 1061.66 1114.85 1061.08 1118.69 1061.03C1128.96 1060.9 1139.22 1060.87 1149.49 1060.91C1184.32 1061.25 1219.15 1061.39 1253.98 1061.33C1261.43 1061.59 1274.57 1061.71 1280.04 1067.01C1282.66 1075.19 1237.77 1073.43 1231.63 1073.52C1201.3 1073.79 1170.98 1073.91 1140.66 1073.87L890.434 1073.89L417.621 1073.69L134.287 1073.41C122.957 1073.3 58.9648 1073.35 52.6941 1070.15L52.5322 1069.16C56.909 1065.11 137.431 1064.65 149.161 1064.58L194.99 1063.7C201.7 1063.63 217.754 1063.86 223.802 1063.08C226.904 1064.02 229.099 1063.7 232.359 1063.11C237.941 1062.84 269.031 1063.24 271.39 1062.2C271.022 1060.9 270.808 1059.33 270.572 1057.98C271.597 1055.85 273.325 1053.22 274.6 1051.14C280.142 1051.43 285.662 1052.2 291.209 1052.67C296.406 1055.86 303.427 1060.06 309.095 1062.43C323.036 1063.23 346.125 1062.53 360.612 1062.39C369.66 1035.77 378.022 1009.34 387.312 982.641L387.88 982.513L392.22 982.111L393.171 982.613C398.42 992.675 415.367 1036.91 419.284 1041.23L421.46 1040.86L421.579 1050.8C423.753 1054.04 425.879 1057.64 426.955 1061.34C429.123 1062.55 437.77 1062.31 440.083 1061.61C443.543 1061.58 452.358 1061.96 454.944 1060.91L457.137 1061.71C459.993 1061.77 463.638 1061.74 466.418 1061.92C470.138 1062.3 472.831 1062.06 476.542 1061.88C480.776 1061.9 484.088 1061.71 488.297 1061.44C496.086 1061.72 503.902 1061.57 511.699 1061.5L516.384 1061.49L537.862 1061.37C538.612 1061.36 539.941 1061.01 540.738 1060.84C543.556 1062.14 574.974 1061.36 580.526 1061.3C580.432 1063.66 580.445 1064.43 580.69 1066.77L581.194 1066.46C582.122 1063.26 583.179 1060.01 583.71 1056.74C583.911 1059.38 583.385 1059.53 584.94 1060.89C595.34 1061.32 607.831 1061.01 618.347 1060.99L678.143 1060.93L862.505 1061.17L865.502 1061.08C868.298 1061.04 869.533 1061.05 872.252 1060.6C880.775 1035.2 885.579 1007.39 894.287 982.755C894.405 982.489 895.201 981.231 895.379 980.94L897.307 980.466Z" fill="#7A4EA4"/>
<path d="M392.22 982.111L393.172 982.613C398.421 992.675 415.367 1036.91 419.285 1041.23L421.46 1040.86L421.579 1050.8C423.753 1054.04 425.879 1057.64 426.956 1061.34C424.181 1059.59 424.583 1058.64 422.41 1055.64L421.833 1055.86C421.169 1057.62 420.544 1059.25 419.797 1060.98L420.381 1059.29L419.326 1058.68C419.352 1056.93 419.298 1055.24 419.25 1053.5C418.832 1056.1 418.853 1059.6 418.779 1062.3C402.22 1062.98 380.22 1062.3 363.409 1062.19C370.74 1040.98 376.799 1019.26 384.483 998.128C386.191 993.43 387.806 987.984 390.166 983.552C388.674 983.161 389.18 983.343 387.88 982.513L392.22 982.111Z" fill="white"/>
<path d="M392.221 982.111L393.172 982.613C398.421 992.675 415.367 1036.91 419.285 1041.23L421.46 1040.86L421.58 1050.8C423.754 1054.04 425.88 1057.64 426.956 1061.34C424.181 1059.59 424.583 1058.64 422.411 1055.64L421.833 1055.86C421.17 1057.62 420.545 1059.25 419.797 1060.98L420.381 1059.29L419.326 1058.68C419.353 1056.93 419.298 1055.24 419.251 1053.5C419.288 1052.43 419.475 1047.06 419.233 1046.41C417.093 1041.42 413.632 1033.4 411.213 1028.8C407.655 1022.03 394.762 986.373 390.166 983.552C388.675 983.161 389.18 983.343 387.881 982.513L392.221 982.111Z" fill="#55348B"/>
<path d="M897.307 980.466L897.375 982.466L898.268 982.478C906.723 1007.85 918.07 1035.83 928.024 1060.95L892.864 1060.97C888.418 1060.97 878.734 1060.79 874.655 1061.21L872.252 1060.6C880.775 1035.2 885.579 1007.39 894.287 982.755C894.405 982.489 895.201 981.231 895.379 980.94L897.307 980.466Z" fill="white"/>
<path d="M897.307 980.466L897.375 982.466C889.464 1005.61 884.722 1029.57 877.505 1052.9C876.643 1055.68 875.903 1058.55 874.655 1061.21L872.252 1060.6C880.775 1035.2 885.579 1007.39 894.287 982.755C894.405 982.489 895.201 981.231 895.379 980.94L897.307 980.466Z" fill="#7A4EA4"/>
<path d="M274.6 1051.14C280.142 1051.43 285.662 1052.2 291.209 1052.67C296.407 1055.86 303.427 1060.06 309.095 1062.43C304.726 1064.64 276.47 1064.17 271.39 1062.2C271.022 1060.9 270.808 1059.33 270.572 1057.98C271.597 1055.85 273.325 1053.22 274.6 1051.14Z" fill="#55348B"/>
<path d="M1003.25 1059.49C1009.56 1060.44 1031.96 1058.74 1041.35 1059.34L1041.6 1060.88C1029.06 1060.9 1015.88 1061.92 1003.38 1061.06L1003.25 1059.49Z" fill="#F4CAE4"/>
<path d="M201.275 1027.87C200.213 1027.36 199.801 1027.13 198.889 1026.38C178.148 1009.29 157.037 993.012 138.334 973.855C102.538 937.052 71.2905 893.417 66.3392 843.06C63.8935 818.185 84.5109 822.397 102.222 828.828C137.713 841.715 167.933 866.824 193.769 892.025C197.003 896.133 201.969 900.787 204.799 904.791C213.851 917.595 224.172 930.565 233.269 943.165C226.435 957.358 221.977 972.173 216.005 986.528L215.424 988.29C212.765 998.198 205.571 1018.06 201.275 1027.87Z" fill="#DDD4FF"/>
<path d="M215.424 988.289C213.925 987.496 73.2244 838.448 69.6592 831.144L70.3715 832.243C73.3658 833.108 99.2933 862.285 103.39 866.674L166.09 934.258C182.013 951.526 198.87 970.349 216.006 986.528L215.424 988.289Z" fill="#F0F2FB"/>
<path d="M1094.99 731.576C1098.7 729.856 1102.3 728.409 1106.1 726.87C1108.72 730.857 1109.23 732.658 1114.59 732.613C1115 735.348 1115.66 740.721 1116.3 743.192C1118.21 745.547 1120.23 748.42 1122.58 750.281C1131.57 753.912 1136.21 758.258 1138.31 767.385C1139.87 772.576 1140.14 775.499 1140.1 780.978C1139.59 799.14 1140.4 817.239 1137.85 835.335C1136.82 842.634 1136.8 858.663 1133.67 865.056C1111.53 868.151 1090.05 866.082 1067.97 863.771C1063.69 863.324 1050.36 860.66 1048.04 860.831L1047.34 862.303C1045.51 855.507 1049.52 846.422 1050.73 839.03C1043.32 836.338 1039.69 834.945 1033.25 830.726C1030.23 828.146 1025.41 824.204 1023.19 821.218C1025.04 818.819 1028.59 812.368 1029.66 809.574L1030.39 809.33C1041.12 812.57 1049.49 816.565 1059.15 809.104C1061.79 799.971 1065.04 789.142 1068.2 780.247C1069.72 778.314 1077.8 757.919 1077.52 755.719C1081.85 751.022 1086.04 746.207 1090.06 741.279L1088.12 739.06L1086.19 737.373C1085.09 734.981 1085.56 734.052 1086.05 731.35C1089.33 731.214 1091.74 731.387 1094.99 731.576Z" fill="#B4ADFC"/>
<path d="M1138.31 767.385C1139.87 772.575 1140.14 775.499 1140.1 780.978C1139.59 799.139 1140.4 817.239 1137.85 835.335C1136.83 842.634 1136.8 858.663 1133.67 865.055C1111.53 868.151 1090.05 866.082 1067.97 863.771C1063.7 863.324 1050.37 860.659 1048.04 860.831L1047.34 862.302C1045.51 855.507 1049.52 846.422 1050.73 839.03C1058.36 839.28 1063.75 837.748 1070.36 834.4C1092.26 823.314 1131.25 789.193 1138.31 767.385Z" fill="#DDD4FF"/>
<path d="M1094.99 731.576C1098.7 729.856 1102.3 728.409 1106.1 726.87C1108.72 730.857 1109.23 732.658 1114.59 732.613C1115 735.348 1115.66 740.721 1116.3 743.192C1118.21 745.547 1120.23 748.42 1122.58 750.281C1104.63 757.238 1087.12 779.67 1074.64 793.399C1070.28 798.2 1064.74 805.674 1059.15 809.104C1061.79 799.971 1065.04 789.142 1068.2 780.247C1069.72 778.314 1077.8 757.919 1077.52 755.719C1081.85 751.022 1086.04 746.207 1090.06 741.279L1088.12 739.06L1086.19 737.373C1085.09 734.981 1085.56 734.052 1086.05 731.35C1089.33 731.214 1091.74 731.387 1094.99 731.576Z" fill="#DDD4FF"/>
<path d="M1094.99 731.576C1098.7 729.856 1102.3 728.409 1106.1 726.87C1108.72 730.857 1109.23 732.658 1114.59 732.613C1115 735.348 1115.66 740.721 1116.3 743.192C1110.68 744.284 1106.36 744.139 1100.62 743.735C1096.78 743.069 1093.66 742.709 1090.06 741.279L1088.12 739.06L1086.19 737.373C1085.09 734.981 1085.56 734.052 1086.05 731.35C1089.33 731.214 1091.74 731.387 1094.99 731.576Z" fill="#A96283"/>
<path d="M1088.12 739.06C1094.52 737.876 1099.49 736.929 1100.62 743.735C1096.78 743.068 1093.66 742.709 1090.06 741.279L1088.12 739.06Z" fill="#CE85A1"/>
<path d="M540.229 419.739C542.215 422.019 542.942 423.111 545.477 424.779C548.373 424.975 548.249 424.515 549.967 425.907L550.979 428.494C553.457 429.647 561.703 433.318 563.435 434.611L563.298 434.9C559.712 445.101 557.703 454.06 552.466 464.085C549.583 469.604 542.808 477.663 540.637 482.522C544.322 485.198 549.486 490.627 552.851 493.948C558.905 499.093 565.538 503.629 572.638 507.482C576.435 509.803 580.292 512.041 584.203 514.194L587.062 516.115C584.745 519.299 583.883 520.846 582.853 524.611L591.935 528.373C589.384 532.377 588.169 533.894 584.974 537.51C584.197 539.133 584.141 539.06 582.774 540.357C579.508 538.405 578.872 537.711 576.463 534.915L573.778 536.975C557.638 532.247 503.489 538.172 485.722 540.162C482.905 527.391 500.14 492.157 505.483 477.19L501.057 470.278L500.234 468.189C497.904 464.339 496.384 460.119 495.757 455.751C494.549 446.64 497.713 440.806 503.396 433.915C505.198 432.61 507.497 431.097 508.895 429.509C513.578 428.506 519.611 426.42 525.247 425.153C529.08 424.562 532.436 424.411 536.306 424.186C538.13 422.395 538.727 421.752 540.229 419.739Z" fill="#B4ADFC"/>
<path d="M505.483 477.191C523.008 499.36 541.933 511.25 568.772 521.932C571.91 522.181 572.291 522.321 575.111 523.626L582.853 524.611L591.935 528.373C589.384 532.377 588.169 533.894 584.974 537.51C584.197 539.134 584.141 539.061 582.774 540.357C579.508 538.405 578.872 537.711 576.463 534.916L573.778 536.975C557.638 532.248 503.489 538.172 485.722 540.162C482.905 527.391 500.14 492.157 505.483 477.191Z" fill="#DDD4FF"/>
<path d="M568.771 521.932C571.909 522.181 572.29 522.321 575.11 523.626L582.853 524.611L591.934 528.373C589.383 532.377 588.168 533.894 584.973 537.51C584.196 539.134 584.14 539.06 582.773 540.357C579.507 538.405 578.871 537.711 576.462 534.915C574.084 530.658 571.284 526.16 568.771 521.932Z" fill="#E0EEFC"/>
<path d="M568.771 521.932C571.909 522.181 572.29 522.321 575.11 523.626C578.18 527.776 581.585 536.464 584.973 537.51C584.196 539.134 584.14 539.06 582.773 540.357C579.507 538.405 578.871 537.711 576.462 534.915C574.084 530.658 571.284 526.16 568.771 521.932Z" fill="#F7AD9B"/>
<path d="M540.229 419.739C542.215 422.019 542.942 423.111 545.477 424.779C548.373 424.975 548.249 424.515 549.966 425.907L550.979 428.494C553.457 429.647 561.702 433.318 563.434 434.611L563.298 434.9C559.712 445.101 557.702 454.06 552.465 464.085C549.583 469.604 542.808 477.663 540.637 482.522C536.317 478.999 534.288 473.624 530.56 469.689C530.037 469.654 529.13 469.393 528.581 469.259C521.085 461.579 503.783 443.769 503.396 433.915C505.198 432.61 507.496 431.097 508.895 429.509C513.577 428.506 519.611 426.42 525.247 425.153C529.08 424.562 532.436 424.411 536.306 424.186C538.13 422.395 538.727 421.752 540.229 419.739Z" fill="#B4ADFC"/>
<path d="M508.895 429.509C513.577 428.506 519.611 426.42 525.247 425.153C526.019 434.801 527.175 462.241 530.56 469.689C530.037 469.654 529.13 469.393 528.581 469.259C521.085 461.579 503.783 443.769 503.396 433.915C505.198 432.61 507.496 431.097 508.895 429.509Z" fill="#DDD4FF"/>
<path d="M540.229 419.739C542.214 422.019 542.941 423.111 545.476 424.779C546.968 429.897 547.147 431.743 544.397 436.449C538.373 433.458 536.075 430.542 536.306 424.186C538.129 422.395 538.726 421.752 540.229 419.739Z" fill="#F8B7B5"/>
<path d="M545.476 424.78C548.372 424.976 548.249 424.515 549.966 425.907L550.979 428.494C550.697 431.296 550.755 434.594 549.17 436.824C547.123 437.863 546.761 437.402 544.397 436.449C547.147 431.743 546.968 429.897 545.476 424.78Z" fill="#F7AD9B"/>
<path d="M485.722 540.162C503.488 538.172 557.637 532.248 573.778 536.975C575.855 554.051 576.326 588.242 574.092 605.341C566.779 605.333 558.995 605.202 551.721 605.339L552.33 605.43C555.343 605.863 557.814 605.991 560.829 606.161C544.777 606.508 516.904 607.799 502.011 606.678C505.306 604.988 522.554 606.782 527.73 605.97C518.108 605.417 505.832 605.709 496.004 605.715C495.654 601.943 495.089 598.08 494.371 594.352C490.904 576.351 488.619 558.222 485.722 540.162Z" fill="#55348B"/>
<path d="M530.979 545.8C538.214 566.764 541.297 583.451 544.952 605.301L551.721 605.338L552.331 605.43C555.343 605.862 557.814 605.99 560.83 606.161C544.778 606.507 516.905 607.799 502.012 606.678C505.307 604.987 522.555 606.781 527.731 605.97L528.114 605.736C530.105 603.106 530.924 552.84 530.979 545.8Z" fill="#E0EEFC"/>
<path d="M921.367 914.609C928.255 918.199 939.63 924.601 946.359 927.591L946.431 927.991C948.194 927.514 948.226 927.342 949.97 927.707C945.252 938.695 938.569 960.353 933.84 969.215C935.208 976.692 935.223 988.321 935.791 996.293C937.52 1017.89 938.798 1039.51 939.624 1061.15L936.756 1061.17C934.378 1061.16 933.196 1061.33 931.011 1060.44C929.468 1057.62 928.586 1055.06 927.423 1052.12C918.271 1028.98 910.132 1005.33 900.676 982.313L899.512 981.788L898.268 982.479L897.375 982.466L897.308 980.466C903.326 979.462 925.241 978.235 926.366 971.398C924.156 966.307 911.844 962.953 905.943 960.581L908.149 960.04C913.122 945.435 917.115 929.512 921.367 914.609Z" fill="white"/>
<path d="M933.84 969.215C935.208 976.692 935.222 988.321 935.79 996.293C937.52 1017.89 938.798 1039.51 939.623 1061.15L936.755 1061.17C936.465 1057.83 936.426 1054.25 936.283 1050.88C935.175 1024.75 933.348 998.613 931.244 972.542C931.159 971.492 931.461 971.095 932.023 970.265L933.84 969.215Z" fill="#7A4EA4"/>
<path d="M908.149 960.04C914.809 960.909 931.556 965.055 930.302 972.705C926.853 977.508 917.321 979.783 911.459 981.083C908.116 981.824 902.879 981.709 900.676 982.313L899.512 981.787L898.268 982.478L897.375 982.466L897.308 980.466C903.326 979.462 925.241 978.235 926.366 971.398C924.156 966.307 911.844 962.953 905.943 960.581L908.149 960.04Z" fill="#A884F7"/>
<path d="M946.43 927.99C948.194 927.514 948.226 927.342 949.97 927.706C945.252 938.694 938.568 960.353 933.84 969.214L932.023 970.265C931.135 965.278 943.837 935.602 946.43 927.99Z" fill="#7A4EA4"/>
<path d="M508.896 429.51C509.311 412.543 521.458 407.62 531.677 395.822C536.908 389.784 536.557 383.36 545.157 379.104C557.04 373.224 559.9 379.426 569.624 382.095C574.9 389.733 569.623 400.972 565.236 408.362C564.978 408.903 564.321 410.112 564.256 410.619C567.522 416.048 569.317 430.717 563.435 434.611C561.703 433.318 553.457 429.647 550.979 428.494L549.967 425.907C548.249 424.515 548.373 424.976 545.477 424.78C542.942 423.111 542.215 422.019 540.229 419.739C538.727 421.752 538.13 422.396 536.306 424.186C532.436 424.411 529.08 424.563 525.247 425.154C519.611 426.42 513.578 428.506 508.896 429.51Z" fill="#55348B"/>
<path d="M546.788 394.611C550.087 394.942 553.416 395.293 556.674 395.791C566.845 397.343 566.505 400.575 565.235 408.362C564.978 408.903 564.321 410.112 564.256 410.619C561.545 414.596 560.613 417.135 555.227 418.359C547.908 420.023 534.106 405.07 539.757 399.862C541.223 399.947 541.912 399.892 543.386 399.792C545.834 398.04 545.385 397.67 546.788 394.611Z" fill="#F8B7B5"/>
<path d="M858.478 976.716C867.707 978.663 876.853 980.513 886.265 981.521C888.556 981.766 892.954 981.703 894.288 982.755C885.58 1007.39 880.776 1035.2 872.253 1060.61C869.534 1061.05 868.299 1061.04 865.503 1061.08C863.349 1033.16 860.038 1004.91 858.139 977.098L858.478 976.716Z" fill="white"/>
<path d="M937.621 868.031C943.6 865.561 954.367 869.143 956.615 874.5C956.99 878.735 959.216 883.537 959.533 887.263C960.368 897.057 951.904 920.758 946.359 927.59C939.63 924.601 928.255 918.199 921.367 914.608L921.003 912.793C919.798 891.972 921.333 882.936 937.621 868.031Z" fill="#DDD4FF"/>
<path d="M1092.08 709.329L1091.39 708.846C1081.03 701.409 1077.64 685.67 1093.24 684.892C1091.59 687.039 1090.94 687.811 1090.47 690.411L1091 691.872C1094.08 690.868 1095.15 687.704 1099.84 687.734C1102.02 689.985 1100.12 693.651 1103.65 695.637C1111.59 700.108 1128.5 698.055 1130.79 708.916C1133.29 720.731 1124.56 727.72 1114.59 732.612C1109.23 732.658 1108.72 730.856 1106.1 726.87C1102.3 728.409 1098.7 729.856 1094.99 731.575C1091.74 731.386 1089.33 731.213 1086.05 731.35C1086.62 720.852 1090.96 719.95 1092.08 709.329Z" fill="#55348B"/>
<path d="M1092.08 709.33C1094.44 710.523 1096.47 711.571 1099 712.489C1103.45 714.1 1111.42 713.559 1113.13 718.443C1112.9 722.073 1109.22 724.97 1106.1 726.87C1102.3 728.409 1098.7 729.856 1094.99 731.575C1091.74 731.387 1089.33 731.213 1086.05 731.35C1086.62 720.852 1090.96 719.95 1092.08 709.33Z" fill="#CE85A1"/>
<path d="M841.399 962.9C851.812 957.259 892.991 957.681 905.23 959.759L905.944 960.581C911.844 962.953 924.156 966.307 926.366 971.398C925.242 978.235 903.327 979.462 897.308 980.466L895.38 980.94C895.202 981.232 894.406 982.489 894.288 982.755C892.954 981.703 888.556 981.765 886.265 981.52C876.853 980.513 867.708 978.663 858.479 976.716C858.444 975.597 858.647 975.777 859.353 974.513C849.472 971.465 848.011 970.519 841.399 962.9Z" fill="#DDD4FF"/>
<path d="M859.353 974.513C875.969 979.144 881.259 978.58 897.308 980.466L895.38 980.94C895.202 981.232 894.406 982.489 894.287 982.755C892.954 981.703 888.555 981.765 886.265 981.521C876.853 980.513 867.707 978.663 858.478 976.716C858.444 975.597 858.647 975.777 859.353 974.513Z" fill="#A884F7"/>
<path d="M798.495 973.887C800.253 974.729 802.041 975.102 802.101 976.55C802.372 983.122 802.269 991.655 802.252 998.068L802.305 1055.46L645.124 1055.52L604.66 1055.49C600.763 1055.48 587.501 1055.26 584.038 1055.78C583.955 1054.13 584.103 1053.53 584.308 1051.91L584.855 1052.53C587.876 1053.13 599.646 1052.92 603.683 1052.92L644.609 1052.92L798.549 1052.83C798.936 1027.47 799.519 999.114 798.495 973.887Z" fill="#EE72AD"/>
<path d="M800.099 517.657C802.066 516.203 801.071 516.356 803.039 516.423C805.088 519.089 804.062 542.352 804.056 546.92L804.252 603.125C777.176 603.055 748.798 602.6 721.807 602.961L724.554 607.135C724.034 607.776 722.89 609.276 722.363 609.789C720.628 606.26 718.224 602.884 716.017 599.57C743.992 599.268 772.22 599.635 800.256 599.473L800.099 517.657Z" fill="#A884F7"/>
<path d="M807.088 772.682C807.397 786.579 807.457 800.48 807.263 814.38C807.084 822.14 806.405 829.787 806.581 837.547C852.904 836.649 899.422 837.295 945.763 836.946C972.4 836.746 999.071 836.444 1025.7 836.766C1027.83 836.792 1029.2 837.102 1031.02 838.124C1028.6 839.311 1005.29 838.616 1000.3 838.599L943.09 838.616C897.106 838.895 851.118 838.866 805.133 838.527C804.981 821.256 804.97 803.983 805.105 786.712C806.511 788.951 805.322 790.769 806.513 793.402C807.087 791.856 806.974 775.759 807.088 772.682Z" fill="#B4ADFC"/>
<path d="M203.348 1034.85C206.049 1038.87 211.669 1041.24 216.479 1042.61C222.43 1051.09 226.537 1055.43 232.36 1063.11C229.099 1063.7 226.904 1064.02 223.802 1063.08C219.201 1061.29 199.657 1051.75 196.751 1048.5C196.034 1043.8 200.419 1038.55 203.348 1034.85Z" fill="#55348B"/>
<path d="M562.439 608.586C562.691 610.272 562.999 616.306 562.807 617.692C561.349 628.235 564.365 700.073 561.984 704.069C560.306 703.482 559.789 702.642 558.641 701.369L559.213 609.515L562.439 608.586Z" fill="#B4ADFC"/>
<path d="M801.017 383.193L802.522 384.114C803.379 389.26 803.049 407.613 803.073 413.585C803.238 433.99 803.183 454.394 802.908 474.797L799.345 471.025C798.965 462.656 799.006 386.724 801.017 383.193Z" fill="#A884F7"/>
<path d="M799.619 830.065L801.389 830.675C802.9 835.826 802.616 912.079 801.937 920.919C800.111 922.083 798.076 921.87 795.811 921.811L795.991 921.191L797.925 920.863C798.189 920.627 798.454 920.389 798.718 920.153C799.184 897.479 798.665 872.965 798.836 850.46C798.886 843.981 798.421 832.948 799.619 830.065Z" fill="#EE72AD"/>
<path d="M855.051 978.521L855.546 976.601L856.616 976.219L858.138 977.097C860.037 1004.91 863.348 1033.16 865.502 1061.08L862.505 1061.17C860.455 1033.55 857.168 1006.03 855.051 978.521Z" fill="#7A4EA4"/>
<path d="M724.554 607.135C728.984 616.88 729.9 625.077 725.248 635.107C721.386 643.518 713.868 650.061 704.516 653.151C696.908 655.716 687.803 655.89 679.939 654.209C684.849 653.902 692.878 653.795 697.414 652.574C717.794 647.087 729.398 628.67 722.363 609.789C722.89 609.276 724.034 607.776 724.554 607.135Z" fill="#A884F7"/>
<path d="M1026.53 1049.75C1031.94 1052.06 1036.46 1054.09 1042.4 1053.16C1042.09 1055.08 1041.78 1057.48 1041.35 1059.34C1031.96 1058.74 1009.56 1060.44 1003.25 1059.49L1003.13 1059.14C1004.65 1055.89 1019.62 1053.17 1026.53 1049.75Z" fill="#55348B"/>
<path d="M956.616 874.501C962.552 882.437 963.373 890.142 961.464 899.369C960.03 906.289 953.977 921.588 949.97 927.706C948.227 927.342 948.195 927.514 946.431 927.99L946.359 927.591C951.904 920.758 960.369 897.057 959.534 887.263C959.217 883.538 956.991 878.736 956.616 874.501Z" fill="#A884F7"/>
<path d="M918.869 912.659L921.004 912.794L921.368 914.609C917.115 929.512 913.122 945.434 908.149 960.04L905.944 960.581L905.229 959.758C910.582 944.484 914.125 928.16 918.869 912.659Z" fill="#7A4EA4"/>
<path d="M893.348 607.417L896.399 607.464L896.74 607.894L896.03 608.306C877.72 619.151 876.826 637.785 887.561 653.64C885.247 652.752 883.586 651.072 882.343 649.029C872.862 633.455 877.91 616.942 893.348 607.417Z" fill="#B4ADFC"/>
<path d="M841.398 962.901C848.01 970.519 849.471 971.465 859.352 974.513C858.646 975.777 858.443 975.598 858.477 976.716L858.138 977.098L856.615 976.219L855.546 976.602L855.051 978.521L854.625 976.854C850.423 972.634 835.665 975.348 834.257 969.365C835.273 966.606 838.818 964.452 841.398 962.901Z" fill="#B4ADFC"/>
<path d="M702.276 331.237C716.076 338.191 723.889 351.134 726.935 365.019C724.254 373.381 723.06 376.326 715.43 381.928L713.601 382.309C713.01 380.777 721.32 375.526 722.635 367.585C724.814 357.317 718.133 346.515 711.101 338.938C708.575 336.216 704.436 334.607 702.276 331.237Z" fill="#A884F7"/>
<path d="M937.621 868.031C921.333 882.937 919.799 891.973 921.004 912.794L918.868 912.658C920.51 896.675 916.439 876.236 937.621 868.031Z" fill="#A884F7"/>
<path d="M491.22 728.749L491.935 729.01C492.381 726.653 492.999 724.297 493.577 721.961L494.666 721.572C493.713 734.945 497.509 748.075 509.491 756.673L508.697 756.977C500.27 755.322 491.48 736.264 491.22 728.749Z" fill="#B4ADFC"/>
<path d="M770.852 762.067C771.723 761.994 771.872 761.945 772.646 761.987C788.022 762.801 793.332 760.514 806.069 753.325C805.785 755.281 805.969 756.204 804.839 757.66C793.12 763.257 784.146 765.649 770.852 762.067Z" fill="#A884F7"/>
<path d="M806.069 753.325C806.546 757.89 807.202 768.138 807.088 772.681C806.974 775.759 807.086 791.856 806.513 793.401C805.321 790.769 806.511 788.95 805.105 786.711C804.441 780.057 804.865 764.919 804.838 757.66C805.969 756.204 805.785 755.281 806.069 753.325Z" fill="#DDD4FF"/>
<path d="M536.408 690.897C538.807 691.291 539.406 691.114 541.33 692.284L541.464 692.617C538.614 692.283 534.255 692.282 531.274 692.198L536.408 690.897Z" fill="#B4ADFC"/>
<path d="M417.535 274.354C440.689 272.559 445.474 291.193 442.931 308.297C461.978 294.235 483.433 295.129 483.766 321.855C498.306 314.482 518.702 313.654 525.059 331.234C526.408 334.967 526.39 340.754 520.568 340.789C505.522 340.881 490.467 340.633 475.401 340.64L371.104 340.597C338.286 340.616 304.292 340.987 271.565 340.391C277.065 327.586 289.42 312.139 305.438 323.186C311.329 311.852 326.988 296.828 340.808 294.472C357.509 291.626 361.2 305.025 363.294 316.343C364.876 314.019 366.496 311.717 368.157 309.439C379.108 294.533 397.534 277.889 417.535 274.354Z" fill="white"/>
<path d="M383.467 416.607C395.865 416.72 396.076 423.173 393.345 431.765C395.982 436.121 397.456 437.834 400.89 441.769C416.834 436.038 419.99 450.353 409.625 455.477L404.922 457.822C403.844 460.066 402.962 461.83 402.386 464.297C401.336 467.857 410.372 472.579 409.38 475.456C405.941 485.421 401.528 483.858 392.931 480.932C389.936 479.912 384.513 483.805 381.845 485.462C382.213 492.089 379.705 500.225 369.62 496.589C365.131 494.972 364.92 491.042 363.634 487.076C359.616 483.058 358.34 482.364 352.758 480.476C350.209 482.224 347.411 483.978 344.801 485.678C341.431 484.163 339.7 482.982 336.815 480.886C329.824 475.806 341.118 470.797 339.963 463.24C339.217 458.359 333.788 458.21 330.235 455.089C328.252 453.346 327.818 451.307 327.818 448.852C327.818 436.426 340.738 444.048 346.932 437.506C352.811 431.296 347.205 430.006 346.535 424.433C346.483 422.688 348.787 420.675 349.963 419.79C356.271 415.039 360.68 416.932 364.53 422.908C365.343 424.169 367.646 425.681 369.471 425.538C375.87 425.031 379.378 420.518 383.467 416.607Z" fill="#DDD4FF"/>
<path d="M372.98 446.818C386.375 448.351 386.202 465.917 370.414 467.216C355.576 462.887 357.337 448.812 372.98 446.818Z" fill="#E0EEFC"/>
<path d="M564.437 210.263C578.153 207.704 591.57 215.716 594.587 228.267C597.605 240.819 589.108 253.273 575.493 256.257C566.479 258.231 557.007 255.588 550.714 249.34C544.422 243.094 542.287 234.216 545.131 226.117C547.975 218.017 555.355 211.956 564.437 210.263Z" fill="#E0EEFC"/>
<path d="M300.769 585.525C305.58 585.67 312.098 594.36 315.075 597.851C311.755 603.144 308.302 613.984 300.485 613.164C292.554 607.811 289.92 604.816 283.603 597.927C289.131 593.84 294.808 588.927 300.769 585.525Z" fill="white"/>
<path d="M1028.22 229.998C1079.24 226.923 1133.64 251.683 1171.73 281.466C1224.2 322.494 1258.09 375.849 1282.34 434.359C1216.72 411.094 1147.71 450.138 1101.39 489.98C1077.2 510.793 1054.95 532.265 1025.93 547.63C993.936 562.492 963.178 567.125 928.083 559.073C875.416 546.987 839.497 508.57 827.981 460.668C823.048 440.145 821.87 420.727 816.504 399.922C809.515 372.247 797.955 345.718 782.223 321.257C824.779 321.201 857.952 298.199 892.846 278.87C924.217 261.49 954.879 243.309 990.736 234.43C1003.65 231.234 1015.09 230.484 1028.22 229.998Z" fill="#E0EEFC"/>
<path d="M966.899 255.302C1005.74 250.981 1041.02 276.427 1045.65 312.099C1050.29 347.771 1022.52 380.126 983.662 384.317C944.908 388.497 909.788 363.073 905.164 327.493C900.542 291.912 928.164 259.613 966.899 255.302Z" fill="#DDD4FF"/>
<path d="M968.133 270.562C997.769 266.681 1025.23 285.566 1029.52 312.775C1033.8 339.982 1013.28 365.238 983.666 369.224C953.965 373.219 926.374 354.32 922.079 327.038C917.785 299.757 938.416 274.455 968.133 270.562Z" fill="#B4ADFC"/>
<path d="M968.119 272.526C996.42 268.706 1022.74 286.656 1026.94 312.64C1031.14 338.622 1011.64 362.822 983.352 366.719C955.002 370.625 928.583 352.666 924.372 326.627C920.162 300.589 939.759 276.354 968.119 272.526Z" fill="#E0EEFC"/>
<path d="M1128.85 355.486C1147.78 355.389 1149.86 370.127 1149.89 383.947C1162.67 370.321 1177.73 372.381 1182.57 390.383C1187.73 389.979 1193.46 389.364 1198.48 390.679C1204.25 392.19 1209.19 399.835 1207.12 405.153C1205.48 406.542 1205.62 406.579 1202.82 406.648C1188.08 407.015 1172.85 406.931 1158.15 406.992C1135.41 407.178 1112.67 407.587 1089.94 408.22C1080.86 408.202 1022.16 410.431 1019.45 408.413C1019.13 405.149 1024.22 401.593 1026.76 399.664C1035.3 393.191 1044.45 393.392 1054.78 394.483C1055.42 377.15 1065.58 364.469 1084.65 377.324C1087.54 379.279 1090.07 383.549 1092.59 386.17L1093.47 387.069C1100.58 371.585 1109.06 358.081 1128.85 355.486Z" fill="white"/>
<path d="M935.673 482.207C943.52 480.73 951.175 485.402 952.732 492.617C954.289 499.834 949.151 506.833 941.285 508.216C933.489 509.586 925.951 504.921 924.408 497.771C922.866 490.621 927.897 483.669 935.673 482.207Z" fill="white"/>
<path d="M934.218 484.725C938.474 483.274 943.253 484.077 946.675 486.819C950.095 489.56 951.608 493.801 950.616 497.869C949.625 501.939 946.29 505.183 941.924 506.325C935.525 508 928.831 504.733 926.76 498.929C924.689 493.122 927.982 486.852 934.218 484.725Z" fill="#E0EEFC"/>
</g>
<defs>
<linearGradient id="paint0_linear_32_4546" x1="652.229" y1="129.952" x2="694.369" y2="1073.38" gradientUnits="userSpaceOnUse">
<stop stop-color="#D7EEFC"/>
<stop offset="1" stop-color="#F9F6FD"/>
</linearGradient>
<linearGradient id="paint1_linear_32_4546" x1="547.687" y1="932.028" x2="547.88" y2="942.482" gradientUnits="userSpaceOnUse">
<stop stop-color="#E7E6FC"/>
<stop offset="1" stop-color="#BFB8FD"/>
</linearGradient>
<linearGradient id="paint2_linear_32_4546" x1="447.064" y1="901.969" x2="432.262" y2="918.795" gradientUnits="userSpaceOnUse">
<stop stop-color="#9E83F2"/>
<stop offset="1" stop-color="#B7A6FF"/>
</linearGradient>
<linearGradient id="paint3_linear_32_4546" x1="1263.15" y1="1026.01" x2="1069.9" y2="916.284" gradientUnits="userSpaceOnUse">
<stop stop-color="#D2CDFA"/>
<stop offset="1" stop-color="#EEF1FA"/>
</linearGradient>
</defs>
</svg>
