<svg width="100" height="22" viewBox="0 0 100 22" fill="none" xmlns="http://www.w3.org/2000/svg">
<path fill-rule="evenodd" clip-rule="evenodd" d="M3.7103 1.12063C4.44574 0.403104 5.44321 0 6.48326 0H12.3075C13.3476 0 14.3451 0.403103 15.0805 1.12063L16.9118 2.90727C17.6456 3.62323 17.6456 4.78403 16.9118 5.49999C16.1779 6.21595 14.9881 6.21595 14.2543 5.49999L13.3148 4.58333C12.7132 3.9964 11.8973 3.66666 11.0466 3.66666H8.03995C6.99989 3.66666 6.00242 4.06976 5.26699 4.78729L4.90676 5.13874C4.17132 5.85628 3.75817 6.82945 3.75817 7.84419V10.4891C3.75817 11.5038 4.17132 12.4771 4.90676 13.1945L5.26699 13.546C6.00242 14.2636 6.99989 14.6666 8.03995 14.6666H11.0466C11.8973 14.6666 12.7132 14.3369 13.3148 13.75L14.2543 12.8333C14.9881 12.1173 16.1779 12.1173 16.9118 12.8333C17.6456 13.5492 17.6456 14.7101 16.9118 15.426L15.0805 17.2127C14.3451 17.9302 13.3476 18.3333 12.3075 18.3333H6.48327C5.44321 18.3333 4.44574 17.9302 3.7103 17.2127L1.1486 14.7133C0.413165 13.9958 0 13.0227 0 12.0079V6.32542C0 5.31067 0.413165 4.33749 1.1486 3.61997L3.7103 1.12063Z" fill="#2D2629"/>
<path fill-rule="evenodd" clip-rule="evenodd" d="M23.1278 1.12063C23.8632 0.403104 24.8607 0 25.9007 0H31.725C32.765 0 33.7626 0.403105 34.498 1.12063L37.0596 3.61997C37.7951 4.33749 38.2083 5.31067 38.2083 6.32542V12.0079C38.2083 13.0227 37.7951 13.9958 37.0596 14.7133L34.498 17.2127C33.7626 17.9302 32.765 18.3333 31.725 18.3333H25.9007C24.8607 18.3333 23.8632 17.9302 23.1278 17.2127L20.5661 14.7133C19.8306 13.9958 19.4175 13.0227 19.4175 12.0079V6.32542C19.4175 5.31067 19.8306 4.33749 20.5661 3.61997L23.1278 1.12063ZM27.4574 3.66666C26.4174 3.66666 25.4199 4.06976 24.6844 4.78729L24.3242 5.13874C23.5888 5.85628 23.1756 6.82945 23.1756 7.84419V10.4891C23.1756 11.5038 23.5888 12.4771 24.3242 13.1945L24.6844 13.546C25.4199 14.2636 26.4174 14.6666 27.4574 14.6666H30.1684C31.2084 14.6666 32.2058 14.2636 32.9413 13.546L33.3015 13.1945C34.037 12.4771 34.4501 11.5038 34.4501 10.4891V7.84419C34.4501 6.82946 34.037 5.85628 33.3015 5.13874L32.9413 4.78729C32.2058 4.06976 31.2084 3.66666 30.1684 3.66666H27.4574Z" fill="#2D2629"/>
<path fill-rule="evenodd" clip-rule="evenodd" d="M65.7205 1.12063C66.4559 0.403104 67.4534 0 68.4935 0H74.3178C75.3578 0 76.3554 0.403105 77.0907 1.12063L79.6524 3.61997C80.3879 4.33749 80.801 5.31067 80.801 6.32542V7.78501C80.801 9.89809 79.0452 11.6111 76.8795 11.6111H66.1038C65.9186 11.6111 65.7684 11.7576 65.7684 11.9383C65.7684 12.0252 65.8038 12.1084 65.8666 12.1697L67.2772 13.546C68.0126 14.2636 69.0102 14.6666 70.0502 14.6666H74.054C74.3841 14.6666 74.706 14.566 74.9748 14.3787C75.6867 13.8826 76.6761 14.0435 77.1847 14.7381L77.356 14.9721C77.9593 15.7961 77.7637 16.9411 76.9192 17.5296L76.4169 17.8797C75.9936 18.1747 75.4863 18.3333 74.966 18.3333H68.4935C67.4534 18.3333 66.4559 17.9302 65.7205 17.2127L63.1589 14.7133C62.4234 13.9958 62.0103 13.0227 62.0103 12.0079V6.32542C62.0103 5.31067 62.4234 4.33749 63.1589 3.61997L65.7205 1.12063ZM65.7684 6.75292C65.7684 7.41097 66.3152 7.94443 66.9897 7.94443H75.8216C76.4961 7.94443 77.0429 7.41097 77.0429 6.75292C77.0429 6.43691 76.9142 6.13385 76.6852 5.9104L75.5341 4.78729C74.7986 4.06976 73.8011 3.66666 72.7611 3.66666H70.0502C69.0102 3.66666 68.0126 4.06976 67.2772 4.78729L66.1261 5.9104C65.897 6.13385 65.7684 6.43691 65.7684 6.75292Z" fill="#2D2629"/>
<path fill-rule="evenodd" clip-rule="evenodd" d="M87.0164 1.12063C87.7519 0.403104 88.7494 0 89.7894 0H96.309C96.846 0 97.366 0.183669 97.7785 0.519052L98.0982 0.779032C98.8953 1.42724 99.0031 2.58327 98.3384 3.3611L97.9658 3.79787C97.5074 4.33449 96.69 4.40699 96.14 3.95981C95.907 3.77039 95.6133 3.66666 95.3101 3.66666H91.3461C90.3061 3.66666 89.3086 4.06976 88.5731 4.78729L88.2129 5.13874C87.4775 5.85628 87.0643 6.82945 87.0643 7.84419V16.5C87.0643 17.5125 86.223 18.3333 85.1853 18.3333C84.1474 18.3333 83.3062 17.5125 83.3062 16.5V6.32542C83.3062 5.31067 83.7193 4.33749 84.4548 3.61997L87.0164 1.12063Z" fill="#2D2629"/>
<path fill-rule="evenodd" clip-rule="evenodd" d="M46.355 0C45.8539 0 45.3732 0.194253 45.0188 0.540026L41.2669 4.20057C40.9125 4.54635 40.7134 5.01531 40.7134 5.50431V20.1666C40.7134 21.1792 41.5547 22 42.5925 22C43.6302 22 44.4715 21.1792 44.4715 20.1666V17.2594L45.0188 17.7933C45.3732 18.139 45.8539 18.3333 46.355 18.3333H53.8625C54.3638 18.3333 54.8444 18.139 55.1988 17.7933L58.9507 14.1327C59.3051 13.7869 59.5042 13.3179 59.5042 12.829V5.50431C59.5042 5.01531 59.3051 4.54635 58.9507 4.20057L55.1988 0.540025C54.8444 0.194253 54.3638 0 53.8625 0H46.355ZM44.4715 11.3105C44.4716 11.7994 44.6707 12.2683 45.025 12.6139L46.5754 14.1266C46.9298 14.4724 47.4105 14.6666 47.9117 14.6666H52.3058C52.807 14.6666 53.2877 14.4724 53.6421 14.1266L55.1925 12.6139C55.5469 12.2682 55.746 11.7992 55.746 11.3102V7.02309C55.746 6.5341 55.5469 6.06512 55.1925 5.71935L53.6421 4.20669C53.2877 3.86091 52.807 3.66666 52.3058 3.66666H47.9117C47.4105 3.66666 46.9298 3.86091 46.5754 4.20669L45.025 5.71935C44.6706 6.06512 44.4715 6.5341 44.4715 7.02309V11.3105Z" fill="#2D2629"/>
</svg>
