<svg width="637" height="460" viewBox="0 0 637 460" fill="none" xmlns="http://www.w3.org/2000/svg">
<g opacity="0.8" clip-path="url(#clip0_57_1304)">
<path d="M147.82 164.751C150.614 162.451 153.58 160.283 157.096 159.032C168.344 155.249 182.475 157.198 193.391 161.715C205.366 166.668 215.636 187.171 210.205 199.725C208.787 203.003 205.821 204.55 202.532 205.624C199.34 215.185 196.861 225.588 194.06 235.316C192.793 239.716 191.635 244.96 190.045 249.179C193.796 250.284 196.465 253.818 199.813 256.173C213.357 265.705 227.016 269.084 243.39 268.927C246.69 257.747 250.376 246.61 253.731 235.453C254.638 232.438 258.637 230.53 261.625 230.92C271.365 232.177 281.398 234.184 290.902 236.676C293.884 237.458 296.869 240.638 296.065 243.864C293.389 254.598 289.772 265.204 286.813 275.88C285.752 279.708 284.711 284.2 283.491 287.868C285.007 291.244 286.372 294.56 286.497 298.326C286.748 305.881 278.84 330.306 276.516 339.386C278.068 339.908 278.169 340.146 279.427 341.278L279.608 341.438C279.874 342.004 280.248 342.831 280.162 343.457C279.167 350.703 277.796 365.484 275.749 371.895C278.549 375.971 280.286 379.233 281.368 384.156C283.197 381.263 284.396 378.32 285.837 375.206C288.113 370.262 290.425 365.336 292.774 360.428C299.739 345.994 307.059 331.739 314.725 317.675C319.065 310.04 323.579 302.508 328.265 295.086C341.619 274.241 346.846 275.229 370.27 269.788C382.097 267.041 395.74 266.069 407.177 262.843L408.563 262.168C411.177 258.739 411.433 245.137 411.721 240.31C429.502 260.065 450.079 256.191 458.881 230.483C459.722 228.025 460.286 225.562 460.902 223.037C461.672 224.46 461.765 226.943 461.956 228.612C463.001 237.736 465.326 246.682 467.507 255.58C469.956 256.208 479.712 260.063 480.986 259.86C483.758 249.159 488.096 240.792 496.407 233.322C498.852 231.123 506.707 225.552 509.837 225.213C516.068 221.005 529.931 220.829 537.183 222.204C560.872 226.693 577.126 249.506 571.713 273.679C570.502 279.084 566.695 289.176 562.143 292.501C561.664 293.853 556.985 298.276 555.657 299.358C558.023 304.82 562.818 316.483 563.509 322.284L563.904 322.322C570.983 322.936 578.392 322.28 585.504 322.297C588.729 322.305 592.557 322.104 595.039 324.65C596.435 326.1 597.594 329.299 597.527 331.392C596.743 336.482 595.289 342.183 594.11 347.211C591.293 359.309 588.405 371.391 585.447 383.454L574.445 429.91C572.958 435.971 571.55 442.584 569.722 448.52C568.645 452.021 564.946 454.225 562.649 456.688C566.5 456.693 584.053 455.768 586.062 457.78C586.396 458.115 586.269 458.318 586.25 458.75C584.258 461.018 574.842 460.021 571.475 460.023L543.705 460.093L452.436 460.124L195.798 460.029L53.9087 460.044L17.9571 460.037C14.6743 460.043 2.92668 460.292 0.206874 459.675C-0.845871 458.572 -0.382722 458.048 0.21772 456.746C3.88984 456.286 18.3088 456.627 23.0033 456.618C16.0353 450.39 10.7775 442.447 7.7402 433.559C-6.91142 392.006 22.3368 342.489 44.4374 309.111C49.6394 301.255 53.4526 290.882 60.2122 284.461C65.286 279.64 74.8841 276.252 81.4524 273.878C83.4741 274.77 84.3225 273.815 85.6107 272.406C88.6004 272.02 97.6741 268.335 101.153 267.227C109.515 264.562 117.8 261.757 125.992 258.596C125.808 246.046 127.594 248.974 136.905 244.753L137.396 244.527C137.772 240.425 138.12 236.475 138.563 232.375C138.589 232.029 138.742 230.087 138.5 229.92C128.72 223.118 123.794 214.494 123.619 202.432C123.496 193.939 124.504 188.975 128.287 181.575C125.902 169.097 136.408 161.643 147.82 164.751Z" fill="#EBEFFA"/>
<path d="M147.821 164.751C150.614 162.451 153.58 160.283 157.096 159.032C168.344 155.249 182.475 157.198 193.391 161.715C205.366 166.668 215.636 187.171 210.205 199.725C208.788 203.003 205.821 204.55 202.532 205.624C199.341 215.185 196.861 225.588 194.06 235.316C192.793 239.716 191.635 244.96 190.045 249.179C193.796 250.284 196.465 253.818 199.813 256.173C213.357 265.705 227.016 269.084 243.39 268.927C246.69 257.747 250.376 246.61 253.731 235.453C254.638 232.438 258.638 230.53 261.625 230.92C271.365 232.177 281.399 234.184 290.902 236.676C293.885 237.458 296.869 240.638 296.065 243.864C293.389 254.598 289.772 265.204 286.813 275.88C285.752 279.708 284.711 284.2 283.491 287.868C285.007 291.244 286.372 294.56 286.497 298.326C286.748 305.881 278.84 330.306 276.516 339.386C278.068 339.908 278.169 340.146 279.428 341.278L279.608 341.438C279.874 342.004 280.248 342.831 280.162 343.457C279.167 350.703 277.796 365.484 275.749 371.895C278.549 375.971 280.286 379.233 281.368 384.156C282.393 387.57 282.444 390.615 282.594 394.114C283.457 414.175 268.254 435.449 248.238 438.737C248.126 444.816 246.825 450.914 246.506 456.742L183.202 456.784C172.852 456.655 162.312 456.766 151.948 456.777L52.3571 456.748L19.4084 456.951C14.2129 456.983 5.15328 457.207 0.217773 456.746C3.8899 456.286 18.3089 456.627 23.0034 456.618C16.0354 450.39 10.7776 442.447 7.74026 433.559C-6.91136 392.006 22.3369 342.489 44.4375 309.111C49.6394 301.255 53.4527 290.882 60.2122 284.461C65.286 279.64 74.8842 276.252 81.4525 273.878C83.4741 274.77 84.3226 273.815 85.6108 272.406C88.6005 272.02 97.6742 268.335 101.153 267.227C109.515 264.562 117.8 261.757 125.992 258.596C125.808 246.046 127.594 248.974 136.905 244.753L137.396 244.527C137.772 240.425 138.121 236.475 138.564 232.375C138.589 232.029 138.742 230.087 138.5 229.92C128.72 223.118 123.794 214.494 123.619 202.432C123.496 193.939 124.504 188.975 128.287 181.575C125.902 169.097 136.408 161.643 147.821 164.751Z" fill="#DDD4FF"/>
<path d="M243.389 268.927C246.689 257.747 250.376 246.61 253.731 235.453C254.637 232.439 258.637 230.53 261.625 230.92C271.365 232.177 281.398 234.185 290.902 236.676C293.884 237.458 296.869 240.638 296.064 243.864C293.389 254.598 289.772 265.204 286.813 275.88C285.752 279.708 284.71 284.2 283.491 287.868C285.006 291.244 286.372 294.56 286.497 298.326C286.748 305.881 278.839 330.306 276.516 339.386C278.068 339.908 278.168 340.146 279.427 341.278L279.608 341.438C279.874 342.004 280.247 342.832 280.161 343.457C279.167 350.703 277.796 365.484 275.749 371.895C278.548 375.972 280.285 379.234 281.368 384.156C282.392 387.57 282.443 390.615 282.594 394.114C283.457 414.175 268.254 435.449 248.238 438.738C248.125 444.816 246.824 450.914 246.506 456.742L183.202 456.784L183.124 335.243L183.177 297.458C183.176 293.588 183.399 282.739 182.899 279.5L182.681 279.113C186.767 276.866 190.313 274.623 192.974 270.678C198.244 262.867 197.778 255.031 189.848 249.655L190.044 249.179C193.796 250.284 196.465 253.818 199.813 256.173C213.357 265.705 227.016 269.084 243.389 268.927Z" fill="#DDD4FF"/>
<path d="M243.39 268.927C246.69 257.747 250.376 246.61 253.731 235.453C254.638 232.439 258.638 230.53 261.625 230.92C271.366 232.177 281.399 234.185 290.902 236.676C293.885 237.458 296.869 240.638 296.065 243.864C293.389 254.598 289.772 265.204 286.814 275.88C285.752 279.708 284.711 284.2 283.491 287.868C285.007 291.244 286.373 294.56 286.498 298.326C286.749 305.881 278.84 330.306 276.516 339.386C276.065 340.644 275.637 342.861 275.329 344.232C268.288 349.445 252.025 349.104 245.803 341.966C244.11 340.023 244.204 338.422 244.443 335.961C244.781 335.456 244.65 334.952 244.662 334.21C248.407 318.703 242.592 315.988 233.181 305.394C230.781 302.693 230.426 299.353 233.574 297.025L234.069 297.248L235.175 297.123C230.031 292.793 230.056 289.618 235.94 286.455C237.058 285.854 231.106 278.998 240.919 277.444C241.671 274.616 242.56 271.739 243.39 268.927Z" fill="#FACCD9"/>
<path d="M243.39 268.927C246.69 257.747 250.376 246.61 253.731 235.453C254.638 232.439 258.638 230.53 261.625 230.92C271.366 232.177 281.399 234.185 290.902 236.676C293.885 237.458 296.869 240.638 296.065 243.864C293.389 254.598 289.772 265.204 286.814 275.88C285.752 279.708 284.711 284.2 283.491 287.868C285.007 291.244 286.373 294.56 286.498 298.326C286.749 305.881 278.84 330.306 276.516 339.386C276.065 340.644 275.637 342.861 275.329 344.232C268.288 349.445 252.025 349.104 245.803 341.966C244.11 340.023 244.204 338.422 244.443 335.961C244.781 335.456 244.65 334.952 244.662 334.21C248.407 318.703 242.592 315.988 233.181 305.394C230.781 302.693 230.426 299.353 233.574 297.025L234.069 297.248C228.624 303.251 238.786 309.866 242.473 314.449C249.462 323.138 246.2 327.771 245.042 336.762C243.629 347.733 267.317 349.275 273.41 344.743C273.887 344.384 275.01 342.004 275.185 341.361C278.55 329.351 281.918 316.921 285.063 304.89C287.88 294.115 281.334 282.688 273.103 276.233C268.155 272.352 259.961 265.767 253.66 265.434C251.922 265.342 250.816 268.337 251.777 269.727C259.55 279.41 270.593 283.157 273.71 296.455L255.503 285.852C251.569 283.563 247.619 281.069 243.458 279.279C241.219 278.316 237.284 277.803 236.222 280.686C235.845 281.712 235.697 283.905 236.371 284.811C239.139 288.53 260.039 297.792 261.485 300.942C260.492 301.067 248.964 293.235 246.616 292.256C243.259 290.856 236.688 284.476 233.393 288.893C227.752 296.453 252.535 304.523 253.356 309.249C250.435 308.192 239.344 299.462 235.175 297.123C230.031 292.793 230.056 289.618 235.94 286.455C237.058 285.854 231.106 278.998 240.919 277.444C241.671 274.616 242.56 271.739 243.39 268.927Z" fill="#49287C"/>
<path d="M258.136 232.082C260.245 231.736 263.873 232.063 266.077 232.482C274.312 234.069 282.757 235.428 290.844 237.629C295.236 238.825 295.681 242.258 294.693 246.236C293.534 250.899 291.982 255.518 290.596 260.122C287.849 269 285.305 277.941 282.964 286.938C277.579 277.778 270.028 272.503 261.171 267.096C257.87 265.08 254.394 263.263 251.24 266.249C249.349 270.681 254.235 273.793 257.151 276.272C263.819 281.942 269.712 286.666 272.836 295.122C269.322 292.83 264.449 290.252 260.714 288.083C254.626 284.548 248.034 280.615 241.682 277.685C243.772 268.779 247.526 259.627 250.026 250.808C251.503 245.601 252.947 240.244 254.803 235.181C255.261 233.93 257.086 232.763 258.136 232.082Z" fill="#5FE2FF"/>
<path d="M284.421 242.93C286.671 242.164 289.11 243.384 289.875 245.657C290.64 247.931 289.442 250.401 287.197 251.183C284.941 251.968 282.482 250.749 281.714 248.465C280.946 246.181 282.158 243.699 284.421 242.93Z" fill="#52218F"/>
<path d="M244.662 334.21C244.65 334.952 244.781 335.456 244.443 335.961C244.204 338.422 244.11 340.024 245.803 341.966C252.024 349.104 268.288 349.445 275.328 344.232C275.637 342.861 276.065 340.644 276.516 339.386C278.068 339.908 278.169 340.146 279.427 341.278L279.608 341.438C279.874 342.004 280.248 342.832 280.161 343.457C279.167 350.704 277.796 365.484 275.749 371.895C278.549 375.972 280.286 379.234 281.368 384.157C282.393 387.57 282.443 390.615 282.594 394.114C283.457 414.175 268.254 435.449 248.238 438.738C233.028 438.934 220.475 426.555 217.463 411.957C214.579 397.977 218.589 383.538 226.25 371.784C228.365 368.54 231.264 365.345 232.775 361.814C235.172 354.905 236.204 342.2 240.048 336.27C241.723 335.39 242.932 334.901 244.662 334.21Z" fill="#EBEFFA"/>
<path d="M232.296 364.518C234.889 361.084 236.752 341.992 239.958 337.651C241.266 335.88 242.163 335.59 244.246 335.202L244.443 335.96C244.204 338.422 244.11 340.023 245.803 341.965C252.025 349.104 268.288 349.445 275.328 344.232C275.637 342.861 276.065 340.643 276.516 339.386C278.068 339.908 278.169 340.146 279.428 341.278L279.608 341.438C279.289 351.755 276.874 362.139 275.165 372.269C265.613 378.98 237.241 375.242 232.296 364.518Z" fill="#DDD4FF"/>
<path d="M244.662 334.21C244.65 334.952 244.781 335.456 244.443 335.961L244.245 335.202C242.163 335.59 241.266 335.88 239.958 337.651C236.752 341.992 234.888 361.084 232.296 364.518C216.849 382.728 209.109 413.273 229.414 430.988C244.535 444.18 261.011 436.893 272.31 422.794C283.293 409.089 285.875 386.825 275.165 372.269C276.873 362.139 279.289 351.756 279.608 341.438C279.874 342.004 280.248 342.832 280.161 343.457C279.167 350.704 277.796 365.484 275.749 371.895C278.549 375.972 280.286 379.234 281.368 384.157C282.393 387.57 282.443 390.615 282.594 394.114C283.457 414.175 268.254 435.449 248.238 438.738C233.028 438.934 220.475 426.555 217.463 411.957C214.579 397.977 218.589 383.538 226.25 371.784C228.365 368.54 231.264 365.345 232.775 361.814C235.172 354.905 236.204 342.2 240.048 336.27C241.723 335.39 242.932 334.901 244.662 334.21Z" fill="#8C78C0"/>
<path d="M147.82 164.751C150.614 162.451 153.58 160.283 157.096 159.032C168.344 155.249 182.475 157.198 193.391 161.715C205.366 166.668 215.636 187.171 210.205 199.725C208.787 203.003 205.821 204.55 202.532 205.624C199.34 215.185 196.861 225.588 194.06 235.316C192.793 239.716 191.634 244.96 190.044 249.179L189.849 249.654C197.778 255.031 198.245 262.867 192.974 270.678C190.313 274.623 186.767 276.866 182.681 279.113L182.899 279.5C173.442 283.776 160.181 282.789 150.4 279.865L149.648 279.104C148.52 278.492 146.602 277.848 145.362 277.275C133.387 271.738 126.517 265.614 127.133 251.66C128.577 248.955 133.101 245.429 136.155 246.065C137.753 247.458 136.109 249.044 137.036 251.154L137.395 244.527C137.772 240.425 138.12 236.475 138.563 232.375C138.589 232.029 138.742 230.087 138.5 229.92C128.72 223.118 123.794 214.494 123.619 202.432C123.496 193.939 124.504 188.975 128.287 181.575C125.902 169.097 136.408 161.643 147.82 164.751Z" fill="#FACCD9"/>
<path d="M147.82 164.751C150.614 162.451 153.58 160.283 157.096 159.032C168.344 155.249 182.475 157.198 193.391 161.715C205.366 166.668 215.636 187.171 210.205 199.725C208.787 203.003 205.821 204.55 202.532 205.624L201.742 205.431C193.201 203.556 190.571 199.574 189.333 191.094C186.074 187.81 181.951 187.116 177.522 186.502C169.67 185.411 161.885 183.53 154.02 182.646C151.308 182.341 150.855 185.122 150.295 187.21C148.905 196.584 147.907 205.936 146.131 215.262C144.14 212.408 141.284 206.972 138.067 206.707C131.033 206.127 132.137 215.792 135.507 219.357C138.335 222.348 138.834 222.251 142.05 223.48C141.498 226.696 141.011 229.055 141.063 232.329L140.377 232.745L139.646 232.594L139.349 233.271C139.09 232.634 139.185 232.865 138.563 232.375C138.589 232.029 138.742 230.087 138.5 229.92C128.72 223.118 123.794 214.494 123.619 202.432C123.496 193.939 124.504 188.975 128.287 181.575C125.902 169.097 136.408 161.643 147.82 164.751Z" fill="#52218F"/>
<path d="M127.134 251.66C128.578 248.956 133.102 245.429 136.156 246.065C137.753 247.458 136.11 249.045 137.036 251.154L137.305 252.238C144.318 263.696 165.527 269.874 177.407 264.506C182.321 263.399 187.139 256.653 188.311 251.918C188.418 251.671 189.622 249.98 189.849 249.655C197.779 255.031 198.245 262.867 192.975 270.678C190.314 274.623 186.767 276.866 182.681 279.113L182.9 279.5C173.443 283.776 160.181 282.789 150.4 279.866L149.649 279.105C148.52 278.492 146.603 277.848 145.363 277.275C133.387 271.739 126.517 265.614 127.134 251.66Z" fill="#EBEFFA"/>
<path d="M182.681 279.113L182.9 279.5C173.443 283.776 160.181 282.789 150.4 279.866L149.648 279.104C160.622 282.143 171.742 283.221 182.681 279.113Z" fill="#DDD4FF"/>
<path d="M139.35 233.271L139.647 232.594L140.377 232.745C143.214 243.226 148.204 254.082 157.816 259.609C167.814 265.357 177.619 263.38 185.217 255.032C185.955 254.221 187.457 252.556 188.311 251.918C187.138 256.653 182.321 263.399 177.406 264.506C165.527 269.874 144.318 263.696 137.304 252.237L137.036 251.154L137.396 244.527C137.772 240.426 138.121 236.475 138.564 232.375C139.185 232.865 139.091 232.634 139.35 233.271Z" fill="#FACCD9"/>
<path d="M137.304 252.238L137.705 250.521C137.856 252.294 138.276 253.121 139.468 254.467C145.52 261.298 154.819 265.001 163.712 265.869C168.256 266.313 172.967 265.447 177.406 264.506C165.526 269.874 144.317 263.697 137.304 252.238Z" fill="#8C78C0"/>
<path d="M138.564 232.375C139.185 232.865 139.091 232.634 139.35 233.271C138.696 238.576 137.923 245.206 137.706 250.521L137.304 252.237L137.036 251.154L137.396 244.527C137.772 240.426 138.121 236.475 138.564 232.375Z" fill="#49287C"/>
<path d="M201.742 205.431L202.532 205.623C199.341 215.184 196.861 225.588 194.061 235.315C192.793 239.716 191.635 244.96 190.045 249.179L189.849 249.654C189.622 249.98 188.418 251.671 188.311 251.918C187.457 252.555 185.955 254.221 185.217 255.032C177.619 263.379 167.814 265.357 157.816 259.608C148.205 254.082 143.214 243.226 140.377 232.744L141.063 232.329C142.103 236.507 143.714 240.228 145.365 244.173C150.321 256.151 164.457 266.742 177.353 260.254C188.995 254.396 190.048 246.762 193.251 235.494C195.953 225.99 198.407 215.003 201.604 205.82L201.742 205.431Z" fill="#49287C"/>
<path d="M161.328 208.202C163.949 208.004 169.512 208.621 170.819 211.203L170.485 211.685C169.081 211.962 167.844 211.417 166.423 211.002C164.296 210.628 155.901 211.105 155.248 210.218C156.397 209.131 159.741 208.454 161.328 208.202Z" fill="#52218F"/>
<path d="M186.646 210.484C189.136 210.38 195.569 210.781 196.008 213.974C195.072 214.407 195.059 214.125 193.739 213.685C189.813 212.801 186.093 213.323 183.433 212.573L183.246 212.117C184.726 210.962 184.787 211.083 186.646 210.484Z" fill="#52218F"/>
<path d="M137.484 209.923C140.715 210.744 143.117 214.941 141.127 218.011C139.436 215.87 136.826 214.173 136.248 212.105C136.541 210.635 136.372 211.147 137.484 209.923Z" fill="#49287C"/>
<path d="M137.42 210.59C139.759 211.297 141.832 214.308 141.225 216.67C139.307 214.17 135.848 213.746 137.42 210.59Z" fill="#FACCD9"/>
<path d="M178.062 244.187C173.249 244.541 169.668 244.399 165.443 241.382C163.675 240.121 160.632 236.778 160.318 234.559C162.648 235.193 162.584 243.647 176.901 243.481L178.062 244.187Z" fill="#52218F"/>
<path d="M187.296 216.308C187.867 215.933 188.592 215.898 189.196 216.215C189.8 216.532 190.188 217.153 190.213 217.841C190.237 218.528 189.895 219.176 189.315 219.537C188.435 220.085 187.281 219.816 186.728 218.931C186.175 218.047 186.429 216.878 187.296 216.308Z" fill="#52218F"/>
<path d="M180.623 217.601C181.72 218.483 181.651 228.211 182.126 231.23L181.444 231.159C180.552 229.53 180.51 219.874 180.623 217.601Z" fill="#7048A6"/>
<path d="M162.243 214.833C163.177 214.48 164.219 214.943 164.595 215.876C164.971 216.81 164.545 217.876 163.633 218.284C163.019 218.558 162.306 218.474 161.772 218.063C161.238 217.651 160.966 216.979 161.065 216.307C161.163 215.635 161.614 215.07 162.243 214.833Z" fill="#52218F"/>
<path d="M176.901 243.481C178.136 243.338 182.04 242.512 182.673 242.584C181.03 243.57 179.926 243.772 178.061 244.187L176.901 243.481Z" fill="#49287C"/>
<path d="M182.899 279.5C183.399 282.739 183.176 293.588 183.177 297.458L183.125 335.243L183.202 456.784C172.852 456.655 162.312 456.766 151.948 456.777L152.313 416.009C158.205 411.088 153.51 411.349 154.855 408.129C156.007 405.368 161.325 405.921 156.379 399.07C156.94 398.547 157.475 397.996 157.98 397.417C160.475 394.577 160.481 392.116 157.543 389.67L157.514 357.388C157.522 353.378 157.601 349.33 157.538 345.326C157.436 338.896 158.611 332.816 150.562 331.658C150.098 327.557 150.283 316.424 150.326 311.919C150.424 301.467 150.041 290.233 150.4 279.866C160.181 282.789 173.442 283.776 182.899 279.5Z" fill="#EBEFFA"/>
<path d="M112.869 379.812L112.632 351.562C112.608 348.624 112.413 340.293 112.849 337.776C113.11 336.222 113.825 334.782 114.903 333.642C117.894 330.533 125.46 331.698 129.619 331.646C136.584 331.56 143.579 331.868 150.561 331.658C158.61 332.816 157.436 338.896 157.538 345.326C157.601 349.33 157.522 353.378 157.513 357.388L157.542 389.67C160.48 392.115 160.475 394.577 157.98 397.417C157.474 397.996 156.939 398.547 156.378 399.07C161.325 405.921 156.007 405.368 154.854 408.129C153.509 411.349 158.205 411.088 152.313 416.009C143.403 421.74 131.433 426.732 121.471 430.285C93.0117 440.435 85.1815 413.832 96.9505 392.193L97.7221 390.889C103.04 384.642 105.157 382.959 112.869 379.812Z" fill="#7048A6"/>
<path d="M137.566 403.712C139.603 403.361 155.097 399.661 155.3 399.839C165.408 408.715 138.578 410.526 133.867 413.496C138.404 413.82 147.745 409.271 153.225 408.934C153.779 409.255 154.037 409.505 154.381 410.052C154.812 410.736 154.824 411.359 154.624 412.127C153.783 415.355 147.496 418.013 144.811 419.39C133.986 424.94 115.267 434.982 103.225 430.717C99.2013 429.292 96.2569 426.332 94.489 422.443C91.1614 415.123 92.1328 405.066 94.9431 397.739C97.8638 390.123 103.574 384.553 110.938 381.353C117.149 378.655 148.798 369.812 153.835 372.484C154.588 372.883 155.096 373.392 155.256 374.267C155.501 375.604 155.006 377.044 153.99 377.917C149.394 381.869 131.214 383.571 128.208 389.025C127.835 389.701 127.699 390.301 127.893 391.06C131.36 393.801 154.922 389.303 157.288 390.515C158.162 390.963 159.112 392.21 159.319 393.194C159.497 394.039 159.211 394.846 158.73 395.529C155.305 400.398 142.685 402.141 136.897 403.007L137.566 403.712Z" fill="#FACCD9"/>
<path d="M136.897 403.007L137.567 403.711C136.399 403.882 134.93 404.21 133.915 403.681C134.716 403.008 135.793 403.095 136.897 403.007Z" fill="#52218F"/>
<path d="M113.783 379.481L113.491 350.14C113.472 346.008 112.966 341.085 113.76 337.047C114.049 335.583 114.895 334.714 116.132 333.96C117.343 333.223 118.469 332.855 119.868 332.706C122.334 332.441 149.649 332.561 151.344 332.992C153.9 333.641 154.993 334.866 156.279 337.108C156.611 348.429 156.321 360.887 156.433 372.341L155.812 373.223C155.353 372.737 154.886 372.285 154.289 371.97C149.004 369.181 120.466 377.134 113.783 379.481Z" fill="#BBEAFC"/>
<path d="M121.477 339.09C123.653 338.691 125.764 340.061 126.311 342.228C126.858 344.395 125.655 346.62 123.555 347.324C122.06 347.826 120.413 347.441 119.286 346.328C118.159 345.214 117.741 343.558 118.202 342.034C118.664 340.51 119.927 339.375 121.477 339.09Z" fill="#100052"/>
<path d="M120.694 340.295C121.805 339.754 123.117 339.859 124.129 340.571C125.142 341.283 125.696 342.491 125.58 343.732C125.464 344.973 124.697 346.055 123.571 346.564C121.865 347.333 119.865 346.576 119.078 344.863C118.292 343.149 119.012 341.115 120.694 340.295Z" fill="#52218F"/>
<path d="M155.703 377.29L156.59 377.323L156.578 389.48C152.458 389.748 130.718 392.494 128.756 390.031C129.579 384.943 151.422 381.859 155.703 377.29Z" fill="#5FE2FF"/>
<path d="M156.433 372.341C156.742 373.94 156.658 375.684 156.59 377.324L155.703 377.29C156.023 375.588 155.917 374.945 155.812 373.223L156.433 372.341Z" fill="#DDD4FF"/>
<path d="M71.8585 396.371C77.1886 368.28 80.2933 339.732 74.6674 311.377C74.2606 309.327 71.0428 300.311 71.2643 299.473C71.3452 299.572 71.4267 299.673 71.5081 299.773C83.237 324.858 77.2648 372.675 72.4289 396.198C84.8196 396.339 85.5951 395.152 97.7223 390.889L96.9507 392.192C94.6971 391.459 85.3776 396.242 82.7592 396.334C71.6422 396.727 65.8179 397.626 55.5264 402.023C57.222 399.533 68.6354 397.081 71.8585 396.371Z" fill="#8C78C0"/>
<path d="M107.817 436.051C103.818 440.041 94.9228 446.465 89.2937 448.633C73.8725 454.572 50.1966 460.551 36.59 447.776C29.0113 440.66 33.6884 422.266 40.4959 416.157C39.7782 417.973 37.5114 421.298 36.5953 423.179C25.8189 445.425 42.089 456.902 63.1124 454.483C77.6614 452.809 89.8825 449.421 101.954 440.348C103.145 439.453 106.809 435.956 107.844 435.572L107.817 436.051Z" fill="#A099CD"/>
<path d="M43.2788 395.732C47.1144 395.146 50.4892 395.772 54.238 396.053C45.5962 397.145 46.0411 394.302 36.2399 399.143C34.5548 400.127 32.0402 402.27 30.2348 403.563L30.085 403.465C34.3622 399.006 37.3263 397.443 43.2788 395.732Z" fill="#8C78C0"/>
<path d="M40.4961 416.157C41.1303 413.961 47.0362 408.064 48.9526 406.737C48.5307 407.55 40.8313 416.021 40.4961 416.157Z" fill="#8C78C0"/>
<path d="M562.955 322.122L563.509 322.285L563.904 322.322C570.983 322.937 578.392 322.28 585.504 322.298C588.729 322.306 592.557 322.105 595.039 324.651C596.435 326.101 597.594 329.3 597.527 331.393C596.743 336.483 595.289 342.184 594.11 347.212C591.293 359.31 588.405 371.392 585.447 383.455L574.445 429.911C572.958 435.972 571.55 442.584 569.722 448.521C568.645 452.022 564.946 454.226 562.649 456.689C566.5 456.693 584.053 455.769 586.062 457.781C586.396 458.116 586.269 458.319 586.25 458.75C584.258 461.019 574.842 460.022 571.475 460.024L543.705 460.094L452.436 460.125L195.798 460.03L53.9087 460.044L17.9571 460.038C14.6743 460.044 2.92668 460.292 0.206874 459.675C-0.845871 458.573 -0.382722 458.049 0.21772 456.747C5.15323 457.208 14.2128 456.984 19.4083 456.952L52.357 456.749L151.948 456.778C162.312 456.766 172.852 456.655 183.202 456.784L246.506 456.743L294.411 456.708C297.073 456.709 310.493 457.024 311.973 456.726L313.405 456.415H314.154C320.557 455.932 332.46 456.303 339.278 456.315C341.341 452.201 342.068 450.998 343.11 446.402C345.159 439.817 351.402 427.066 356.154 422.246C357.231 421.954 363.642 423.16 367.559 422.569C377.203 421.113 385.714 415.3 395.111 415.201C397.302 415.178 400.805 416.245 402.928 416.85L403.043 416.097C403.047 413.846 405.17 405.261 405.799 402.557L412.676 373.361L419.203 344.84C420.113 340.886 421.037 336.923 421.987 332.975C424.939 320.718 437.423 322.39 447.322 322.415L467.677 322.462L544.156 322.416C547.224 322.425 561.37 322.859 562.955 322.122Z" fill="#DDD4FF"/>
<path d="M356.153 422.246C357.23 421.954 363.641 423.16 367.558 422.569C377.202 421.112 385.713 415.3 395.11 415.201C397.301 415.178 400.805 416.245 402.928 416.85C402.218 422.156 399.404 427.522 398.663 432.201L398.711 433.098C397.862 436.162 397.831 439.085 395.629 440.662C395.952 441.492 396.343 442.375 396.547 443.228C396.293 443.943 395.576 446.088 395.262 446.706C378.023 446.175 360.406 446.571 343.109 446.402C345.158 439.817 351.402 427.066 356.153 422.246Z" fill="#FACCD9"/>
<path d="M396.548 443.227C395.9 442.591 394.716 440.708 393.635 439.578C390.298 436.089 386.165 435.644 382.794 433.59L382.727 433.208C383.765 433.174 384.989 433.975 385.986 434.335C389.926 435.76 392.835 437.478 395.63 440.661C395.953 441.491 396.344 442.374 396.548 443.227Z" fill="#49287C"/>
<path d="M398.711 433.097C395.834 431.361 392.986 429.575 390.168 427.742L390.357 427.635C393.38 428.947 395.85 430.51 398.663 432.2L398.711 433.097Z" fill="#49287C"/>
<path d="M343.11 446.401C360.407 446.571 378.024 446.175 395.263 446.706C394.734 451.331 395.853 453.481 398.977 456.69L340.214 456.629C333.664 456.598 320.079 457.054 314.154 456.415C320.557 455.932 332.46 456.302 339.278 456.314C341.341 452.2 342.069 450.997 343.11 446.401Z" fill="#DDD4FF"/>
<path d="M505.813 373.054C523.786 372.34 518.116 403.634 498.786 407.85C479.572 408.348 485.275 375.874 505.813 373.054Z" fill="#FCFCFE"/>
<path d="M509.837 225.212C516.068 221.005 529.931 220.829 537.182 222.204C560.872 226.693 577.126 249.506 571.713 273.679C570.502 279.084 566.695 289.175 562.143 292.501C561.664 293.853 556.985 298.276 555.657 299.358L555.484 299.156C554.922 296.867 551.873 291.853 550.58 289.615L547.835 285.212C536.758 270.429 512.88 267.75 495.572 263.692L491.276 262.654C487.977 261.864 485.131 261.166 481.874 260.156L480.986 259.86C483.758 249.158 488.096 240.792 496.407 233.322C498.852 231.123 506.707 225.552 509.837 225.212Z" fill="#BBEAFC"/>
<path d="M495.572 263.692C496.216 260.295 496.834 257.334 498.3 254.183C508.336 232.621 539.495 228.37 552.968 248.854C556.999 255.035 558.47 262.568 557.067 269.836C556.01 275.105 552.519 282.367 547.836 285.212C536.759 270.43 512.881 267.75 495.572 263.692Z" fill="#BBEAFC"/>
<path d="M491.275 262.654C491.774 255.102 497.497 245.621 503.127 240.708C520.693 225.376 547.744 228.383 558.803 249.975C564.839 261.758 562.069 280.011 551.901 288.596C551.475 288.956 551.035 289.296 550.58 289.615L547.834 285.212C552.518 282.367 556.009 275.105 557.066 269.835C558.469 262.568 556.997 255.035 552.967 248.854C539.494 228.37 508.334 232.621 498.299 254.183C496.833 257.334 496.215 260.295 495.571 263.692L491.275 262.654Z" fill="#AECDF9"/>
<path d="M509.837 225.212C516.068 221.005 529.932 220.829 537.183 222.204C560.872 226.693 577.126 249.506 571.713 273.679C570.502 279.084 566.696 289.175 562.143 292.501C563.313 290.212 565.433 287.655 566.776 285.251C577.821 265.414 571.201 239.561 551.42 228.23C536.823 219.869 525.28 220.955 509.837 225.212Z" fill="#7F9ACD"/>
<path d="M480.986 259.86C483.758 249.159 488.096 240.793 496.407 233.322C498.852 231.123 506.707 225.553 509.837 225.213C509.675 225.369 509.513 225.525 509.351 225.681C496.912 231.04 486.476 242.717 482.675 255.851C482.289 257.187 481.982 258.686 481.874 260.157L480.986 259.86Z" fill="#7F9ACD"/>
<path d="M555.484 299.156C556.119 298.216 561.208 293.018 562.143 292.5C561.664 293.853 556.985 298.276 555.657 299.358L555.484 299.156Z" fill="#7F9ACD"/>
<path d="M281.777 431.388C280.859 426.632 283.523 420.853 286.561 417.288C294.075 408.469 304.987 403.302 316.362 402.333C332.943 400.919 344.617 410.692 356.434 420.921L356.155 422.245C351.403 427.065 345.159 439.816 343.111 446.401C342.069 450.997 341.341 452.2 339.278 456.314C332.46 456.302 320.557 455.931 314.155 456.415H313.405L311.974 456.725C299.023 452.683 285.639 445.828 281.264 431.742L281.777 431.388Z" fill="#EBEFFA"/>
<path d="M281.777 431.389C287.301 445.765 299.151 452.829 313.405 456.415L311.974 456.725C299.023 452.684 285.639 445.828 281.264 431.742L281.777 431.389Z" fill="#49287C"/>
<path d="M460.902 223.038C461.672 224.461 461.765 226.943 461.957 228.612C463.002 237.736 465.326 246.683 467.507 255.58C468.061 256.168 468.006 256.157 468.76 256.411C468.688 258.415 469.843 260.204 470.042 262.886C463.019 279.748 440.843 284.829 425.43 277.675C418.589 274.499 411.821 268.79 407.177 262.844L408.563 262.169C411.177 258.74 411.434 245.137 411.721 240.311C429.502 260.065 450.079 256.191 458.881 230.483C459.723 228.026 460.287 225.563 460.902 223.038Z" fill="#FACCD9"/>
<path d="M338.891 406.961C344.364 380.897 350.981 360.958 351.906 333.866C352.269 324.741 351.86 315.601 350.683 306.545C350.425 304.576 348.077 295.911 348.203 295.289C349.869 297.109 351.228 305.821 351.583 308.274C356.503 342.289 346.696 374.379 339.502 407.193C343.878 409.855 353.283 416.692 356.605 420.531L356.434 420.921C344.617 410.692 332.943 400.919 316.362 402.333C304.987 403.303 294.075 408.47 286.561 417.288C283.523 420.853 280.859 426.633 281.777 431.389L281.264 431.742C281.27 416.141 293.843 407.817 307.382 403.371C318.208 399.816 328.923 401.516 338.891 406.961Z" fill="#8C78C0"/>
<path d="M467.506 255.58C469.955 256.208 479.711 260.063 480.986 259.86L481.873 260.157C485.131 261.166 487.976 261.865 491.275 262.654L495.571 263.693C512.879 267.75 536.757 270.43 547.834 285.212L550.579 289.615C551.873 291.854 554.921 296.867 555.484 299.157L555.656 299.358C558.022 304.82 562.818 316.484 563.508 322.285L562.954 322.121C560.809 313.5 557.788 305.125 553.938 297.132C551.685 292.519 545.828 282.239 541.33 279.162C526.74 269.183 503.695 267.17 486.634 262.121C479.876 260.122 475.167 258.633 468.759 256.411C468.005 256.157 468.06 256.168 467.506 255.58Z" fill="#49287C"/>
<path d="M356.604 420.531C357.463 421.541 358.947 421.849 360.209 422.035C370.9 423.617 381.61 416.539 391.908 414.569C395.186 413.942 399.738 415.271 403.043 416.096L402.928 416.85C400.806 416.244 397.302 415.178 395.111 415.2C385.714 415.299 377.203 421.112 367.559 422.568C363.642 423.16 357.231 421.954 356.154 422.245L356.434 420.922L356.604 420.531Z" fill="#49287C"/>
<path d="M415.913 282.217C420.268 284.846 424.528 287.096 429.428 288.297C446.914 292.583 465.273 287.028 475.382 271.497C476.207 270.228 476.391 269.658 477.477 268.471L477.672 268.729C476.872 271.083 474.917 272.938 473.538 274.94C462.015 291.678 431.506 295.493 415.703 282.706L415.913 282.217Z" fill="#A099CD"/>
<path d="M415.702 282.706C412.637 280.83 400.72 271.434 401.263 268.098C406.175 274.192 408.282 277.609 415.526 281.986L415.913 282.216L415.702 282.706Z" fill="#8C78C0"/>
<path d="M393.371 195.512C390.404 188.775 384.947 184.826 386.914 174.773C388.146 168.471 392.88 166.639 395.898 162.854C398.801 158.453 399.814 155.255 404.565 152.349C417.891 144.194 442.883 139.972 452.498 155.602C457.906 156.933 461.769 158.62 465.256 163.372C468.706 168.156 468.767 174.366 466.93 179.78C466.465 181.151 464.974 183.974 464.92 185.216C470.927 189.1 465.819 199.893 462.923 204.442C462.391 205.285 461.818 206.1 461.203 206.884C461.407 212.953 461.542 216.951 460.902 223.037C460.286 225.562 459.722 228.025 458.88 230.483C450.079 256.19 429.502 260.065 411.721 240.31C411.351 239.557 408.944 236.195 408.173 234.782C405.28 229.484 403.863 225.056 402.292 219.273C398.481 217.236 391.632 204.77 389.969 200.707C390.873 198.357 391.59 197.262 393.371 195.512Z" fill="#FACCD9"/>
<path d="M393.371 195.512C390.404 188.775 384.947 184.826 386.914 174.773C388.146 168.471 392.88 166.639 395.898 162.854C398.801 158.453 399.814 155.255 404.565 152.349C417.891 144.194 442.883 139.972 452.498 155.602C457.906 156.933 461.769 158.62 465.256 163.372C468.706 168.156 468.767 174.366 466.93 179.78C466.465 181.151 464.974 183.974 464.92 185.216L464.688 185.61C461.456 188.668 458.635 199.767 457.023 199.831C451.538 192.59 456.618 164.936 438.974 164.411C427.022 164.056 401.135 163.461 398.198 179.08C397.274 184.131 403.794 204.098 402.341 206.595C400.034 206.246 395.793 198.088 393.698 196.028L393.371 195.512Z" fill="#52218F"/>
<path d="M464.688 185.61L464.92 185.216C470.927 189.099 465.819 199.893 462.923 204.442C462.391 205.284 461.817 206.1 461.203 206.884C461.407 212.953 461.542 216.951 460.902 223.037C460.286 225.562 459.722 228.025 458.88 230.483C450.079 256.19 429.502 260.064 411.72 240.31C411.351 239.556 408.944 236.195 408.173 234.782C405.28 229.484 403.863 225.055 402.292 219.272C398.48 217.235 391.632 204.77 389.969 200.707C390.873 198.357 391.589 197.262 393.371 195.512L393.698 196.028C392.95 196.86 390.612 199.363 390.985 200.597C392.51 205.639 397.028 211.769 399.7 216.464C400.085 217.171 402.657 218.577 402.843 219.121C404.909 225.134 406.359 231.111 409.863 236.502C418.496 249.788 436.66 258.992 449.536 245.468C455.07 239.656 457.963 232.295 459.67 224.509C460.948 218.426 460.57 211.759 460.504 205.526C464.406 203.01 466.758 195.595 466.85 191.044C466.903 188.473 466.456 187.366 464.688 185.61Z" fill="#49287C"/>
<path d="M442.752 222.497C444.139 222.235 444.277 221.936 445.229 222.467C446.361 227.887 441.992 233.159 436.713 233.877C430.23 234.758 424.984 235.629 421.216 229.035C420.778 227.921 420.523 227.538 420.645 226.338L421.369 225.801C425.409 225.756 438.23 223.28 442.752 222.497Z" fill="#52218F"/>
<path d="M442.752 222.497L443.358 223.452C442.764 228.477 430.768 230.231 426.873 229.442C425.42 229.149 424.58 228.547 423.333 227.865L422.355 226.486L421.369 225.801C425.409 225.756 438.23 223.28 442.752 222.497Z" fill="#FCFCFE"/>
<path d="M442.752 222.497L443.358 223.452C438.028 223.384 428.089 226.314 422.355 226.486L421.369 225.801C425.409 225.756 438.23 223.28 442.752 222.497Z" fill="#49287C"/>
<path d="M421.216 229.034C420.778 227.921 420.523 227.538 420.645 226.338L421.369 225.801L422.355 226.486L423.333 227.864C422.411 228.643 422.417 228.74 421.216 229.034Z" fill="#52218F"/>
<path d="M449.116 191.967C450.197 192.09 450.263 191.982 451.067 192.666C451.438 193.829 451.49 193.301 451.074 194.31C449.095 195.871 439.975 196.439 436.954 196.78C436.045 196.835 435.985 196.927 435.182 196.552C434.505 195.31 434.567 195.921 434.771 194.691C436.546 193.052 446.265 192.325 449.116 191.967Z" fill="#52218F"/>
<path d="M418.549 195.941L420.133 195.772C421.165 196.187 421.171 196.099 421.775 197.015L421.55 197.726C419.697 199.32 412.503 199.738 409.601 200.099C408.374 200.31 407.071 200.675 406.075 199.998C405.726 198.963 405.716 199.462 406.084 198.452C408.259 196.773 415.376 196.349 418.549 195.941Z" fill="#52218F"/>
<path d="M442.52 200.968C443.139 200.678 443.866 200.755 444.41 201.17C444.956 201.585 445.23 202.27 445.125 202.952C445.019 203.634 444.55 204.201 443.906 204.428C442.976 204.755 441.956 204.287 441.587 203.364C441.217 202.442 441.628 201.388 442.52 200.968Z" fill="#52218F"/>
<path d="M413.575 205.053C414.08 204.651 414.762 204.561 415.351 204.82C415.941 205.079 416.342 205.644 416.396 206.291C416.449 206.939 416.146 207.563 415.608 207.918C414.826 208.433 413.782 208.234 413.238 207.468C412.695 206.701 412.843 205.637 413.575 205.053Z" fill="#52218F"/>
<path d="M291.256 0.65918C299.295 7.54744 307.385 14.3732 315.526 21.1359C320.058 24.9575 324.67 29.1766 329.365 32.7118C323.965 39.6406 319.234 46.1852 313.376 52.8548C298.214 70.116 281.551 82.3486 261.796 93.7644L255.291 97.4843C249.574 88.6819 242.265 79.4156 236.11 70.7461C233.061 66.4499 229.559 61.3435 226.383 57.2607C236.157 54.0791 252.542 43.2562 260.413 36.4238C271.112 27.1349 283.51 12.5481 291.256 0.65918Z" fill="#5FE2FF"/>
<path d="M291.94 9.85449C293.242 10.5597 302.088 18.3558 303.95 19.9809C308.867 24.2731 316.246 29.4213 320.645 33.8544C313.958 43.2636 304.986 53.0005 296.854 61.135C287.223 70.7695 273.815 79.6344 262.183 86.6635C260.66 87.6299 258.749 88.6521 257.151 89.5554C254.769 86.6669 252.036 82.6113 249.775 79.4895L236.176 60.6591C238.569 59.6017 242.316 56.9072 244.622 55.4962C259.973 46.0943 273.237 33.6836 284.723 19.8027C286.777 17.3203 290.435 12.5934 291.94 9.85449Z" fill="#BBEAFC"/>
<path d="M277.121 41.0498C283.571 41.7291 289.992 45.879 290.268 53.2711C290.328 54.8881 289.825 57.0077 288.646 58.1827C287.918 58.4047 287.272 58.6526 286.482 58.1701C281.737 55.2783 278.576 50.2091 273.183 48.3621L272.665 48.1873C274.367 49.6422 275.703 51.4035 277.399 52.758C279.055 54.0819 282.663 54.4089 282.897 56.8687C282.497 57.7487 282.003 58.8321 280.904 58.761C281.571 57.5859 281.956 57.4071 281.861 56.3131C279.509 54.8782 273.058 51.2586 272.525 48.63L273.052 48.1255C277.073 47.1558 278.73 51.9604 282.229 53.7078C284.142 54.6628 285.149 51.8488 287.142 50.9216L287.64 51.3064C288.412 54.29 285.483 53.9995 285.093 56.6421C285.715 57.5613 286.512 57.7301 287.56 58.1608C288.467 57.8072 288.34 57.6278 289.009 56.6441C291.904 47.8091 284.914 43.5109 277.686 41.3589C275.349 42.2169 272.109 43.2757 271.356 45.9382C272.235 48.7449 271.225 47.0966 270.036 48.6439C269.096 54.0986 274.714 60.8971 279.866 62.2317C281.874 62.7521 285.094 61.7551 285.621 59.6456L285.247 59.0953C282.535 58.1149 282.177 61.1118 279.781 60.8825L279.666 60.4285C282.035 59.1591 281.734 59.1265 283.819 57.5832C285.241 57.8597 285.499 58.0903 286.027 59.3532C285.682 67.3101 267.994 60.8984 269.422 48.1135C270.067 47.5719 270.106 47.5911 270.88 47.2754C272.4 42.4728 272.341 42.6396 277.121 41.0498Z" fill="#5FE2FF"/>
<path d="M47.7496 199.874C50.7669 203.063 63.1306 212.337 67.2061 215.334C79.9892 224.735 92.6381 234.787 105.339 244.19C103.774 246.657 101.416 249.686 99.677 252.144C94.8839 258.823 90.1946 265.577 85.6111 272.406C84.3229 273.815 83.4744 274.77 81.4528 273.878C79.8045 272.066 70.9713 265.72 68.2885 263.678C57.3832 255.468 46.5718 247.132 35.857 238.67C32.8187 236.264 27.6645 232.855 25.043 230.425C32.6248 221.315 40.1146 209.523 47.7496 199.874Z" fill="#DDD4FF"/>
<path d="M48.3414 206.015C57.3796 214.364 70.5182 223.078 80.4194 230.544C86.943 235.462 92.9494 240.209 99.6439 244.952C95.393 251.103 90.5906 256.934 86.4534 263.177C85.1534 265.138 83.9572 266.907 82.4357 268.706C77.8535 264.869 70.5912 259.993 65.5056 256.018C53.9988 247.027 42.4225 237.952 30.5996 229.416C37.7502 221.745 42.3127 212.92 48.3414 206.015Z" fill="#DDD4FF"/>
<path d="M64.5599 230.125C65.5266 230.185 66.7819 230.235 67.6863 230.556C69.4529 231.187 70.8758 232.54 71.6093 234.284C73.6493 239.256 70.2869 243.769 65.6285 245.4C61.4689 245.813 60.0342 244.477 57.981 240.956C57.8121 239.072 57.9061 237.722 57.9856 235.846C59.9514 232.595 60.7874 231.4 64.5599 230.125Z" fill="#DDD4FF"/>
<path d="M65.3737 234.33L65.6491 234.722C63.5966 237.896 63.4757 238.23 63.195 242.078C63.1543 242.637 62.6121 242.662 62.0146 242.871L62.4655 242.246C61.8392 238.897 63.0432 236.502 65.3737 234.33Z" fill="#DDD4FF"/>
<path d="M393.305 57.5264C396.057 59.6725 401.898 65.8941 404.365 68.5493C409.545 74.1236 414.444 79.2552 419.848 84.6295C415.552 88.703 411.361 93.6605 406.916 97.9647C394.769 109.703 380.687 119.205 365.306 126.041L360.368 128.425C354.15 117.369 347.756 107.186 341.018 96.45C344.998 94.1264 350.529 91.9471 354.93 89.565C367.46 82.7844 385.205 69.3681 393.305 57.5264Z" fill="#5FE2FF"/>
<path d="M393.195 65.1177C395.379 66.2901 409.884 81.8159 412.564 84.5549C410.135 88.2522 406.406 91.9496 403.251 95.0621C391.679 106.478 381.203 113.017 366.872 120.042C365.569 120.708 363.832 121.42 362.467 122.029C357.562 114.121 353.515 106.635 348.229 98.6744C364.839 89.5224 380.735 79.9968 393.195 65.1177Z" fill="#BBEAFC"/>
<path d="M381.331 84.9194C385.538 85.6399 389.094 89.1 390.092 93.3038C390.36 94.4357 390.577 96.276 389.92 97.3016L388.529 97.5216C388.021 98.6474 389.634 99.1718 388.972 101.292C387.764 102.51 385.53 102.95 383.864 103.277C376.421 102.562 370.801 94.55 374.39 87.5374C376.126 84.1458 378.282 85.8187 381.331 84.9194Z" fill="#5FE2FF"/>
<path d="M296.339 162.073C302.204 166.487 307.919 171.659 313.84 176.253C326.63 186.174 339.239 193.354 353.021 201.509C348.005 206.083 335.901 223.595 332.327 229.471C331.989 230.222 332.253 229.968 331.598 230.293C326.642 227.2 321.018 224.427 316.203 221.282C302.904 212.594 288.01 201.194 277.148 189.459C282.591 182.221 291.688 169.568 296.339 162.073Z" fill="#DDD4FF"/>
<path d="M297.697 168.403C298.513 168.895 301.756 171.95 302.736 172.824C305.211 175.006 307.752 177.11 310.355 179.133C313.67 181.679 317.334 183.922 320.745 186.324C329.314 192.357 337.644 197.724 346.989 202.456C340.351 209.563 336.393 215.429 331.053 223.488C330.859 223.644 330.321 223.92 330.081 224.054C327.635 223.743 322.434 220.225 320.208 218.793C307.064 210.339 293.529 200.295 282.526 189.07C285.874 185.472 294.573 172.838 297.697 168.403Z" fill="#DDD4FF"/>
<path d="M314.547 190.204C315.436 190.202 316.319 190.365 317.15 190.685C318.372 191.159 319.321 192.159 319.738 193.414C321.405 198.466 317.031 203.937 312.213 205.351C303.71 205.289 305.034 192.677 314.547 190.204Z" fill="#DDD4FF"/>
<path d="M310.516 197.721C310.695 197.935 311.672 200.775 311.967 201.434L311.486 201.91C310.59 201.256 309.997 200.953 309.479 199.966C309.574 198.719 309.702 198.924 310.516 197.721Z" fill="#DDD4FF"/>
<path d="M311.629 198.447C313.367 198.663 314.05 198.485 314.834 200.093C312.889 200.008 312.777 200.041 311.629 198.447Z" fill="#DDD4FF"/>
<path d="M515.017 155.137C516.373 155.607 519.676 158.43 520.878 159.43C533.149 169.645 546.044 179.012 558.486 189.007C561.157 191.152 563.78 193.333 566.683 195.15C561.839 202.124 556.713 208.817 551.907 215.815C550.914 217.263 548.08 222.6 547.096 222.9C541.579 218.454 535.245 214.28 529.905 209.722C518.484 199.974 505.517 191.015 494.325 181.139C500.933 174.097 508.595 161.638 515.017 155.137Z" fill="#DDD4FF"/>
<path d="M515.641 161.108C517.811 162.589 521.429 166.071 523.958 167.966L560.993 196.209C556.16 201.805 550.654 209.946 546.282 216.112C543.164 213.58 539.872 211.31 536.649 208.92C524.412 199.839 512.802 190.037 500.727 180.69C504.303 174.929 511.443 167.439 515.641 161.108Z" fill="#DDD4FF"/>
<path d="M528.372 181.487C531.772 181.381 534.796 182.301 535.925 185.966C536.426 187.648 536.231 189.462 535.386 190.996C534.276 193.024 532.353 194.303 530.188 194.93C528.53 194.984 527.403 195.101 525.763 194.774L525.53 194.368C526.499 194.212 526.75 194.309 527.474 193.767C521.207 189.999 522.208 184.668 528.372 181.487Z" fill="#DDD4FF"/>
<path d="M529.291 184.172C530.733 184.183 531.177 184.032 532.291 184.941C533.713 187.402 532.164 190.273 530.061 191.747C524.75 192.207 526.282 186.765 529.291 184.172Z" fill="#DDD4FF"/>
<path d="M529.568 184.82L531.201 184.931C533.616 186.634 531.25 189.46 529.755 190.962C529.305 191.014 528.989 190.941 528.526 190.893C526.398 189.018 527.947 186.444 529.568 184.82Z" fill="#DDD4FF"/>
<path d="M252.094 109.292C254.191 110.656 269.867 131.044 273.262 134.859C270.354 137.771 266.345 140.967 263.24 143.761C250.226 155.475 236.525 164.808 221.824 174.235C220.867 174.852 221.359 174.731 220.349 174.782C214.392 166.233 207.977 156.485 201.542 148.371C205.474 145.886 209.782 143.676 213.835 141.108C227.978 132.338 240.853 121.631 252.094 109.292Z" fill="#DDD4FF"/>
<path d="M251.791 115.67C256.92 121.402 262.454 128.576 267.67 134.646C266.18 135.665 264.246 137.337 262.901 138.62C250.474 150.469 236.978 159.215 222.755 168.737C222.115 169.201 222.482 169.043 221.635 169.164C216.621 162.885 212.792 156.19 207.17 149.341C223.871 141.676 238.848 128.557 251.791 115.67Z" fill="#DDD4FF"/>
<path d="M235.034 136.077C238.4 135.732 240.618 136.098 242.924 138.808C246.065 142.5 245.689 146.005 242.19 148.967C236.528 149.864 231.947 145.111 232.671 139.27C232.896 137.455 233.607 137.094 235.034 136.077Z" fill="#DDD4FF"/>
<path d="M237.183 139.768C238.073 140.091 241.077 141.988 241.373 142.847C238.799 142.613 237.322 142.756 237.183 139.768Z" fill="#DDD4FF"/>
<path d="M467.046 97.8359C476.061 97.1759 484.449 103.07 490.984 108.759C496.168 113.272 507.238 124.118 497.195 129.528C484.772 131.509 452.432 105.128 467.046 97.8359Z" fill="#DDD4FF"/>
<path d="M468.461 102.146C473.861 102.325 479.318 105.276 483.554 108.52C486.818 111.021 499.791 120.637 496.198 125.451C491.127 125.404 486.846 123.13 482.395 119.784C478.151 116.594 468.833 109.792 467.54 104.245C467.335 103.361 467.977 102.772 468.461 102.146Z" fill="#FCFCFE"/>
<path d="M115.906 80.3267C123.501 78.7835 130.895 83.7556 132.427 91.4348C133.959 99.1139 129.048 106.596 121.456 108.151C113.855 109.708 106.446 104.735 104.913 97.0469C103.379 89.3591 108.303 81.8707 115.906 80.3267Z" fill="#DDD4FF"/>
<path d="M116.771 81.6931C123.598 80.5991 130.006 85.3227 131.066 92.2309C132.125 99.1391 127.434 105.603 120.599 106.652C113.796 107.696 107.44 102.979 106.385 96.1024C105.33 89.2261 109.974 82.7824 116.771 81.6931Z" fill="#EBEFFA"/>
<path d="M85.0572 119.502C92.121 118.122 98.9411 122.834 100.239 129.989C101.536 137.146 96.813 143.998 89.7248 145.242C82.7312 146.47 76.065 141.771 74.7847 134.71C73.5044 127.649 78.0879 120.864 85.0572 119.502Z" fill="#AECDF9"/>
<path d="M85.0862 120.127C89.4626 119.242 93.9699 120.821 96.8676 124.254C99.7653 127.686 100.6 132.435 99.0496 136.668C97.4992 140.9 93.8056 143.953 89.3956 144.647C82.776 145.69 76.5462 141.191 75.3737 134.52C74.2012 127.849 78.5159 121.455 85.0862 120.127Z" fill="#BBEAFC"/>
</g>
<defs>
<clipPath id="clip0_57_1304">
<rect width="637" height="460" fill="white"/>
</clipPath>
</defs>
</svg>
